MontserratZ-Light.ufo
<glyph name="exclam" format="2">
  <advance width="252"/>
  <unicode hex="0021"/>
  <outline>
    <contour>
      <point x="107" y="201" type="line"/>
      <point x="97.3337" y="700" type="line"/>
      <point x="155.333" y="700" type="line"/>
      <point x="145.333" y="201" type="line"/>
    </contour>
    <contour>
      <point x="126.333" y="-3.99997" type="qcurve" smooth="yes"/>
      <point x="109.333" y="-3.99997"/>
      <point x="84.667" y="20.6664"/>
      <point x="84.667" y="36.9996" type="qcurve" smooth="yes"/>
      <point x="84.667" y="54.3328"/>
      <point x="109.333" y="77.9992"/>
      <point x="126.333" y="77.9992" type="qcurve" smooth="yes"/>
      <point x="144.333" y="77.9992"/>
      <point x="167.666" y="54.3328"/>
      <point x="167.666" y="36.9996" type="qcurve" smooth="yes"/>
      <point x="167.666" y="20.6664"/>
      <point x="144.333" y="-3.99997"/>
    </contour>
  </outline>
</glyph>
<glyph name="numbersign" format="2">
  <advance width="690"/>
  <unicode hex="0023"/>
  <outline>
    <contour>
      <point x="412" y="0" type="line"/>
      <point x="498" y="700" type="line"/>
      <point x="538.333" y="700" type="line"/>
      <point x="452.333" y="0" type="line"/>
    </contour>
    <contour>
      <point x="31.6668" y="198.334" type="line"/>
      <point x="31.6668" y="238.333" type="line"/>
      <point x="626.333" y="238.333" type="line"/>
      <point x="626.333" y="198.334" type="line"/>
    </contour>
    <contour>
      <point x="152" y="0" type="line"/>
      <point x="238.333" y="700" type="line"/>
      <point x="278.666" y="700" type="line"/>
      <point x="192.333" y="0" type="line"/>
    </contour>
    <contour>
      <point x="63.3334" y="461.667" type="line"/>
      <point x="63.3334" y="501.666" type="line"/>
      <point x="657.666" y="501.666" type="line"/>
      <point x="658" y="461.667" type="line"/>
    </contour>
  </outline>
</glyph>
<glyph name="dollar" format="2">
  <advance width="609"/>
  <unicode hex="0024"/>
  <outline>
    <contour>
      <point x="288.667" y="-120" type="line"/>
      <point x="288.667" y="820" type="line"/>
      <point x="325.666" y="820" type="line"/>
      <point x="325.666" y="-120" type="line"/>
    </contour>
    <contour>
      <point x="306" y="-4.99994" type="qcurve" smooth="yes"/>
      <point x="228.333" y="-4.99994"/>
      <point x="89.0001" y="48.3335"/>
      <point x="51.3335" y="89.6668" type="qcurve"/>
      <point x="74.3333" y="128.333" type="line"/>
      <point x="110" y="90.9994"/>
      <point x="234.667" y="39.9993"/>
      <point x="305.333" y="39.9993" type="qcurve" smooth="yes"/>
      <point x="375.333" y="39.9993"/>
      <point x="464" y="76.6661"/>
      <point x="506.667" y="139"/>
      <point x="506.667" y="177" type="qcurve" smooth="yes"/>
      <point x="506.667" y="221.667"/>
      <point x="459.334" y="276"/>
      <point x="381.334" y="307.667"/>
      <point x="288.667" y="329.667"/>
      <point x="195.334" y="354.667"/>
      <point x="117.334" y="395"/>
      <point x="70.0002" y="464"/>
      <point x="70.0002" y="519.334" type="qcurve" smooth="yes"/>
      <point x="70.0002" y="568.667"/>
      <point x="122.333" y="653"/>
      <point x="231.667" y="705"/>
      <point x="317.667" y="705" type="qcurve" smooth="yes"/>
      <point x="375.666" y="705"/>
      <point x="489" y="671"/>
      <point x="529.333" y="641.667" type="qcurve"/>
      <point x="509.667" y="600.667" type="line"/>
      <point x="466.333" y="631.001"/>
      <point x="365" y="660.001"/>
      <point x="318" y="660.001" type="qcurve" smooth="yes"/>
      <point x="250.666" y="660.001"/>
      <point x="162.666" y="622.001"/>
      <point x="120.999" y="559.334"/>
      <point x="120.999" y="520.333" type="qcurve" smooth="yes"/>
      <point x="120.999" y="475"/>
      <point x="168.333" y="420.666"/>
      <point x="246.333" y="389.333"/>
      <point x="339.666" y="367"/>
      <point x="432.333" y="341.666"/>
      <point x="510.333" y="301.666"/>
      <point x="557.666" y="234"/>
      <point x="557.666" y="179.666" type="qcurve" smooth="yes"/>
      <point x="557.666" y="130.667"/>
      <point x="504.333" y="46.3333"/>
      <point x="392.667" y="-4.99994"/>
    </contour>
  </outline>
</glyph>
<glyph name="ampersand" format="2">
  <advance width="655"/>
  <unicode hex="0026"/>
  <outline>
    <contour>
      <point x="279.666" y="-4.99994" type="qcurve" smooth="yes"/>
      <point x="213.667" y="-4.99994"/>
      <point x="110.667" y="39.3334"/>
      <point x="51.6668" y="117.667"/>
      <point x="51.6668" y="170.333" type="qcurve" smooth="yes"/>
      <point x="51.6668" y="212.667"/>
      <point x="90.0001" y="285.666"/>
      <point x="176.667" y="358.666"/>
      <point x="249.667" y="400" type="qcurve" smooth="yes"/>
      <point x="314.333" y="437"/>
      <point x="387.667" y="491"/>
      <point x="418.333" y="540.667"/>
      <point x="418.333" y="570.334" type="qcurve" smooth="yes"/>
      <point x="418.333" y="613"/>
      <point x="361.333" y="665.001"/>
      <point x="308" y="665.001" type="qcurve" smooth="yes"/>
      <point x="251.666" y="665.001"/>
      <point x="188.999" y="607.667"/>
      <point x="188.999" y="561.334" type="qcurve" smooth="yes"/>
      <point x="188.999" y="539.333"/>
      <point x="202.666" y="499"/>
      <point x="239.666" y="449.667"/>
      <point x="272.999" y="413.667" type="qcurve" smooth="yes"/>
      <point x="644.333" y="22.6661" type="line"/>
      <point x="614" y="-10.3333" type="line"/>
      <point x="232" y="392" type="line" smooth="yes"/>
      <point x="197" y="429.334"/>
      <point x="157.333" y="484.667"/>
      <point x="142" y="534"/>
      <point x="142" y="560.667" type="qcurve" smooth="yes"/>
      <point x="142" y="604"/>
      <point x="182.667" y="668.333"/>
      <point x="257.667" y="704.333"/>
      <point x="308" y="704.333" type="qcurve" smooth="yes"/>
      <point x="355" y="704.333"/>
      <point x="423.666" y="672.333"/>
      <point x="461.999" y="612.667"/>
      <point x="461.999" y="571" type="qcurve" smooth="yes"/>
      <point x="461.999" y="534"/>
      <point x="426.666" y="471.334"/>
      <point x="344.666" y="408"/>
      <point x="274.333" y="368" type="qcurve" smooth="yes"/>
      <point x="207.666" y="329.667"/>
      <point x="131.666" y="267.667"/>
      <point x="100.999" y="209"/>
      <point x="100.999" y="174.333" type="qcurve" smooth="yes"/>
      <point x="100.999" y="133.333"/>
      <point x="146.666" y="70.9995"/>
      <point x="228.333" y="36.9993"/>
      <point x="282" y="36.9993" type="qcurve" smooth="yes"/>
      <point x="354" y="36.9993"/>
      <point x="466" y="95.9994"/>
      <point x="541.667" y="215.666"/>
      <point x="559" y="306.666" type="qcurve"/>
      <point x="599.999" y="294.333" type="line"/>
      <point x="580.666" y="194.666"/>
      <point x="492.666" y="61.6666"/>
      <point x="362.666" y="-4.99994"/>
    </contour>
  </outline>
</glyph>
<glyph name="parenleft" format="2">
  <advance width="321"/>
  <unicode hex="0028"/>
  <outline>
    <contour>
      <point x="226" y="-194" type="line"/>
      <point x="171.334" y="-103"/>
      <point x="112" y="135.333"/>
      <point x="112" y="274" type="qcurve" smooth="yes"/>
      <point x="112" y="412.667"/>
      <point x="171.334" y="653.667"/>
      <point x="226" y="742" type="qcurve"/>
      <point x="273.666" y="742" type="line"/>
      <point x="215.333" y="642"/>
      <point x="161.333" y="410"/>
      <point x="161.333" y="274" type="qcurve" smooth="yes"/>
      <point x="161.333" y="138"/>
      <point x="215.333" y="-94.0001"/>
      <point x="273.666" y="-194" type="qcurve"/>
    </contour>
  </outline>
</glyph>
<glyph name="parenright" format="2">
  <advance width="322"/>
  <unicode hex="0029"/>
  <outline>
    <contour>
      <point x="95.3328" y="-194" type="qcurve"/>
      <point x="47.667" y="-194" type="line"/>
      <point x="106.334" y="-94.0001"/>
      <point x="160.334" y="138"/>
      <point x="160.334" y="274" type="qcurve" smooth="yes"/>
      <point x="160.334" y="410"/>
      <point x="106.334" y="642"/>
      <point x="47.667" y="742" type="qcurve"/>
      <point x="95.3328" y="742" type="line"/>
      <point x="150.333" y="653.667"/>
      <point x="209.666" y="412.667"/>
      <point x="209.666" y="274" type="qcurve" smooth="yes"/>
      <point x="209.666" y="135.333"/>
      <point x="150.333" y="-103"/>
    </contour>
  </outline>
</glyph>
<glyph name="asterisk" format="2">
  <advance width="375"/>
  <unicode hex="002A"/>
  <outline>
    <contour>
      <point x="350.666" y="638.334" type="line"/>
      <point x="210.999" y="558.667" type="line"/>
      <point x="210.999" y="572.333" type="line"/>
      <point x="350.666" y="492.667" type="line"/>
      <point x="333" y="461.334" type="line"/>
      <point x="195" y="541.334" type="line"/>
      <point x="204.333" y="546.334" type="line"/>
      <point x="204.666" y="389" type="line"/>
      <point x="170" y="389" type="line"/>
      <point x="170.333" y="546.334" type="line"/>
      <point x="180.333" y="541.334" type="line"/>
      <point x="41.6665" y="461.334" type="line"/>
      <point x="24.0001" y="492.667" type="line"/>
      <point x="164.667" y="572.333" type="line"/>
      <point x="164.667" y="558.667" type="line"/>
      <point x="24.0001" y="638.334" type="line"/>
      <point x="41.6665" y="670" type="line"/>
      <point x="179.667" y="589.666" type="line"/>
      <point x="170.333" y="584.667" type="line"/>
      <point x="170" y="742" type="line"/>
      <point x="204.666" y="742" type="line"/>
      <point x="204.333" y="584.667" type="line"/>
      <point x="195" y="589.666" type="line"/>
      <point x="333" y="670" type="line"/>
    </contour>
  </outline>
</glyph>
<glyph name="plus" format="2">
  <advance width="569"/>
  <unicode hex="002B"/>
  <outline>
    <contour>
      <point x="261.667" y="142.667" type="line"/>
      <point x="261.667" y="557.333" type="line"/>
      <point x="307" y="557.333" type="line"/>
      <point x="307" y="142.667" type="line"/>
    </contour>
    <contour>
      <point x="72.0001" y="328.334" type="line"/>
      <point x="72.0001" y="371" type="line"/>
      <point x="496.666" y="371" type="line"/>
      <point x="496.666" y="328.334" type="line"/>
    </contour>
  </outline>
</glyph>
<glyph name="hyphen" format="2">
  <advance width="381"/>
  <unicode hex="002D"/>
  <outline>
    <contour>
      <point x="62.0001" y="246.334" type="line"/>
      <point x="62.0001" y="290.666" type="line"/>
      <point x="319.333" y="290.666" type="line"/>
      <point x="319.333" y="246.334" type="line"/>
    </contour>
  </outline>
</glyph>
<glyph name="period" format="2">
  <advance width="200"/>
  <unicode hex="002E"/>
  <outline>
    <contour>
      <point x="99.9997" y="-3.99997" type="qcurve" smooth="yes"/>
      <point x="82.9999" y="-3.99997"/>
      <point x="57.6669" y="20.9998"/>
      <point x="57.6669" y="38.6662" type="qcurve" smooth="yes"/>
      <point x="57.6669" y="57.3327"/>
      <point x="82.9999" y="81.3324"/>
      <point x="99.9997" y="81.3324" type="qcurve" smooth="yes"/>
      <point x="117.333" y="81.3324"/>
      <point x="141.999" y="57.3327"/>
      <point x="141.999" y="38.6662" type="qcurve" smooth="yes"/>
      <point x="141.999" y="20.9998"/>
      <point x="117.333" y="-3.99997"/>
    </contour>
  </outline>
</glyph>
<glyph name="slash" format="2">
  <advance width="320"/>
  <unicode hex="002F"/>
  <outline>
    <contour>
      <point x="-22.9999" y="-100" type="line"/>
      <point x="307" y="842" type="line"/>
      <point x="353.333" y="842" type="line"/>
      <point x="23.3327" y="-100" type="line"/>
    </contour>
  </outline>
</glyph>
<glyph name="zero" format="2">
  <advance width="658"/>
  <unicode hex="0030"/>
  <outline>
    <contour>
      <point x="329" y="-4.99994" type="qcurve" smooth="yes"/>
      <point x="249" y="-4.99994"/>
      <point x="124.667" y="81.0001"/>
      <point x="54.6668" y="240.333"/>
      <point x="54.6668" y="350" type="qcurve" smooth="yes"/>
      <point x="54.6668" y="459.667"/>
      <point x="124.667" y="619"/>
      <point x="249" y="705"/>
      <point x="329" y="705" type="qcurve" smooth="yes"/>
      <point x="409.667" y="705"/>
      <point x="533.333" y="619"/>
      <point x="603.333" y="459.667"/>
      <point x="603.333" y="350" type="qcurve" smooth="yes"/>
      <point x="603.333" y="240.333"/>
      <point x="533.333" y="81.0001"/>
      <point x="409.667" y="-4.99994"/>
    </contour>
    <contour>
      <point x="329" y="41.6659" type="qcurve" smooth="yes"/>
      <point x="395.667" y="41.6659"/>
      <point x="495.667" y="115"/>
      <point x="551.667" y="253"/>
      <point x="551.667" y="350" type="qcurve" smooth="yes"/>
      <point x="551.667" y="447.667"/>
      <point x="495.667" y="585"/>
      <point x="395.667" y="658.334"/>
      <point x="329" y="658.334" type="qcurve" smooth="yes"/>
      <point x="263.333" y="658.334"/>
      <point x="162.333" y="585"/>
      <point x="106.333" y="447.667"/>
      <point x="106.333" y="350" type="qcurve" smooth="yes"/>
      <point x="106.333" y="253"/>
      <point x="162.333" y="115"/>
      <point x="263.333" y="41.6659"/>
    </contour>
  </outline>
</glyph>
<glyph name="one" format="2">
  <advance width="353"/>
  <unicode hex="0031"/>
  <outline>
    <contour>
      <point x="180.334" y="0" type="line"/>
      <point x="180.334" y="677.667" type="line"/>
      <point x="203" y="654.334" type="line"/>
      <point x="9.33335" y="654.334" type="line"/>
      <point x="9.33335" y="700" type="line"/>
      <point x="230.999" y="700" type="line"/>
      <point x="230.999" y="0" type="line"/>
    </contour>
  </outline>
</glyph>
<glyph name="two" format="2">
  <advance width="563"/>
  <unicode hex="0032"/>
  <outline>
    <contour>
      <point x="40.6667" y="0" type="line"/>
      <point x="40.6667" y="35.9994" type="line"/>
      <point x="336.667" y="330.333" type="line" smooth="yes"/>
      <point x="378.667" y="371.667"/>
      <point x="421.334" y="434.667"/>
      <point x="436" y="489"/>
      <point x="436" y="515" type="qcurve" smooth="yes"/>
      <point x="436" y="581.334"/>
      <point x="345.667" y="658.334"/>
      <point x="259.333" y="658.334" type="qcurve" smooth="yes"/>
      <point x="193.333" y="658.334"/>
      <point x="93.6663" y="618.334"/>
      <point x="57.6662" y="577.001" type="qcurve"/>
      <point x="22.3335" y="608.667" type="line"/>
      <point x="62.0001" y="655.333"/>
      <point x="184.667" y="705"/>
      <point x="262.667" y="705" type="qcurve" smooth="yes"/>
      <point x="331.666" y="705"/>
      <point x="433" y="660.333"/>
      <point x="487.666" y="577.333"/>
      <point x="487.666" y="519.667" type="qcurve" smooth="yes"/>
      <point x="487.666" y="486.333"/>
      <point x="469" y="421.333"/>
      <point x="420.333" y="348.667"/>
      <point x="373.666" y="302.667" type="qcurve" smooth="yes"/>
      <point x="95.6658" y="25.6662" type="line"/>
      <point x="78.9993" y="45.6659" type="line"/>
      <point x="522.333" y="45.6659" type="line"/>
      <point x="522.333" y="0" type="line"/>
    </contour>
  </outline>
</glyph>
<glyph name="three" format="2">
  <advance width="558"/>
  <unicode hex="0033"/>
  <outline>
    <contour>
      <point x="260.333" y="-4.99994" type="qcurve" smooth="yes"/>
      <point x="183" y="-4.99994"/>
      <point x="50.3334" y="47.0002"/>
      <point x="13.3335" y="88.6669" type="qcurve"/>
      <point x="39.3331" y="127.666" type="line"/>
      <point x="70.9997" y="90.9994"/>
      <point x="188.333" y="41.6659"/>
      <point x="260" y="41.6659" type="qcurve" smooth="yes"/>
      <point x="354" y="41.6659"/>
      <point x="453" y="126.333"/>
      <point x="453" y="197" type="qcurve" smooth="yes"/>
      <point x="453" y="267.333"/>
      <point x="354.334" y="351.667"/>
      <point x="249.333" y="351.667" type="qcurve" smooth="yes"/>
      <point x="205.333" y="351.667" type="line"/>
      <point x="205.333" y="388.667" type="line"/>
      <point x="427.667" y="674" type="line"/>
      <point x="434.667" y="654.334" type="line"/>
      <point x="39.3334" y="654.334" type="line"/>
      <point x="39.3334" y="700" type="line"/>
      <point x="478" y="700" type="line"/>
      <point x="478" y="664.001" type="line"/>
      <point x="255.666" y="378.667" type="line"/>
      <point x="234" y="395.333" type="line"/>
      <point x="256" y="395.333" type="line" smooth="yes"/>
      <point x="381.333" y="395.333"/>
      <point x="504.666" y="285"/>
      <point x="504.666" y="197.333" type="qcurve" smooth="yes"/>
      <point x="504.666" y="139"/>
      <point x="449.666" y="47.3333"/>
      <point x="341" y="-4.99994"/>
    </contour>
  </outline>
</glyph>
<glyph name="four" format="2">
  <advance width="654"/>
  <unicode hex="0034"/>
  <outline>
    <contour>
      <point x="42.6668" y="193.667" type="line"/>
      <point x="42.6668" y="230.666" type="line"/>
      <point x="422.667" y="700" type="line"/>
      <point x="479.666" y="700" type="line"/>
      <point x="101.332" y="230.666" type="line"/>
      <point x="72.9995" y="239.333" type="line"/>
      <point x="638.666" y="239.333" type="line"/>
      <point x="638.666" y="193.667" type="line"/>
    </contour>
    <contour>
      <point x="441.667" y="0" type="line"/>
      <point x="441.667" y="193.667" type="line"/>
      <point x="442.667" y="239.333" type="line"/>
      <point x="442.667" y="410" type="line"/>
      <point x="491.999" y="410" type="line"/>
      <point x="491.999" y="0" type="line"/>
    </contour>
  </outline>
</glyph>
<glyph name="five" format="2">
  <advance width="558"/>
  <unicode hex="0035"/>
  <outline>
    <contour>
      <point x="271.667" y="-4.99994" type="qcurve" smooth="yes"/>
      <point x="195.667" y="-4.99994"/>
      <point x="63" y="47.0002"/>
      <point x="26.0002" y="88.6669" type="qcurve"/>
      <point x="51.9998" y="127.666" type="line"/>
      <point x="83.6664" y="90.9994"/>
      <point x="200.333" y="41.6659"/>
      <point x="271.333" y="41.6659" type="qcurve" smooth="yes"/>
      <point x="368" y="41.6659"/>
      <point x="465.667" y="130.333"/>
      <point x="465.667" y="200" type="qcurve" smooth="yes"/>
      <point x="465.667" y="250"/>
      <point x="419.667" y="322.334"/>
      <point x="310.333" y="360.667"/>
      <point x="215.333" y="360.667" type="qcurve" smooth="yes"/>
      <point x="73.0001" y="360.667" type="line"/>
      <point x="109.667" y="700" type="line"/>
      <point x="480.666" y="700" type="line"/>
      <point x="480.666" y="654.334" type="line"/>
      <point x="131" y="654.334" type="line"/>
      <point x="155.999" y="678.334" type="line"/>
      <point x="123.333" y="381.333" type="line"/>
      <point x="98.9997" y="406.666" type="line"/>
      <point x="226.333" y="406.666" type="line" smooth="yes"/>
      <point x="333" y="406.666"/>
      <point x="460.333" y="355.666"/>
      <point x="517.333" y="263.667"/>
      <point x="517.333" y="201.667" type="qcurve" smooth="yes"/>
      <point x="517.333" y="144"/>
      <point x="463" y="49.6666"/>
      <point x="354.333" y="-4.99994"/>
    </contour>
  </outline>
</glyph>
<glyph name="six" format="2">
  <advance width="602"/>
  <unicode hex="0036"/>
  <outline>
    <contour>
      <point x="336" y="-4.99994" type="qcurve" smooth="yes"/>
      <point x="244" y="-4.99994"/>
      <point x="118.667" y="79.3334"/>
      <point x="54.6668" y="237"/>
      <point x="54.6668" y="346.333" type="qcurve" smooth="yes"/>
      <point x="54.6668" y="465"/>
      <point x="133.333" y="624"/>
      <point x="273.333" y="705"/>
      <point x="365.666" y="705" type="qcurve" smooth="yes"/>
      <point x="410.666" y="705"/>
      <point x="492.666" y="688.667"/>
      <point x="524.666" y="668.667" type="qcurve"/>
      <point x="503.666" y="627.667" type="line"/>
      <point x="477" y="645.334"/>
      <point x="406.333" y="659.667"/>
      <point x="366.333" y="659.667" type="qcurve" smooth="yes"/>
      <point x="248" y="659.667"/>
      <point x="106.333" y="506.667"/>
      <point x="106.333" y="354.333" type="qcurve" smooth="yes"/>
      <point x="106.333" y="331"/>
      <point x="111.999" y="260.333"/>
      <point x="122.333" y="226" type="qcurve"/>
      <point x="104.333" y="230.666" type="line"/>
      <point x="111.333" y="288.666"/>
      <point x="174.999" y="371"/>
      <point x="275.333" y="413.666"/>
      <point x="335" y="413.666" type="qcurve" smooth="yes"/>
      <point x="405" y="413.666"/>
      <point x="509.666" y="362.666"/>
      <point x="568.666" y="269.333"/>
      <point x="568.666" y="206.333" type="qcurve" smooth="yes"/>
      <point x="568.666" y="142.333"/>
      <point x="508.333" y="47.3334"/>
      <point x="403" y="-4.99994"/>
    </contour>
    <contour>
      <point x="334.333" y="38.666" type="qcurve" smooth="yes"/>
      <point x="388.667" y="38.666"/>
      <point x="471.334" y="79.6662"/>
      <point x="518.334" y="154.666"/>
      <point x="518.334" y="204.667" type="qcurve" smooth="yes"/>
      <point x="518.334" y="280"/>
      <point x="416.667" y="370"/>
      <point x="328.333" y="370" type="qcurve" smooth="yes"/>
      <point x="270.666" y="370"/>
      <point x="183.333" y="325.667"/>
      <point x="134.333" y="250"/>
      <point x="134.333" y="203" type="qcurve" smooth="yes"/>
      <point x="134.333" y="162.333"/>
      <point x="179.666" y="86.6662"/>
      <point x="269" y="38.666"/>
    </contour>
  </outline>
</glyph>
<glyph name="seven" format="2">
  <advance width="581"/>
  <unicode hex="0037"/>
  <outline>
    <contour>
      <point x="179.334" y="0" type="line"/>
      <point x="487" y="676.334" type="line"/>
      <point x="504.667" y="654.334" type="line"/>
      <point x="58.333" y="654.334" type="line"/>
      <point x="83.6659" y="678.334" type="line"/>
      <point x="83.6659" y="519.667" type="line"/>
      <point x="33.6667" y="519.667" type="line"/>
      <point x="33.6667" y="700" type="line"/>
      <point x="536.333" y="700" type="line"/>
      <point x="536.333" y="664.001" type="line"/>
      <point x="234.999" y="0" type="line"/>
    </contour>
  </outline>
</glyph>
<glyph name="eight" format="2">
  <advance width="632"/>
  <unicode hex="0038"/>
  <outline>
    <contour>
      <point x="315" y="-4.99994" type="qcurve" smooth="yes"/>
      <point x="232.333" y="-4.99994"/>
      <point x="114.333" y="42.6667"/>
      <point x="50.6668" y="131.333"/>
      <point x="50.6668" y="192" type="qcurve" smooth="yes"/>
      <point x="50.6668" y="251"/>
      <point x="113.333" y="335.333"/>
      <point x="231.333" y="380"/>
      <point x="315" y="380" type="qcurve" smooth="yes"/>
      <point x="398.666" y="380"/>
      <point x="517.666" y="335.333"/>
      <point x="581.333" y="250.667"/>
      <point x="581.333" y="192" type="qcurve" smooth="yes"/>
      <point x="581.333" y="131.333"/>
      <point x="517.333" y="42.6667"/>
      <point x="397.667" y="-4.99994"/>
    </contour>
    <contour>
      <point x="315" y="38.666" type="qcurve" smooth="yes"/>
      <point x="416.334" y="38.666"/>
      <point x="529.667" y="121.333"/>
      <point x="529.667" y="192.333" type="qcurve" smooth="yes"/>
      <point x="529.667" y="262"/>
      <point x="416.334" y="344.334"/>
      <point x="315" y="344.334" type="qcurve" smooth="yes"/>
      <point x="214.333" y="344.334"/>
      <point x="102.333" y="262"/>
      <point x="102.333" y="192.333" type="qcurve" smooth="yes"/>
      <point x="102.333" y="121.333"/>
      <point x="214.333" y="38.666"/>
    </contour>
    <contour>
      <point x="315" y="350.667" type="qcurve" smooth="yes"/>
      <point x="238.667" y="350.667"/>
      <point x="132" y="392.334"/>
      <point x="75.6668" y="470.333"/>
      <point x="75.6668" y="524" type="qcurve" smooth="yes"/>
      <point x="75.6668" y="580"/>
      <point x="135" y="661.333"/>
      <point x="243" y="705"/>
      <point x="315" y="705" type="qcurve" smooth="yes"/>
      <point x="388" y="705"/>
      <point x="496" y="661.333"/>
      <point x="556.333" y="580"/>
      <point x="556.333" y="524" type="qcurve" smooth="yes"/>
      <point x="556.333" y="470.333"/>
      <point x="499.333" y="392.334"/>
      <point x="391.333" y="350.667"/>
    </contour>
    <contour>
      <point x="315" y="385.666" type="qcurve" smooth="yes"/>
      <point x="405" y="385.666"/>
      <point x="505.334" y="459.667"/>
      <point x="505.334" y="522.333" type="qcurve" smooth="yes"/>
      <point x="505.334" y="587"/>
      <point x="402" y="661.334"/>
      <point x="315" y="661.334" type="qcurve" smooth="yes"/>
      <point x="228.666" y="661.334"/>
      <point x="126.666" y="587"/>
      <point x="126.666" y="523" type="qcurve" smooth="yes"/>
      <point x="126.666" y="460.333"/>
      <point x="226" y="385.666"/>
    </contour>
  </outline>
</glyph>
<glyph name="nine" format="2">
  <advance width="602"/>
  <unicode hex="0039"/>
  <outline>
    <contour>
      <point x="266" y="705" type="qcurve" smooth="yes"/>
      <point x="358.333" y="705"/>
      <point x="483.333" y="620.667"/>
      <point x="547.333" y="463.667"/>
      <point x="547.333" y="353.667" type="qcurve" smooth="yes"/>
      <point x="547.333" y="235.667"/>
      <point x="468.666" y="76"/>
      <point x="329" y="-4.99994"/>
      <point x="236.333" y="-4.99994" type="qcurve" smooth="yes"/>
      <point x="191.333" y="-4.99994"/>
      <point x="109.667" y="11.3333"/>
      <point x="77.3336" y="31.3333" type="qcurve"/>
      <point x="98.3333" y="72.3326" type="line"/>
      <point x="125" y="55.3326"/>
      <point x="196.667" y="40.3326"/>
      <point x="235.667" y="40.3326" type="qcurve" smooth="yes"/>
      <point x="354" y="40.3326"/>
      <point x="495.667" y="193.333"/>
      <point x="495.667" y="345.667" type="qcurve" smooth="yes"/>
      <point x="495.667" y="369.667"/>
      <point x="490" y="439.667"/>
      <point x="479.667" y="474" type="qcurve"/>
      <point x="497.667" y="469.334" type="line"/>
      <point x="491" y="411.334"/>
      <point x="427" y="329.667"/>
      <point x="327.667" y="286.334"/>
      <point x="267" y="286.334" type="qcurve" smooth="yes"/>
      <point x="197.333" y="286.334"/>
      <point x="92.3334" y="337.334"/>
      <point x="33.3334" y="430.667"/>
      <point x="33.3334" y="493.667" type="qcurve" smooth="yes"/>
      <point x="33.3334" y="558"/>
      <point x="93.6667" y="652.667"/>
      <point x="199.333" y="705"/>
    </contour>
    <contour>
      <point x="267.666" y="661.334" type="qcurve" smooth="yes"/>
      <point x="213.333" y="661.334"/>
      <point x="130.666" y="620.334"/>
      <point x="83.6659" y="545.667"/>
      <point x="83.6659" y="495.333" type="qcurve" smooth="yes"/>
      <point x="83.6659" y="420"/>
      <point x="186" y="330"/>
      <point x="273.666" y="330" type="qcurve" smooth="yes"/>
      <point x="331.333" y="330"/>
      <point x="419" y="374.333"/>
      <point x="467.667" y="450.333"/>
      <point x="467.667" y="497" type="qcurve" smooth="yes"/>
      <point x="467.667" y="538"/>
      <point x="422.334" y="613.334"/>
      <point x="334" y="661.334"/>
    </contour>
  </outline>
</glyph>
<glyph name="less" format="2">
  <advance width="569"/>
  <unicode hex="003C"/>
  <outline>
    <contour>
      <point x="496.666" y="153" type="line"/>
      <point x="72.0001" y="326.334" type="line"/>
      <point x="72.0001" y="373.666" type="line"/>
      <point x="496.666" y="547" type="line"/>
      <point x="496.666" y="501" type="line"/>
      <point x="92.6665" y="338.667" type="line"/>
      <point x="92.6665" y="361.333" type="line"/>
      <point x="496.666" y="199" type="line"/>
    </contour>
  </outline>
</glyph>
<glyph name="equal" format="2">
  <advance width="569"/>
  <unicode hex="003D"/>
  <outline>
    <contour>
      <point x="72.0001" y="441.667" type="line"/>
      <point x="72.0001" y="484.333" type="line"/>
      <point x="496.666" y="484.333" type="line"/>
      <point x="496.666" y="441.667" type="line"/>
    </contour>
    <contour>
      <point x="72.0001" y="215.667" type="line"/>
      <point x="72.0001" y="258.333" type="line"/>
      <point x="496.666" y="258.333" type="line"/>
      <point x="496.666" y="215.667" type="line"/>
    </contour>
  </outline>
</glyph>
<glyph name="greater" format="2">
  <advance width="569"/>
  <unicode hex="003E"/>
  <outline>
    <contour>
      <point x="72.0001" y="153" type="line"/>
      <point x="72.0001" y="199" type="line"/>
      <point x="476.333" y="361.333" type="line"/>
      <point x="476.333" y="338.667" type="line"/>
      <point x="72.0001" y="501" type="line"/>
      <point x="72.0001" y="547" type="line"/>
      <point x="496.666" y="373.666" type="line"/>
      <point x="496.666" y="326.334" type="line"/>
    </contour>
  </outline>
</glyph>
<glyph name="question" format="2">
  <advance width="562"/>
  <unicode hex="003F"/>
  <outline>
    <contour>
      <point x="241.334" y="201" type="line"/>
      <point x="241.334" y="244.333"/>
      <point x="268.334" y="306"/>
      <point x="311.334" y="353"/>
      <point x="359" y="394"/>
      <point x="402" y="437"/>
      <point x="429" y="490.333"/>
      <point x="429" y="527" type="qcurve" smooth="yes"/>
      <point x="429" y="585.334"/>
      <point x="338.334" y="660.001"/>
      <point x="254.333" y="660.001" type="qcurve" smooth="yes"/>
      <point x="187" y="660.001"/>
      <point x="87.9995" y="618.667"/>
      <point x="52.9995" y="577.334" type="qcurve"/>
      <point x="15.6668" y="606.334" type="line"/>
      <point x="55.6668" y="654"/>
      <point x="176.667" y="705"/>
      <point x="257" y="705" type="qcurve" smooth="yes"/>
      <point x="325.333" y="705"/>
      <point x="426" y="662.667"/>
      <point x="480.666" y="586"/>
      <point x="480.666" y="533.667" type="qcurve" smooth="yes"/>
      <point x="480.666" y="490"/>
      <point x="453.666" y="428"/>
      <point x="410.666" y="380"/>
      <point x="362.999" y="339"/>
      <point x="319.999" y="294.667"/>
      <point x="292.999" y="239.333"/>
      <point x="292.999" y="201" type="qcurve"/>
    </contour>
    <contour>
      <point x="267.333" y="-3.99997" type="qcurve" smooth="yes"/>
      <point x="250.333" y="-3.99997"/>
      <point x="226" y="20.6664"/>
      <point x="226" y="36.9996" type="qcurve" smooth="yes"/>
      <point x="226" y="54.3328"/>
      <point x="250.333" y="77.9992"/>
      <point x="267.333" y="77.9992" type="qcurve" smooth="yes"/>
      <point x="285.333" y="77.9992"/>
      <point x="308.666" y="54.3328"/>
      <point x="308.666" y="36.9996" type="qcurve" smooth="yes"/>
      <point x="308.666" y="20.6664"/>
      <point x="285.333" y="-3.99997"/>
    </contour>
  </outline>
</glyph>
<glyph name="at" format="2">
  <advance width="1033"/>
  <unicode hex="0040"/>
  <outline>
    <contour>
      <point x="514.333" y="-199" type="qcurve" smooth="yes"/>
      <point x="412.667" y="-199"/>
      <point x="244.333" y="-132.333"/>
      <point x="121.333" y="-11.3333"/>
      <point x="54.6668" y="154.333"/>
      <point x="54.6668" y="254" type="qcurve" smooth="yes"/>
      <point x="54.6668" y="354.333"/>
      <point x="122" y="519.667"/>
      <point x="246" y="639.667"/>
      <point x="416.333" y="704.667"/>
      <point x="518.333" y="704.667" type="qcurve" smooth="yes"/>
      <point x="618.667" y="704.667"/>
      <point x="787" y="641.333"/>
      <point x="910.667" y="523.667"/>
      <point x="978" y="361.333"/>
      <point x="978" y="262.667" type="qcurve" smooth="yes"/>
      <point x="978" y="178.333"/>
      <point x="939.667" y="59"/>
      <point x="870.333" y="-3.99997"/>
      <point x="823.667" y="-3.99997" type="qcurve" smooth="yes"/>
      <point x="776.667" y="-3.99997"/>
      <point x="719.334" y="52.3332"/>
      <point x="719.334" y="103.333" type="qcurve" smooth="yes"/>
      <point x="719.334" y="191.333" type="line"/>
      <point x="727.667" y="257.667" type="line"/>
      <point x="718.001" y="345.333" type="line"/>
      <point x="718.001" y="511" type="line"/>
      <point x="764.333" y="511" type="line"/>
      <point x="764.333" y="116" type="line" smooth="yes"/>
      <point x="764.333" y="72.9995"/>
      <point x="802.333" y="37.3327"/>
      <point x="830.333" y="37.3327" type="qcurve" smooth="yes"/>
      <point x="862.667" y="37.3327"/>
      <point x="912" y="89.9995"/>
      <point x="939.334" y="190.333"/>
      <point x="939.334" y="262" type="qcurve" smooth="yes"/>
      <point x="939.334" y="353.333"/>
      <point x="878" y="502"/>
      <point x="765" y="609.667"/>
      <point x="611.333" y="667"/>
      <point x="518.333" y="667" type="qcurve" smooth="yes"/>
      <point x="425" y="667"/>
      <point x="269.333" y="607"/>
      <point x="157" y="497.334"/>
      <point x="95.6662" y="345.667"/>
      <point x="95.6662" y="254" type="qcurve" smooth="yes"/>
      <point x="95.6662" y="162.667"/>
      <point x="156" y="10.6664"/>
      <point x="267.333" y="-99.6671"/>
      <point x="421" y="-160.334"/>
      <point x="514.333" y="-160.334" type="qcurve" smooth="yes"/>
      <point x="559" y="-160.334"/>
      <point x="662.333" y="-138.667"/>
      <point x="704.667" y="-116.334" type="qcurve"/>
      <point x="718.333" y="-152.667" type="line"/>
      <point x="673.666" y="-176.333"/>
      <point x="562.333" y="-199"/>
    </contour>
    <contour>
      <point x="506" y="-3.99997" type="qcurve" smooth="yes"/>
      <point x="435" y="-3.99997"/>
      <point x="322.333" y="62.6667"/>
      <point x="257.333" y="180.667"/>
      <point x="257.333" y="256" type="qcurve" smooth="yes"/>
      <point x="257.333" y="332"/>
      <point x="322.333" y="448.333"/>
      <point x="435" y="514.667"/>
      <point x="506" y="514.667" type="qcurve" smooth="yes"/>
      <point x="576" y="514.667"/>
      <point x="685" y="450.667"/>
      <point x="747.667" y="335"/>
      <point x="747.667" y="256" type="qcurve" smooth="yes"/>
      <point x="747.667" y="177.667"/>
      <point x="685.334" y="60.3334"/>
      <point x="576.667" y="-3.99997"/>
    </contour>
    <contour>
      <point x="511.333" y="37.9994" type="qcurve" smooth="yes"/>
      <point x="570.667" y="37.9994"/>
      <point x="664.667" y="92.6662"/>
      <point x="718.667" y="191.333"/>
      <point x="718.667" y="256" type="qcurve" smooth="yes"/>
      <point x="718.667" y="321.667"/>
      <point x="664.667" y="419.001"/>
      <point x="570.667" y="472.667"/>
      <point x="511.333" y="472.667" type="qcurve" smooth="yes"/>
      <point x="451.666" y="472.667"/>
      <point x="358.333" y="418.667"/>
      <point x="304.333" y="321"/>
      <point x="304.333" y="256" type="qcurve" smooth="yes"/>
      <point x="304.333" y="191.667"/>
      <point x="358.333" y="93.3329"/>
      <point x="451.666" y="37.9994"/>
    </contour>
  </outline>
</glyph>
<glyph name="D" format="2">
  <advance width="826"/>
  <unicode hex="0044"/>
  <anchor x="345" y="700" name="t.uni0308"/>
  <anchor x="209" y="355" name="t.uni0307_1"/>
  <anchor x="346" y="0" name="b.uni0324_3"/>
  <outline>
    <contour>
      <point x="122" y="0" type="line"/>
      <point x="122" y="700" type="line"/>
      <point x="398.667" y="700" type="line" smooth="yes"/>
      <point x="510.333" y="700"/>
      <point x="678" y="610"/>
      <point x="771.333" y="452.333"/>
      <point x="771.333" y="350" type="qcurve" smooth="yes"/>
      <point x="771.333" y="247.667"/>
      <point x="678" y="90"/>
      <point x="510.333" y="0"/>
      <point x="398.667" y="0" type="qcurve" smooth="yes"/>
    </contour>
    <contour>
      <point x="173.333" y="45.6659" type="line"/>
      <point x="395.333" y="45.6659" type="line" smooth="yes"/>
      <point x="494.334" y="45.6659"/>
      <point x="640.001" y="123.999"/>
      <point x="719.667" y="261"/>
      <point x="719.667" y="350" type="qcurve" smooth="yes"/>
      <point x="719.667" y="439.334"/>
      <point x="640.001" y="576.001"/>
      <point x="494.334" y="654.334"/>
      <point x="395.333" y="654.334" type="qcurve" smooth="yes"/>
      <point x="173.333" y="654.334" type="line"/>
    </contour>
  </outline>
</glyph>
<glyph name="E" format="2">
  <advance width="669"/>
  <unicode hex="0045"/>
  <anchor x="335" y="700" name="t.uni0308"/>
  <anchor x="327" y="0" name="b.uni0324_3"/>
  <anchor x="656" y="0" name="m.uni0328_4"/>
  <outline>
    <contour>
      <point x="166.999" y="378" type="line"/>
      <point x="545.666" y="378" type="line"/>
      <point x="545.666" y="333" type="line"/>
      <point x="166.999" y="333" type="line"/>
    </contour>
    <contour>
      <point x="173.333" y="45.6659" type="line"/>
      <point x="604.667" y="45.6659" type="line"/>
      <point x="604.667" y="0" type="line"/>
      <point x="122" y="0" type="line"/>
      <point x="122" y="700" type="line"/>
      <point x="590" y="700" type="line"/>
      <point x="590" y="654.334" type="line"/>
      <point x="173.333" y="654.334" type="line"/>
    </contour>
  </outline>
</glyph>
<glyph name="F" format="2">
  <advance width="631"/>
  <unicode hex="0046"/>
  <outline>
    <contour>
      <point x="166.666" y="354.666" type="line"/>
      <point x="545.666" y="354.666" type="line"/>
      <point x="545.666" y="309" type="line"/>
      <point x="166.666" y="309" type="line"/>
    </contour>
    <contour>
      <point x="173.333" y="0" type="line"/>
      <point x="122" y="0" type="line"/>
      <point x="122" y="700" type="line"/>
      <point x="590" y="700" type="line"/>
      <point x="590" y="654.334" type="line"/>
      <point x="173.333" y="654.334" type="line"/>
    </contour>
  </outline>
</glyph>
<glyph name="H" format="2">
  <advance width="814"/>
  <unicode hex="0048"/>
  <anchor x="399" y="700" name="t.uni0308"/>
  <anchor x="399" y="594" name="t.uni0307_1"/>
  <anchor x="399" y="0" name="b.uni0324_3"/>
  <outline>
    <contour>
      <point x="641.001" y="700" type="line"/>
      <point x="692.333" y="700" type="line"/>
      <point x="692.333" y="0" type="line"/>
      <point x="641.001" y="0" type="line"/>
    </contour>
    <contour>
      <point x="173.333" y="0" type="line"/>
      <point x="122" y="0" type="line"/>
      <point x="122" y="700" type="line"/>
      <point x="173.333" y="700" type="line"/>
    </contour>
    <contour>
      <point x="647.334" y="332.667" type="line"/>
      <point x="166.666" y="332.667" type="line"/>
      <point x="166.666" y="378.333" type="line"/>
      <point x="647.334" y="378.333" type="line"/>
    </contour>
  </outline>
</glyph>
<glyph name="J" format="2">
  <advance width="491"/>
  <unicode hex="004A"/>
  <anchor x="323" y="700" name="t.uni0308"/>
  <outline>
    <contour>
      <point x="184.666" y="-4.99994" type="qcurve" smooth="yes"/>
      <point x="128" y="-4.99994"/>
      <point x="29.3334" y="47.6667"/>
      <point x="-0.999857" y="94.6667" type="qcurve"/>
      <point x="30.333" y="128.999" type="line"/>
      <point x="59.333" y="86.3327"/>
      <point x="138.333" y="40.666"/>
      <point x="185.333" y="40.666" type="qcurve" smooth="yes"/>
      <point x="324" y="40.666"/>
      <point x="324" y="205.666" type="qcurve" smooth="yes"/>
      <point x="324" y="654.334" type="line"/>
      <point x="65.6667" y="654.334" type="line"/>
      <point x="65.6667" y="700" type="line"/>
      <point x="375.333" y="700" type="line"/>
      <point x="375.333" y="206.333" type="line" smooth="yes"/>
      <point x="375.333" y="100.667"/>
      <point x="279.333" y="-4.99994"/>
    </contour>
  </outline>
</glyph>
<glyph name="K" format="2">
  <advance width="703"/>
  <unicode hex="004B"/>
  <anchor x="390" y="700" name="t.uni0308"/>
  <anchor x="390" y="0" name="b.uni0324_3"/>
  <outline>
    <contour>
      <point x="166.333" y="177" type="line"/>
      <point x="164.333" y="241.332" type="line"/>
      <point x="610.334" y="700" type="line"/>
      <point x="671.666" y="700" type="line"/>
      <point x="360.333" y="376.667" type="line"/>
      <point x="331" y="345.667" type="line"/>
    </contour>
    <contour>
      <point x="122" y="0" type="line"/>
      <point x="122" y="700" type="line"/>
      <point x="173.333" y="700" type="line"/>
      <point x="173.333" y="0" type="line"/>
    </contour>
    <contour>
      <point x="630.667" y="0" type="line"/>
      <point x="316" y="360" type="line"/>
      <point x="351.333" y="397" type="line"/>
      <point x="693.333" y="0" type="line"/>
    </contour>
  </outline>
</glyph>
<glyph name="L" format="2">
  <advance width="585"/>
  <unicode hex="004C"/>
  <anchor x="189" y="700" name="t.uni0308"/>
  <anchor x="506" y="480" name="t.periodcentered.loclCAT"/>
  <anchor x="189" y="419" name="t.uni0307_1"/>
  <anchor x="413" y="700" name="t.uni031B_2"/>
  <anchor x="338" y="0" name="b.uni0324_3"/>
  <outline>
    <contour>
      <point x="122" y="0" type="line"/>
      <point x="122" y="700" type="line"/>
      <point x="173.333" y="700" type="line"/>
      <point x="173.333" y="45.6659" type="line"/>
      <point x="575.667" y="45.6659" type="line"/>
      <point x="575.667" y="0" type="line"/>
    </contour>
  </outline>
</glyph>
<glyph name="M" format="2">
  <advance width="956"/>
  <unicode hex="004D"/>
  <anchor x="475" y="700" name="t.uni0308"/>
  <anchor x="475" y="0" name="b.uni0324_3"/>
  <outline>
    <contour>
      <point x="122" y="0" type="line"/>
      <point x="122" y="700" type="line"/>
      <point x="164.666" y="700" type="line"/>
      <point x="490" y="138.999" type="line"/>
      <point x="467.334" y="138.999" type="line"/>
      <point x="790.667" y="700" type="line"/>
      <point x="833.333" y="700" type="line"/>
      <point x="833.666" y="0" type="line"/>
      <point x="783.667" y="0" type="line"/>
      <point x="783.334" y="622.668" type="line"/>
      <point x="797" y="622.668" type="line"/>
      <point x="490.333" y="93.3335" type="line"/>
      <point x="465" y="93.3335" type="line"/>
      <point x="156.666" y="622.668" type="line"/>
      <point x="171.999" y="622.668" type="line"/>
      <point x="171.999" y="0" type="line"/>
    </contour>
  </outline>
</glyph>
<glyph name="N" format="2">
  <advance width="814"/>
  <unicode hex="004E"/>
  <anchor x="399" y="700" name="t.uni0308"/>
  <anchor x="399" y="0" name="b.uni0324_3"/>
  <outline>
    <contour>
      <point x="122" y="0" type="line"/>
      <point x="122" y="700" type="line"/>
      <point x="164.666" y="700" type="line"/>
      <point x="664.334" y="63.3322" type="line"/>
      <point x="641.001" y="63.3322" type="line"/>
      <point x="641.001" y="700" type="line"/>
      <point x="692.333" y="700" type="line"/>
      <point x="692.333" y="0" type="line"/>
      <point x="649.667" y="0" type="line"/>
      <point x="150" y="636.668" type="line"/>
      <point x="173.333" y="636.668" type="line"/>
      <point x="173.333" y="0" type="line"/>
    </contour>
  </outline>
</glyph>
<glyph name="Q" format="2">
  <advance width="838"/>
  <unicode hex="0051"/>
  <anchor x="428" y="700" name="t.uni0308"/>
  <outline>
    <contour>
      <point x="419" y="-4.99994" type="qcurve" smooth="yes"/>
      <point x="340.667" y="-4.99994"/>
      <point x="207.667" y="48.3334"/>
      <point x="109.333" y="144.667"/>
      <point x="54.6668" y="273.667"/>
      <point x="54.6668" y="350" type="qcurve" smooth="yes"/>
      <point x="54.6668" y="426.333"/>
      <point x="109.333" y="555.333"/>
      <point x="207.667" y="651.667"/>
      <point x="340.667" y="705"/>
      <point x="419" y="705" type="qcurve" smooth="yes"/>
      <point x="497.333" y="705"/>
      <point x="630" y="652"/>
      <point x="728.333" y="555.667"/>
      <point x="783" y="426.667"/>
      <point x="783" y="350" type="qcurve" smooth="yes"/>
      <point x="783" y="273.333"/>
      <point x="728.333" y="144.333"/>
      <point x="630" y="48.0001"/>
      <point x="497.333" y="-4.99994"/>
    </contour>
    <contour>
      <point x="648.667" y="-132.666" type="qcurve" smooth="yes"/>
      <point x="618.667" y="-132.666"/>
      <point x="562" y="-117"/>
      <point x="503.334" y="-83.6665"/>
      <point x="442" y="-31.3333"/>
      <point x="407.001" y="5.66659" type="qcurve"/>
      <point x="465" y="19.6663" type="line"/>
      <point x="497.333" y="-17.3337"/>
      <point x="559.666" y="-66.667"/>
      <point x="620" y="-90.0004"/>
      <point x="649.333" y="-90.0004" type="qcurve" smooth="yes"/>
      <point x="730.667" y="-90.0004"/>
      <point x="787.333" y="-23.3336" type="qcurve"/>
      <point x="814.333" y="-54.3332" type="line"/>
      <point x="750" y="-132.666"/>
    </contour>
    <contour>
      <point x="419" y="41.6659" type="qcurve" smooth="yes"/>
      <point x="485.667" y="41.6659"/>
      <point x="599.667" y="88.3327"/>
      <point x="684.334" y="172.333"/>
      <point x="731.334" y="284.333"/>
      <point x="731.334" y="350" type="qcurve" smooth="yes"/>
      <point x="731.334" y="416"/>
      <point x="684.334" y="527.667"/>
      <point x="599.667" y="611.667"/>
      <point x="485.667" y="658.334"/>
      <point x="419" y="658.334" type="qcurve" smooth="yes"/>
      <point x="352.333" y="658.334"/>
      <point x="238" y="611.667"/>
      <point x="153.333" y="527.667"/>
      <point x="106.333" y="416"/>
      <point x="106.333" y="350" type="qcurve" smooth="yes"/>
      <point x="106.333" y="284.333"/>
      <point x="153.333" y="172.333"/>
      <point x="238" y="88.3327"/>
      <point x="352.333" y="41.6659"/>
    </contour>
  </outline>
</glyph>
<glyph name="R" format="2">
  <advance width="720"/>
  <unicode hex="0052"/>
  <anchor x="385" y="700" name="t.uni0308"/>
  <anchor x="385" y="0" name="b.uni0324_3"/>
  <outline>
    <contour>
      <point x="122" y="0" type="line"/>
      <point x="122" y="700" type="line"/>
      <point x="373.333" y="700" type="line" smooth="yes"/>
      <point x="461.333" y="700"/>
      <point x="587.333" y="643.667"/>
      <point x="655" y="538.667"/>
      <point x="655" y="464.333" type="qcurve" smooth="yes"/>
      <point x="655" y="391"/>
      <point x="587.333" y="285.667"/>
      <point x="461.333" y="229.334"/>
      <point x="373.333" y="229.334" type="qcurve" smooth="yes"/>
      <point x="150.333" y="229.334" type="line"/>
      <point x="173.333" y="253" type="line"/>
      <point x="173.333" y="0" type="line"/>
    </contour>
    <contour>
      <point x="607.667" y="0" type="line"/>
      <point x="426.334" y="254" type="line"/>
      <point x="484" y="254" type="line"/>
      <point x="665.666" y="0" type="line"/>
    </contour>
    <contour>
      <point x="173.333" y="250.333" type="line"/>
      <point x="150.333" y="274.333" type="line"/>
      <point x="373.333" y="274.333" type="line" smooth="yes"/>
      <point x="485.667" y="274.333"/>
      <point x="603.334" y="374.333"/>
      <point x="603.334" y="464.333" type="qcurve" smooth="yes"/>
      <point x="603.334" y="555.334"/>
      <point x="485.667" y="654.334"/>
      <point x="373.333" y="654.334" type="qcurve" smooth="yes"/>
      <point x="150.333" y="654.334" type="line"/>
      <point x="173.333" y="678.667" type="line"/>
    </contour>
  </outline>
</glyph>
<glyph name="U" format="2">
  <advance width="793"/>
  <unicode hex="0055"/>
  <anchor x="393" y="700" name="t.uni0308"/>
  <anchor x="626" y="700" name="t.uni031B_2"/>
  <anchor x="393" y="0" name="b.uni0324_3"/>
  <anchor x="636" y="0" name="m.uni0328_4"/>
  <outline>
    <contour>
      <point x="396.333" y="-4.99994" type="qcurve" smooth="yes"/>
      <point x="266" y="-4.99994"/>
      <point x="116" y="147"/>
      <point x="116" y="296.667" type="qcurve" smooth="yes"/>
      <point x="116" y="700" type="line"/>
      <point x="167.333" y="700" type="line"/>
      <point x="167.333" y="298.667" type="line" smooth="yes"/>
      <point x="167.333" y="168"/>
      <point x="287.333" y="41.6659"/>
      <point x="396.667" y="41.6659" type="qcurve" smooth="yes"/>
      <point x="506" y="41.6659"/>
      <point x="626.001" y="168"/>
      <point x="626.001" y="298.667" type="qcurve" smooth="yes"/>
      <point x="626.001" y="700" type="line"/>
      <point x="676.666" y="700" type="line"/>
      <point x="676.666" y="296.667" type="line" smooth="yes"/>
      <point x="676.666" y="147"/>
      <point x="526.667" y="-4.99994"/>
    </contour>
  </outline>
</glyph>
<glyph name="V" format="2">
  <advance width="687"/>
  <unicode hex="0056"/>
  <outline>
    <contour>
      <point x="318" y="0" type="line"/>
      <point x="5.66679" y="700" type="line"/>
      <point x="62.3325" y="700" type="line"/>
      <point x="359.666" y="30.9996" type="line"/>
      <point x="329.333" y="30.9996" type="line"/>
      <point x="627.667" y="700" type="line"/>
      <point x="680.999" y="700" type="line"/>
      <point x="368.999" y="0" type="line"/>
    </contour>
  </outline>
</glyph>
<glyph name="W" format="2">
  <advance width="1098"/>
  <unicode hex="0057"/>
  <anchor x="631" y="700" name="t.uni0308"/>
  <anchor x="631" y="0" name="b.uni0324_3"/>
  <outline>
    <contour>
      <point x="277.667" y="0" type="line"/>
      <point x="40.0001" y="700" type="line"/>
      <point x="93.9992" y="700" type="line"/>
      <point x="320.333" y="30.9996" type="line"/>
      <point x="293.333" y="30.9996" type="line"/>
      <point x="526.333" y="700" type="line"/>
      <point x="574.999" y="700" type="line"/>
      <point x="806" y="30.9996" type="line"/>
      <point x="780.333" y="30.9996" type="line"/>
      <point x="1008" y="700" type="line"/>
      <point x="1058.33" y="700" type="line"/>
      <point x="820.666" y="0" type="line"/>
      <point x="767" y="0" type="line"/>
      <point x="543" y="646.668" type="line"/>
      <point x="556.333" y="646.668" type="line"/>
      <point x="331.666" y="0" type="line"/>
    </contour>
  </outline>
</glyph>
<glyph name="X" format="2">
  <advance width="642"/>
  <unicode hex="0058"/>
  <outline>
    <contour>
      <point x="20.3335" y="0" type="line"/>
      <point x="304" y="380.666" type="line"/>
      <point x="304" y="340.667" type="line"/>
      <point x="38.6668" y="700" type="line"/>
      <point x="98.6658" y="700" type="line"/>
      <point x="332.666" y="384" type="line"/>
      <point x="311" y="383.666" type="line"/>
      <point x="544.667" y="700" type="line"/>
      <point x="601.999" y="700" type="line"/>
      <point x="339.333" y="345.334" type="line"/>
      <point x="339.333" y="378.666" type="line"/>
      <point x="621.333" y="0" type="line"/>
      <point x="560.667" y="0" type="line"/>
      <point x="309.333" y="338.334" type="line"/>
      <point x="330.333" y="338.334" type="line"/>
      <point x="79.9991" y="0" type="line"/>
    </contour>
  </outline>
</glyph>
<glyph name="bracketleft" format="2">
  <advance width="306"/>
  <unicode hex="005B"/>
  <outline>
    <contour>
      <point x="122" y="-194" type="line"/>
      <point x="122" y="742" type="line"/>
      <point x="282.999" y="742" type="line"/>
      <point x="282.999" y="699.334" type="line"/>
      <point x="171.999" y="699.334" type="line"/>
      <point x="171.999" y="-151.334" type="line"/>
      <point x="282.999" y="-151.334" type="line"/>
      <point x="282.999" y="-194" type="line"/>
    </contour>
  </outline>
</glyph>
<glyph name="backslash" format="2">
  <advance width="320"/>
  <unicode hex="005C"/>
  <outline>
    <contour>
      <point x="343.333" y="-100" type="line"/>
      <point x="297" y="-100" type="line"/>
      <point x="-32.9999" y="842" type="line"/>
      <point x="13.3327" y="842" type="line"/>
    </contour>
  </outline>
</glyph>
<glyph name="bracketright" format="2">
  <advance width="306"/>
  <unicode hex="005D"/>
  <outline>
    <contour>
      <point x="183.666" y="-194" type="line"/>
      <point x="22.6667" y="-194" type="line"/>
      <point x="22.6667" y="-151.334" type="line"/>
      <point x="133.667" y="-151.334" type="line"/>
      <point x="133.667" y="699.334" type="line"/>
      <point x="22.6667" y="699.334" type="line"/>
      <point x="22.6667" y="742" type="line"/>
      <point x="183.666" y="742" type="line"/>
    </contour>
  </outline>
</glyph>
<glyph name="asciicircum" format="2">
  <advance width="570"/>
  <unicode hex="005E"/>
  <outline>
    <contour>
      <point x="89.6669" y="144" type="line"/>
      <point x="263" y="556" type="line"/>
      <point x="307.666" y="556" type="line"/>
      <point x="480.666" y="144" type="line"/>
      <point x="437" y="144" type="line"/>
      <point x="274.667" y="536.333" type="line"/>
      <point x="295.666" y="536.333" type="line"/>
      <point x="133.333" y="144" type="line"/>
    </contour>
  </outline>
</glyph>
<glyph name="b" format="2">
  <advance width="675"/>
  <unicode hex="0062"/>
  <outline>
    <contour>
      <point x="368.333" y="-3.99997" type="qcurve" smooth="yes"/>
      <point x="298.667" y="-3.99997"/>
      <point x="187.667" y="60.3334"/>
      <point x="123.333" y="180"/>
      <point x="123.333" y="261.333" type="qcurve" smooth="yes"/>
      <point x="123.333" y="343.666"/>
      <point x="188.333" y="461.666"/>
      <point x="299.333" y="526"/>
      <point x="368.333" y="526" type="qcurve" smooth="yes"/>
      <point x="442" y="526"/>
      <point x="558.666" y="458.667"/>
      <point x="626" y="340"/>
      <point x="626" y="261.333" type="qcurve" smooth="yes"/>
      <point x="626" y="183.333"/>
      <point x="558.666" y="63.3334"/>
      <point x="442" y="-3.99997"/>
    </contour>
    <contour>
      <point x="105.667" y="0" type="line"/>
      <point x="105.667" y="742" type="line"/>
      <point x="155.666" y="742" type="line"/>
      <point x="155.666" y="353.333" type="line"/>
      <point x="145.666" y="262.333" type="line"/>
      <point x="153.999" y="171.334" type="line"/>
      <point x="153.999" y="0" type="line"/>
    </contour>
    <contour>
      <point x="365.333" y="40.666" type="qcurve" smooth="yes"/>
      <point x="425.334" y="40.666"/>
      <point x="520.667" y="96.3328"/>
      <point x="575.667" y="196.333"/>
      <point x="575.667" y="261.333" type="qcurve" smooth="yes"/>
      <point x="575.667" y="327.333"/>
      <point x="520.667" y="426.334"/>
      <point x="425.334" y="481.334"/>
      <point x="365.333" y="481.334" type="qcurve" smooth="yes"/>
      <point x="305.333" y="481.334"/>
      <point x="210" y="426.334"/>
      <point x="154.999" y="327.333"/>
      <point x="154.999" y="261.333" type="qcurve" smooth="yes"/>
      <point x="154.999" y="196.333"/>
      <point x="210" y="96.3328"/>
      <point x="305.333" y="40.666"/>
    </contour>
  </outline>
</glyph>
<glyph name="d" format="2">
  <advance width="675"/>
  <unicode hex="0064"/>
  <anchor x="494" y="645" name="t.uni0307_1"/>
  <anchor x="757" y="742" name="t.uni031B_2"/>
  <anchor x="404" y="0" name="b.uni0324_3"/>
  <outline>
    <contour>
      <point x="307" y="-3.99997" type="qcurve" smooth="yes"/>
      <point x="233.667" y="-3.99997"/>
      <point x="116.667" y="63.3334"/>
      <point x="49.3335" y="183.333"/>
      <point x="49.3335" y="261.333" type="qcurve" smooth="yes"/>
      <point x="49.3335" y="340"/>
      <point x="116.667" y="458.667"/>
      <point x="233.667" y="526"/>
      <point x="307" y="526" type="qcurve" smooth="yes"/>
      <point x="376.333" y="526"/>
      <point x="487" y="461.666"/>
      <point x="552" y="343.666"/>
      <point x="552" y="261.333" type="qcurve" smooth="yes"/>
      <point x="552" y="180"/>
      <point x="487.667" y="60.3334"/>
      <point x="377" y="-3.99997"/>
    </contour>
    <contour>
      <point x="310" y="40.666" type="qcurve" smooth="yes"/>
      <point x="370" y="40.666"/>
      <point x="465.334" y="96.3328"/>
      <point x="520.334" y="196.333"/>
      <point x="520.334" y="261.333" type="qcurve" smooth="yes"/>
      <point x="520.334" y="327.333"/>
      <point x="465.334" y="426.334"/>
      <point x="370" y="481.334"/>
      <point x="310" y="481.334" type="qcurve" smooth="yes"/>
      <point x="250" y="481.334"/>
      <point x="155.333" y="426.334"/>
      <point x="99.6659" y="327.333"/>
      <point x="99.6659" y="261.333" type="qcurve" smooth="yes"/>
      <point x="99.6659" y="196.333"/>
      <point x="155.333" y="96.3328"/>
      <point x="250" y="40.666"/>
    </contour>
    <contour>
      <point x="521.334" y="0" type="line"/>
      <point x="521.334" y="171.334" type="line"/>
      <point x="529.667" y="262.333" type="line"/>
      <point x="519.667" y="353.333" type="line"/>
      <point x="519.667" y="742" type="line"/>
      <point x="569.666" y="742" type="line"/>
      <point x="569.666" y="0" type="line"/>
    </contour>
  </outline>
</glyph>
<glyph name="e" format="2">
  <advance width="597"/>
  <unicode hex="0065"/>
  <anchor x="342" y="562" name="t.uni0308"/>
  <anchor x="342" y="0" name="b.uni0324_3"/>
  <anchor x="584" y="0" name="m.uni0328_4"/>
  <outline>
    <contour>
      <point x="318" y="-3.99997" type="qcurve" smooth="yes"/>
      <point x="239" y="-3.99997"/>
      <point x="118" y="64"/>
      <point x="49.3335" y="184.333"/>
      <point x="49.3335" y="261.333" type="qcurve" smooth="yes"/>
      <point x="49.3335" y="339"/>
      <point x="114" y="458"/>
      <point x="227.667" y="526"/>
      <point x="299" y="526" type="qcurve" smooth="yes"/>
      <point x="370.333" y="526"/>
      <point x="483" y="459.667"/>
      <point x="547.666" y="341"/>
      <point x="547.666" y="263.333" type="qcurve" smooth="yes"/>
      <point x="547.666" y="260.333"/>
      <point x="547.333" y="252.667"/>
      <point x="547" y="248.667" type="qcurve"/>
      <point x="85.6661" y="248.667" type="line"/>
      <point x="85.6661" y="287.666" type="line"/>
      <point x="520.333" y="287.666" type="line"/>
      <point x="500.334" y="269" type="line"/>
      <point x="500.667" y="330.333"/>
      <point x="448" y="427"/>
      <point x="357.667" y="482.334"/>
      <point x="299" y="482.334" type="qcurve" smooth="yes"/>
      <point x="241" y="482.334"/>
      <point x="149.666" y="427"/>
      <point x="97.9993" y="330"/>
      <point x="97.9993" y="268" type="qcurve" smooth="yes"/>
      <point x="97.9993" y="259.333" type="line" smooth="yes"/>
      <point x="97.9993" y="195.333"/>
      <point x="154.666" y="96.3328"/>
      <point x="254.666" y="40.666"/>
      <point x="319" y="40.666" type="qcurve" smooth="yes"/>
      <point x="369" y="40.666"/>
      <point x="456" y="77.3327"/>
      <point x="486" y="114.333" type="qcurve"/>
      <point x="515.333" y="81.3334" type="line"/>
      <point x="480.666" y="39.3334"/>
      <point x="378" y="-3.99997"/>
    </contour>
  </outline>
</glyph>
<glyph name="f" format="2">
  <advance width="328"/>
  <unicode hex="0066"/>
  <outline>
    <contour>
      <point x="116" y="0" type="line"/>
      <point x="116" y="602" type="line" smooth="yes"/>
      <point x="116" y="667"/>
      <point x="191" y="746"/>
      <point x="260.666" y="746" type="qcurve" smooth="yes"/>
      <point x="290" y="746"/>
      <point x="345.666" y="729.333"/>
      <point x="364.333" y="711.667" type="qcurve"/>
      <point x="344.333" y="674.334" type="line"/>
      <point x="329" y="688.667"/>
      <point x="286.666" y="703.334"/>
      <point x="263.333" y="703.334" type="qcurve" smooth="yes"/>
      <point x="214.999" y="703.334"/>
      <point x="164.999" y="649.667"/>
      <point x="164.999" y="598.334" type="qcurve" smooth="yes"/>
      <point x="164.999" y="510.333" type="line"/>
      <point x="165.999" y="486.334" type="line"/>
      <point x="165.999" y="0" type="line"/>
    </contour>
    <contour>
      <point x="19.6668" y="479.334" type="line"/>
      <point x="19.6668" y="522" type="line"/>
      <point x="332" y="522" type="line"/>
      <point x="332" y="479.334" type="line"/>
    </contour>
  </outline>
</glyph>
<glyph name="g" format="2">
  <advance width="682"/>
  <unicode hex="0067"/>
  <anchor x="372" y="562" name="t.uni0308"/>
  <outline>
    <contour>
      <point x="323" y="-198" type="qcurve" smooth="yes"/>
      <point x="252" y="-198"/>
      <point x="124" y="-154.333"/>
      <point x="84.3336" y="-115" type="qcurve"/>
      <point x="111.333" y="-77.3339" type="line"/>
      <point x="150" y="-113.334"/>
      <point x="259.333" y="-153.334"/>
      <point x="321.667" y="-153.334" type="qcurve" smooth="yes"/>
      <point x="426.667" y="-153.334"/>
      <point x="526.334" y="-54.6672"/>
      <point x="526.334" y="50.3331" type="qcurve" smooth="yes"/>
      <point x="526.334" y="195.334" type="line"/>
      <point x="536.334" y="273" type="line"/>
      <point x="528" y="350.999" type="line"/>
      <point x="528" y="522" type="line"/>
      <point x="576.333" y="522" type="line"/>
      <point x="576.333" y="56.333" type="line" smooth="yes"/>
      <point x="576.333" y="-74.6668"/>
      <point x="449" y="-198"/>
    </contour>
    <contour>
      <point x="309.333" y="18.9999" type="qcurve" smooth="yes"/>
      <point x="235.333" y="18.9999"/>
      <point x="117.667" y="83.9999"/>
      <point x="49.3335" y="198.667"/>
      <point x="49.3335" y="273" type="qcurve" smooth="yes"/>
      <point x="49.3335" y="348"/>
      <point x="117.667" y="462"/>
      <point x="235.333" y="526"/>
      <point x="309.333" y="526" type="qcurve" smooth="yes"/>
      <point x="380.333" y="526"/>
      <point x="492.667" y="465.333"/>
      <point x="558.667" y="352"/>
      <point x="558.667" y="273" type="qcurve" smooth="yes"/>
      <point x="558.667" y="194.667"/>
      <point x="492.667" y="80.6667"/>
      <point x="380.333" y="18.9999"/>
    </contour>
    <contour>
      <point x="313.333" y="63.6659" type="qcurve" smooth="yes"/>
      <point x="375.667" y="63.6659"/>
      <point x="471.667" y="116.666"/>
      <point x="527" y="211.666"/>
      <point x="527" y="273" type="qcurve" smooth="yes"/>
      <point x="527" y="335"/>
      <point x="471.667" y="428.667"/>
      <point x="375.667" y="481.334"/>
      <point x="313.333" y="481.334" type="qcurve" smooth="yes"/>
      <point x="252" y="481.334"/>
      <point x="154.999" y="428.667"/>
      <point x="99.6659" y="335"/>
      <point x="99.6659" y="273" type="qcurve" smooth="yes"/>
      <point x="99.6659" y="211.666"/>
      <point x="154.999" y="116.666"/>
      <point x="252" y="63.6659"/>
    </contour>
  </outline>
</glyph>
<glyph name="k" format="2">
  <advance width="588"/>
  <unicode hex="006B"/>
  <anchor x="180" y="742" name="t.uni0308"/>
  <anchor x="341" y="562" name="t.uni031B_2"/>
  <anchor x="330" y="0" name="b.uni0324_3"/>
  <outline>
    <contour>
      <point x="144" y="143.667" type="line"/>
      <point x="145" y="206.666" type="line"/>
      <point x="490.334" y="522" type="line"/>
      <point x="553.999" y="522" type="line"/>
      <point x="325.333" y="306.667" type="line"/>
      <point x="295" y="282" type="line"/>
    </contour>
    <contour>
      <point x="105.667" y="0" type="line"/>
      <point x="105.667" y="742" type="line"/>
      <point x="155.666" y="742" type="line"/>
      <point x="155.666" y="0" type="line"/>
    </contour>
    <contour>
      <point x="514.334" y="0" type="line"/>
      <point x="285.667" y="285.667" type="line"/>
      <point x="319.666" y="323.333" type="line"/>
      <point x="576.333" y="0" type="line"/>
    </contour>
  </outline>
</glyph>
<glyph name="l" format="2">
  <advance width="261"/>
  <unicode hex="006C"/>
  <anchor x="180" y="742" name="t.uni0308"/>
  <anchor x="488" y="380" name="t.periodcentered.loclCAT"/>
  <anchor x="180" y="380" name="t.uni0307_1"/>
  <anchor x="394" y="742" name="t.uni031B_2"/>
  <anchor x="180" y="0" name="b.uni0324_3"/>
  <outline>
    <contour>
      <point x="105.667" y="0" type="line"/>
      <point x="105.667" y="742" type="line"/>
      <point x="155.666" y="742" type="line"/>
      <point x="155.666" y="0" type="line"/>
    </contour>
  </outline>
</glyph>
<glyph name="m" format="2">
  <advance width="1064"/>
  <unicode hex="006D"/>
  <anchor x="511" y="0" name="b.uni0324_3"/>
  <outline>
    <contour>
      <point x="756.333" y="526" type="qcurve" smooth="yes"/>
      <point x="819.333" y="526"/>
      <point x="912.333" y="476.667"/>
      <point x="963.667" y="378.333"/>
      <point x="963.667" y="305" type="qcurve" smooth="yes"/>
      <point x="963.667" y="0" type="line"/>
      <point x="913.667" y="0" type="line"/>
      <point x="913.667" y="300.667" type="line" smooth="yes"/>
      <point x="913.667" y="389.334"/>
      <point x="828" y="480.667"/>
      <point x="750.667" y="480.667" type="qcurve" smooth="yes"/>
      <point x="692" y="480.667"/>
      <point x="606" y="431.334"/>
      <point x="559.666" y="340.667"/>
      <point x="559.666" y="278" type="qcurve" smooth="yes"/>
      <point x="559.666" y="0" type="line"/>
      <point x="509.667" y="0" type="line"/>
      <point x="509.667" y="300.667" type="line" smooth="yes"/>
      <point x="509.667" y="389.334"/>
      <point x="424" y="480.667"/>
      <point x="346.667" y="480.667" type="qcurve" smooth="yes"/>
      <point x="288" y="480.667"/>
      <point x="202" y="431.334"/>
      <point x="155.666" y="340.667"/>
      <point x="155.666" y="278" type="qcurve" smooth="yes"/>
      <point x="155.666" y="0" type="line"/>
      <point x="105.667" y="0" type="line"/>
      <point x="105.667" y="522" type="line"/>
      <point x="153.999" y="522" type="line"/>
      <point x="153.999" y="378" type="line"/>
      <point x="146.666" y="393.999" type="line"/>
      <point x="170" y="455.333"/>
      <point x="277.666" y="526"/>
      <point x="354" y="526" type="qcurve" smooth="yes"/>
      <point x="432.333" y="526"/>
      <point x="538.666" y="447.333"/>
      <point x="553.333" y="369" type="qcurve"/>
      <point x="536" y="375.666" type="line"/>
      <point x="557" y="442.666"/>
      <point x="672.667" y="526"/>
    </contour>
  </outline>
</glyph>
<glyph name="o" format="2">
  <advance width="620"/>
  <unicode hex="006F"/>
  <anchor x="350" y="562" name="t.uni0308"/>
  <anchor x="350" y="281" name="t.uni0307_1"/>
  <anchor x="418" y="561" name="t.uni031B_2"/>
  <anchor x="350" y="0" name="b.uni0324_3"/>
  <anchor x="490" y="0" name="m.uni0328_4"/>
  <outline>
    <contour>
      <point x="310" y="-3.99997" type="qcurve" smooth="yes"/>
      <point x="235" y="-3.99997"/>
      <point x="117.667" y="64"/>
      <point x="49.3335" y="184.333"/>
      <point x="49.3335" y="261.333" type="qcurve" smooth="yes"/>
      <point x="49.3335" y="339.333"/>
      <point x="117.667" y="458"/>
      <point x="235" y="526"/>
      <point x="310" y="526" type="qcurve" smooth="yes"/>
      <point x="385" y="526"/>
      <point x="503.333" y="458"/>
      <point x="570.666" y="339.333"/>
      <point x="570.666" y="261.333" type="qcurve" smooth="yes"/>
      <point x="570.666" y="184.333"/>
      <point x="503.333" y="64"/>
      <point x="385" y="-3.99997"/>
    </contour>
    <contour>
      <point x="310" y="40.666" type="qcurve" smooth="yes"/>
      <point x="370.333" y="40.666"/>
      <point x="465.667" y="96.3328"/>
      <point x="520.334" y="196.333"/>
      <point x="520.334" y="261.333" type="qcurve" smooth="yes"/>
      <point x="520.334" y="327.333"/>
      <point x="465.667" y="426.334"/>
      <point x="370.333" y="481.334"/>
      <point x="310.333" y="481.334" type="qcurve" smooth="yes"/>
      <point x="250" y="481.334"/>
      <point x="155.333" y="426.334"/>
      <point x="99.6659" y="327.333"/>
      <point x="99.6659" y="261.333" type="qcurve" smooth="yes"/>
      <point x="99.6659" y="196.333"/>
      <point x="155.333" y="96.3328"/>
      <point x="250" y="40.666"/>
    </contour>
  </outline>
</glyph>
<glyph name="q" format="2">
  <advance width="675"/>
  <unicode hex="0071"/>
  <anchor x="354" y="562" name="t.uni0308"/>
  <anchor x="281" y="0" name="b.uni0324_3"/>
  <outline>
    <contour>
      <point x="307" y="-3.99997" type="qcurve" smooth="yes"/>
      <point x="233.667" y="-3.99997"/>
      <point x="116.667" y="63.3334"/>
      <point x="49.3335" y="182.667"/>
      <point x="49.3335" y="260.667" type="qcurve" smooth="yes"/>
      <point x="49.3335" y="339.333"/>
      <point x="116.667" y="458.667"/>
      <point x="233.667" y="526"/>
      <point x="307" y="526" type="qcurve" smooth="yes"/>
      <point x="377" y="526"/>
      <point x="487.667" y="461.666"/>
      <point x="552" y="343"/>
      <point x="552" y="260.667" type="qcurve" smooth="yes"/>
      <point x="552" y="179.333"/>
      <point x="487" y="60.3334"/>
      <point x="376.333" y="-3.99997"/>
    </contour>
    <contour>
      <point x="310" y="40.666" type="qcurve" smooth="yes"/>
      <point x="370" y="40.666"/>
      <point x="465.334" y="95.6661"/>
      <point x="520.334" y="195.666"/>
      <point x="520.334" y="260.667" type="qcurve" smooth="yes"/>
      <point x="520.334" y="326.667"/>
      <point x="465.334" y="425.667"/>
      <point x="370" y="481.334"/>
      <point x="310" y="481.334" type="qcurve" smooth="yes"/>
      <point x="250" y="481.334"/>
      <point x="155.333" y="425.667"/>
      <point x="99.6659" y="326.667"/>
      <point x="99.6659" y="260.667" type="qcurve" smooth="yes"/>
      <point x="99.6659" y="195.666"/>
      <point x="155.333" y="95.6661"/>
      <point x="250" y="40.666"/>
    </contour>
    <contour>
      <point x="519.667" y="-194" type="line"/>
      <point x="519.667" y="168.667" type="line"/>
      <point x="529.667" y="259.667" type="line"/>
      <point x="521.334" y="350.666" type="line"/>
      <point x="521.334" y="522" type="line"/>
      <point x="569.666" y="522" type="line"/>
      <point x="569.666" y="-194" type="line"/>
    </contour>
  </outline>
</glyph>
<glyph name="r" format="2">
  <advance width="394"/>
  <unicode hex="0072"/>
  <anchor x="253" y="562" name="t.uni0308"/>
  <anchor x="180" y="0" name="b.uni0324_3"/>
  <outline>
    <contour>
      <point x="105.667" y="0" type="line"/>
      <point x="105.667" y="522" type="line"/>
      <point x="153.999" y="522" type="line"/>
      <point x="153.999" y="378.667" type="line"/>
      <point x="149" y="394.666" type="line"/>
      <point x="170.666" y="457.666"/>
      <point x="275" y="526"/>
      <point x="353" y="526" type="qcurve"/>
      <point x="353" y="477.001" type="line"/>
      <point x="350" y="477.334"/>
      <point x="344" y="477.667"/>
      <point x="340.666" y="477.667" type="qcurve" smooth="yes"/>
      <point x="254" y="477.667"/>
      <point x="155.666" y="369.334"/>
      <point x="155.666" y="272.333" type="qcurve" smooth="yes"/>
      <point x="155.666" y="0" type="line"/>
    </contour>
  </outline>
</glyph>
<glyph name="u" format="2">
  <advance width="669"/>
  <unicode hex="0075"/>
  <anchor x="356" y="562" name="t.uni0308"/>
  <anchor x="533" y="562" name="t.uni031B_2"/>
  <anchor x="356" y="0" name="b.uni0324_3"/>
  <anchor x="691" y="0" name="m.uni0328_4"/>
  <outline>
    <contour>
      <point x="318.333" y="-3.99997" type="qcurve" smooth="yes"/>
      <point x="251.333" y="-3.99997"/>
      <point x="153.334" y="45.3334"/>
      <point x="100" y="144"/>
      <point x="100" y="217" type="qcurve" smooth="yes"/>
      <point x="100" y="522" type="line"/>
      <point x="149.999" y="522" type="line"/>
      <point x="149.999" y="221.333" type="line" smooth="yes"/>
      <point x="149.999" y="132.666"/>
      <point x="240" y="41.3326"/>
      <point x="322" y="41.3326" type="qcurve" smooth="yes"/>
      <point x="381" y="41.3326"/>
      <point x="467" y="90.6661"/>
      <point x="513.334" y="182.333"/>
      <point x="513.334" y="244" type="qcurve" smooth="yes"/>
      <point x="513.334" y="522" type="line"/>
      <point x="563.333" y="522" type="line"/>
      <point x="563.333" y="0" type="line"/>
      <point x="515" y="0" type="line"/>
      <point x="515" y="144.667" type="line"/>
      <point x="522.334" y="128" type="line"/>
      <point x="498.667" y="66.6669"/>
      <point x="392.334" y="-3.99997"/>
    </contour>
  </outline>
</glyph>
<glyph name="v" format="2">
  <advance width="528"/>
  <unicode hex="0076"/>
  <anchor x="352" y="562" name="t.uni0308"/>
  <anchor x="352" y="0" name="b.uni0324_3"/>
  <outline>
    <contour>
      <point x="238.333" y="0" type="line"/>
      <point x="3.00009" y="522" type="line"/>
      <point x="56.3326" y="522" type="line"/>
      <point x="276.333" y="28.3329" type="line"/>
      <point x="252.333" y="28.3329" type="line"/>
      <point x="474" y="522" type="line"/>
      <point x="524.999" y="522" type="line"/>
      <point x="289.333" y="0" type="line"/>
    </contour>
  </outline>
</glyph>
<glyph name="w" format="2">
  <advance width="862"/>
  <unicode hex="0077"/>
  <anchor x="522" y="560" name="t.uni0308"/>
  <anchor x="522" y="0" name="b.uni0324_3"/>
  <outline>
    <contour>
      <point x="208" y="0" type="line"/>
      <point x="9.66673" y="522" type="line"/>
      <point x="57.6659" y="522" type="line"/>
      <point x="242.333" y="28.3329" type="line"/>
      <point x="220.667" y="28.3329" type="line"/>
      <point x="409.667" y="522" type="line"/>
      <point x="453.333" y="522" type="line"/>
      <point x="640.999" y="28.3329" type="line"/>
      <point x="619.333" y="28.3329" type="line"/>
      <point x="805.667" y="522" type="line"/>
      <point x="852.333" y="522" type="line"/>
      <point x="653.666" y="0" type="line"/>
      <point x="606.667" y="0" type="line"/>
      <point x="423.333" y="474.334" type="line"/>
      <point x="438.666" y="474.334" type="line"/>
      <point x="254.333" y="0" type="line"/>
    </contour>
  </outline>
</glyph>
<glyph name="x" format="2">
  <advance width="519"/>
  <unicode hex="0078"/>
  <outline>
    <contour>
      <point x="22.6668" y="0" type="line"/>
      <point x="240.333" y="281.666" type="line"/>
      <point x="239.333" y="258" type="line"/>
      <point x="33.6668" y="522" type="line"/>
      <point x="90.9993" y="522" type="line"/>
      <point x="269.666" y="290.666" type="line"/>
      <point x="248.667" y="291" type="line"/>
      <point x="427.333" y="522" type="line"/>
      <point x="483.333" y="522" type="line"/>
      <point x="275.666" y="254.667" type="line"/>
      <point x="276.666" y="282" type="line"/>
      <point x="496.666" y="0" type="line"/>
      <point x="438" y="0" type="line"/>
      <point x="249" y="246.334" type="line"/>
      <point x="267.666" y="244.334" type="line"/>
      <point x="79.9992" y="0" type="line"/>
    </contour>
  </outline>
</glyph>
<glyph name="y" format="2">
  <advance width="528"/>
  <unicode hex="0079"/>
  <anchor x="345" y="562" name="t.uni0308"/>
  <anchor x="608" y="0" name="b.uni0324_3"/>
  <outline>
    <contour>
      <point x="93.9996" y="-198" type="qcurve" smooth="yes"/>
      <point x="58.333" y="-198"/>
      <point x="-4.66682" y="-174.333"/>
      <point x="-27.3334" y="-151" type="qcurve"/>
      <point x="-2.0004" y="-113.001" type="line"/>
      <point x="18.333" y="-133.667"/>
      <point x="65.3329" y="-154.334"/>
      <point x="94.6663" y="-154.334" type="qcurve" smooth="yes"/>
      <point x="131.333" y="-154.334"/>
      <point x="186" y="-114.001"/>
      <point x="210.333" y="-61.0005" type="qcurve" smooth="yes"/>
      <point x="246.333" y="18.6663" type="line"/>
      <point x="253" y="27.9996" type="line"/>
      <point x="474" y="522" type="line"/>
      <point x="524.999" y="522" type="line"/>
      <point x="256.999" y="-71.3337" type="line" smooth="yes"/>
      <point x="236.333" y="-118.667"/>
      <point x="186.666" y="-174.333"/>
      <point x="129" y="-198"/>
    </contour>
    <contour>
      <point x="245.333" y="-13.3333" type="line"/>
      <point x="3.00009" y="522" type="line"/>
      <point x="56.3326" y="522" type="line"/>
      <point x="275.999" y="31.3328" type="line"/>
    </contour>
  </outline>
</glyph>
<glyph name="z" format="2">
  <advance width="503"/>
  <unicode hex="007A"/>
  <anchor x="310" y="562" name="t.uni0308"/>
  <anchor x="305" y="0" name="b.uni0324_3"/>
  <outline>
    <contour>
      <point x="43.6667" y="0" type="line"/>
      <point x="43.6667" y="33.6661" type="line"/>
      <point x="401.334" y="496" type="line"/>
      <point x="413.667" y="479.334" type="line"/>
      <point x="49.0001" y="479.334" type="line"/>
      <point x="49.0001" y="522" type="line"/>
      <point x="453" y="522" type="line"/>
      <point x="453" y="488.334" type="line"/>
      <point x="95.3326" y="25.9996" type="line"/>
      <point x="79.666" y="42.666" type="line"/>
      <point x="459" y="42.666" type="line"/>
      <point x="459" y="0" type="line"/>
    </contour>
  </outline>
</glyph>
<glyph name="braceleft" format="2">
  <advance width="320"/>
  <unicode hex="007B"/>
  <outline>
    <contour>
      <point x="265" y="-194" type="line" smooth="yes"/>
      <point x="204" y="-194"/>
      <point x="141.667" y="-134"/>
      <point x="141.667" y="-74.0005" type="qcurve" smooth="yes"/>
      <point x="141.667" y="201" type="line" smooth="yes"/>
      <point x="141.667" y="228.334"/>
      <point x="118.333" y="252.667"/>
      <point x="96.6668" y="252.667" type="qcurve" smooth="yes"/>
      <point x="62.0001" y="252.667" type="line"/>
      <point x="62.0001" y="296" type="line"/>
      <point x="96.6668" y="296" type="line" smooth="yes"/>
      <point x="118.333" y="296"/>
      <point x="141.667" y="320"/>
      <point x="141.667" y="347" type="qcurve" smooth="yes"/>
      <point x="141.667" y="622.001" type="line" smooth="yes"/>
      <point x="141.667" y="683"/>
      <point x="204" y="742"/>
      <point x="265" y="742" type="qcurve" smooth="yes"/>
      <point x="297.333" y="742" type="line"/>
      <point x="297.333" y="699.334" type="line"/>
      <point x="268.333" y="699.334" type="line" smooth="yes"/>
      <point x="229.333" y="699.334"/>
      <point x="191.666" y="657.334"/>
      <point x="191.666" y="618.334" type="qcurve" smooth="yes"/>
      <point x="191.666" y="347.666" type="line" smooth="yes"/>
      <point x="191.666" y="322"/>
      <point x="179.999" y="291.333"/>
      <point x="156.333" y="275.333"/>
      <point x="137.333" y="270.333" type="qcurve"/>
      <point x="137.333" y="277.667" type="line"/>
      <point x="156.333" y="273.667"/>
      <point x="179.999" y="256.667"/>
      <point x="191.666" y="226"/>
      <point x="191.666" y="200.334" type="qcurve" smooth="yes"/>
      <point x="191.666" y="-70.334" type="line" smooth="yes"/>
      <point x="191.666" y="-109.334"/>
      <point x="229.333" y="-151.334"/>
      <point x="268.333" y="-151.334" type="qcurve" smooth="yes"/>
      <point x="297.333" y="-151.334" type="line"/>
      <point x="297.333" y="-194" type="line"/>
    </contour>
  </outline>
</glyph>
<glyph name="bar" format="2">
  <advance width="291"/>
  <unicode hex="007C"/>
  <outline>
    <contour>
      <point x="122" y="-194" type="line"/>
      <point x="122" y="742" type="line"/>
      <point x="169" y="742" type="line"/>
      <point x="169" y="-194" type="line"/>
    </contour>
  </outline>
</glyph>
<glyph name="braceright" format="2">
  <advance width="320"/>
  <unicode hex="007D"/>
  <outline>
    <contour>
      <point x="54.9999" y="-194" type="qcurve" smooth="yes"/>
      <point x="22.6667" y="-194" type="line"/>
      <point x="22.6667" y="-151.334" type="line"/>
      <point x="51.6668" y="-151.334" type="line" smooth="yes"/>
      <point x="91.6668" y="-151.334"/>
      <point x="128.667" y="-109.334"/>
      <point x="128.667" y="-70.334" type="qcurve" smooth="yes"/>
      <point x="128.667" y="200.334" type="line" smooth="yes"/>
      <point x="128.667" y="226"/>
      <point x="140.333" y="256.667"/>
      <point x="164.667" y="273.667"/>
      <point x="182.666" y="277.667" type="qcurve"/>
      <point x="182.666" y="270.333" type="line"/>
      <point x="164.667" y="275.333"/>
      <point x="140.333" y="291.333"/>
      <point x="128.667" y="322"/>
      <point x="128.667" y="347.666" type="qcurve" smooth="yes"/>
      <point x="128.667" y="618.334" type="line" smooth="yes"/>
      <point x="128.667" y="657.334"/>
      <point x="91.6668" y="699.334"/>
      <point x="51.6668" y="699.334" type="qcurve" smooth="yes"/>
      <point x="22.6667" y="699.334" type="line"/>
      <point x="22.6667" y="742" type="line"/>
      <point x="54.9999" y="742" type="line" smooth="yes"/>
      <point x="116.333" y="742"/>
      <point x="178.666" y="683"/>
      <point x="178.666" y="622.001" type="qcurve" smooth="yes"/>
      <point x="178.666" y="347" type="line" smooth="yes"/>
      <point x="178.666" y="320"/>
      <point x="201.999" y="296"/>
      <point x="223.333" y="296" type="qcurve" smooth="yes"/>
      <point x="257.999" y="296" type="line"/>
      <point x="257.999" y="252.667" type="line"/>
      <point x="223.333" y="252.667" type="line" smooth="yes"/>
      <point x="201.999" y="252.667"/>
      <point x="178.666" y="228.334"/>
      <point x="178.666" y="201" type="qcurve" smooth="yes"/>
      <point x="178.666" y="-74.0005" type="line" smooth="yes"/>
      <point x="178.666" y="-134"/>
      <point x="116.333" y="-194"/>
    </contour>
  </outline>
</glyph>
<glyph name="asciitilde" format="2">
  <advance width="569"/>
  <unicode hex="007E"/>
  <outline>
    <contour>
      <point x="386" y="277.667" type="qcurve" smooth="yes"/>
      <point x="350" y="277.667"/>
      <point x="298.333" y="309.334"/>
      <point x="255.333" y="351"/>
      <point x="212" y="382.667"/>
      <point x="184" y="382.667" type="qcurve" smooth="yes"/>
      <point x="146.333" y="382.667"/>
      <point x="102.333" y="328.334"/>
      <point x="100.333" y="282.334" type="qcurve"/>
      <point x="64.6668" y="282.334" type="line"/>
      <point x="67.3335" y="351"/>
      <point x="132.667" y="422.666"/>
      <point x="182.667" y="422.666" type="qcurve" smooth="yes"/>
      <point x="218.667" y="422.666"/>
      <point x="270.333" y="391"/>
      <point x="313.333" y="349.333"/>
      <point x="356.667" y="317.666"/>
      <point x="384.667" y="317.666" type="qcurve" smooth="yes"/>
      <point x="422.667" y="317.666"/>
      <point x="466.667" y="372.333"/>
      <point x="468.333" y="418.333" type="qcurve"/>
      <point x="504" y="418.333" type="line"/>
      <point x="501.333" y="350.333"/>
      <point x="437" y="277.667"/>
    </contour>
  </outline>
</glyph>
<glyph name="exclamdown" format="2">
  <advance width="252"/>
  <unicode hex="00A1"/>
  <outline>
    <contour>
      <point x="145.333" y="321" type="line"/>
      <point x="155.333" y="-154" type="line"/>
      <point x="97.3337" y="-154" type="line"/>
      <point x="107" y="321" type="line"/>
    </contour>
    <contour>
      <point x="126.333" y="526" type="qcurve" smooth="yes"/>
      <point x="144.333" y="526"/>
      <point x="167.666" y="502"/>
      <point x="167.666" y="484.667" type="qcurve" smooth="yes"/>
      <point x="167.666" y="468.334"/>
      <point x="144.333" y="444.001"/>
      <point x="126.333" y="444.001" type="qcurve" smooth="yes"/>
      <point x="109.333" y="444.001"/>
      <point x="84.667" y="468.334"/>
      <point x="84.667" y="484.667" type="qcurve" smooth="yes"/>
      <point x="84.667" y="502"/>
      <point x="109.333" y="526"/>
    </contour>
  </outline>
</glyph>
<glyph name="sterling" format="2">
  <advance width="629"/>
  <unicode hex="00A3"/>
  <outline>
    <contour>
      <point x="145.667" y="11.6666" type="line"/>
      <point x="145.667" y="468.667" type="line" smooth="yes"/>
      <point x="145.667" y="539.667"/>
      <point x="205" y="645.667"/>
      <point x="323" y="705"/>
      <point x="410.333" y="705" type="qcurve" smooth="yes"/>
      <point x="470.666" y="705"/>
      <point x="572.333" y="678"/>
      <point x="612.333" y="648.333" type="qcurve"/>
      <point x="591.333" y="606.001" type="line"/>
      <point x="554" y="634.334"/>
      <point x="460.666" y="658.334"/>
      <point x="406.666" y="658.334" type="qcurve" smooth="yes"/>
      <point x="299.999" y="658.334"/>
      <point x="196.999" y="557.667"/>
      <point x="196.999" y="467" type="qcurve" smooth="yes"/>
      <point x="196.999" y="11.6666" type="line"/>
    </contour>
    <contour>
      <point x="30" y="0" type="line"/>
      <point x="30" y="45.6659" type="line"/>
      <point x="600.333" y="45.6659" type="line"/>
      <point x="600.333" y="0" type="line"/>
    </contour>
    <contour>
      <point x="30" y="331.667" type="line"/>
      <point x="30" y="368.333" type="line"/>
      <point x="483" y="368.333" type="line"/>
      <point x="483" y="331.667" type="line"/>
    </contour>
  </outline>
</glyph>
<glyph name="currency" format="2">
  <advance width="700"/>
  <unicode hex="00A4"/>
  <outline>
    <contour>
      <point x="154" y="481.667" type="line"/>
      <point x="36.0001" y="600.334" type="line"/>
      <point x="65.9996" y="632.333" type="line"/>
      <point x="185" y="513.667" type="line"/>
    </contour>
    <contour>
      <point x="65.9996" y="2.66676" type="line"/>
      <point x="36.0001" y="34.6662" type="line"/>
      <point x="154" y="153.333" type="line"/>
      <point x="185" y="121.333" type="line"/>
    </contour>
    <contour>
      <point x="633.667" y="2.66676" type="line"/>
      <point x="514.667" y="121.333" type="line"/>
      <point x="545.667" y="153.333" type="line"/>
      <point x="664" y="34.6662" type="line"/>
    </contour>
    <contour>
      <point x="545.667" y="481.667" type="line"/>
      <point x="514.667" y="513.667" type="line"/>
      <point x="633.667" y="632.333" type="line"/>
      <point x="664" y="600.334" type="line"/>
    </contour>
    <contour>
      <point x="350" y="49.6666" type="qcurve" smooth="yes"/>
      <point x="293" y="49.6666"/>
      <point x="193" y="91.3332"/>
      <point x="117" y="165.333"/>
      <point x="73.6666" y="262.333"/>
      <point x="73.6666" y="317" type="qcurve" smooth="yes"/>
      <point x="73.6666" y="372.667"/>
      <point x="117" y="470.333"/>
      <point x="193" y="544.667"/>
      <point x="293" y="587"/>
      <point x="350" y="587" type="qcurve" smooth="yes"/>
      <point x="408" y="587"/>
      <point x="508.667" y="544.667"/>
      <point x="585.333" y="470.333"/>
      <point x="628.667" y="372.667"/>
      <point x="628.667" y="317" type="qcurve" smooth="yes"/>
      <point x="628.667" y="262.333"/>
      <point x="585.333" y="165.333"/>
      <point x="508.667" y="91.3332"/>
      <point x="408" y="49.6666"/>
    </contour>
    <contour>
      <point x="350" y="92.9992" type="qcurve" smooth="yes"/>
      <point x="415.334" y="92.9992"/>
      <point x="522.001" y="153.999"/>
      <point x="586.001" y="255.333"/>
      <point x="586.001" y="317" type="qcurve" smooth="yes"/>
      <point x="586.001" y="379.667"/>
      <point x="522.001" y="482.001"/>
      <point x="415.334" y="543.667"/>
      <point x="350" y="543.667" type="qcurve" smooth="yes"/>
      <point x="286.333" y="543.667"/>
      <point x="179.666" y="482.001"/>
      <point x="116.666" y="379.667"/>
      <point x="116.666" y="317" type="qcurve" smooth="yes"/>
      <point x="116.666" y="255.333"/>
      <point x="179.666" y="153.999"/>
      <point x="286.333" y="92.9992"/>
    </contour>
  </outline>
</glyph>
<glyph name="yen" format="2">
  <advance width="685"/>
  <unicode hex="00A5"/>
  <outline>
    <contour>
      <point x="316.667" y="0" type="line"/>
      <point x="316.667" y="303.667" type="line"/>
      <point x="328.667" y="268.334" type="line"/>
      <point x="4.66682" y="700" type="line"/>
      <point x="60.3326" y="700" type="line"/>
      <point x="357.333" y="307" type="line"/>
      <point x="328.667" y="307" type="line"/>
      <point x="626" y="700" type="line"/>
      <point x="679.999" y="700" type="line"/>
      <point x="356" y="268.334" type="line"/>
      <point x="367.999" y="303.667" type="line"/>
      <point x="367.999" y="0" type="line"/>
    </contour>
    <contour>
      <point x="88.3332" y="141.334" type="line"/>
      <point x="88.3332" y="174.667" type="line"/>
      <point x="596.333" y="174.667" type="line"/>
      <point x="596.333" y="141.334" type="line"/>
    </contour>
    <contour>
      <point x="88.3332" y="279.334" type="line"/>
      <point x="88.3332" y="312.667" type="line"/>
      <point x="596.333" y="312.667" type="line"/>
      <point x="596.333" y="279.334" type="line"/>
    </contour>
  </outline>
</glyph>
<glyph name="brokenbar" format="2">
  <advance width="291"/>
  <unicode hex="00A6"/>
  <outline>
    <contour>
      <point x="122" y="392" type="line"/>
      <point x="122" y="742" type="line"/>
      <point x="169" y="742" type="line"/>
      <point x="169" y="392" type="line"/>
    </contour>
    <contour>
      <point x="122" y="-194" type="line"/>
      <point x="122" y="156" type="line"/>
      <point x="169" y="156" type="line"/>
      <point x="169" y="-194" type="line"/>
    </contour>
  </outline>
</glyph>
<glyph name="section" format="2">
  <advance width="482"/>
  <unicode hex="00A7"/>
  <outline>
    <contour>
      <point x="330" y="147.667" type="qcurve"/>
      <point x="288.667" y="175" type="line"/>
      <point x="334.667" y="182"/>
      <point x="399.334" y="238"/>
      <point x="399.334" y="285.667" type="qcurve" smooth="yes"/>
      <point x="399.334" y="321"/>
      <point x="363" y="364"/>
      <point x="303.334" y="389"/>
      <point x="232" y="407"/>
      <point x="161.334" y="427"/>
      <point x="101.667" y="458"/>
      <point x="65.3335" y="511.667"/>
      <point x="65.3335" y="554.334" type="qcurve" smooth="yes"/>
      <point x="65.3335" y="601.667"/>
      <point x="114.667" y="668"/>
      <point x="207.333" y="704"/>
      <point x="272.333" y="704" type="qcurve" smooth="yes"/>
      <point x="304" y="704"/>
      <point x="370.333" y="691.667"/>
      <point x="428.666" y="668.333"/>
      <point x="449" y="652.333" type="qcurve"/>
      <point x="429.666" y="614.001" type="line"/>
      <point x="397" y="638.667"/>
      <point x="313.666" y="662.334"/>
      <point x="269.666" y="662.334" type="qcurve" smooth="yes"/>
      <point x="193" y="662.334"/>
      <point x="111.333" y="609"/>
      <point x="111.333" y="555.667" type="qcurve" smooth="yes"/>
      <point x="111.333" y="521.333"/>
      <point x="147.333" y="480.333"/>
      <point x="206.333" y="456.333"/>
      <point x="277.666" y="438.333"/>
      <point x="349" y="418.666"/>
      <point x="408" y="385.333"/>
      <point x="444" y="330.333"/>
      <point x="444" y="286" type="qcurve" smooth="yes"/>
      <point x="444" y="234.333"/>
      <point x="379" y="161.333"/>
    </contour>
    <contour>
      <point x="227.333" y="-104" type="qcurve" smooth="yes"/>
      <point x="189.667" y="-104"/>
      <point x="113.333" y="-86.6666"/>
      <point x="50.0001" y="-55.3332"/>
      <point x="29.6667" y="-35.9999" type="qcurve"/>
      <point x="48.9999" y="2.66613" type="line"/>
      <point x="78.3332" y="-23.6672"/>
      <point x="175.333" y="-62.334"/>
      <point x="228.667" y="-62.334" type="qcurve" smooth="yes"/>
      <point x="297.667" y="-62.334"/>
      <point x="375" y="-8.33375"/>
      <point x="375" y="44.3332" type="qcurve" smooth="yes"/>
      <point x="375" y="79.3333"/>
      <point x="338.667" y="120.333"/>
      <point x="280" y="144.667"/>
      <point x="208.667" y="162.334"/>
      <point x="137" y="181.667"/>
      <point x="78.3335" y="214.333"/>
      <point x="42.0001" y="269.333"/>
      <point x="42.0001" y="312.667" type="qcurve" smooth="yes"/>
      <point x="42.0001" y="366.667"/>
      <point x="107" y="438"/>
      <point x="155.333" y="451.667" type="qcurve"/>
      <point x="194.666" y="424.334" type="line"/>
      <point x="149.666" y="417.334"/>
      <point x="86.666" y="361.667"/>
      <point x="86.666" y="314.667" type="qcurve" smooth="yes"/>
      <point x="86.666" y="279.333"/>
      <point x="122.999" y="236.333"/>
      <point x="182.666" y="210.333"/>
      <point x="254.333" y="193.333"/>
      <point x="325" y="173.333"/>
      <point x="384.666" y="141.333"/>
      <point x="421" y="87.3331"/>
      <point x="421" y="43.9998" type="qcurve" smooth="yes"/>
      <point x="421" y="-1.66685"/>
      <point x="373" y="-68.6667"/>
      <point x="286.333" y="-104"/>
    </contour>
  </outline>
</glyph>
<glyph name="copyright" format="2">
  <advance width="815"/>
  <unicode hex="00A9"/>
  <outline>
    <contour>
      <point x="406.667" y="-3" type="qcurve" smooth="yes"/>
      <point x="331.667" y="-3"/>
      <point x="203.667" y="51"/>
      <point x="107.667" y="148"/>
      <point x="54.6668" y="276"/>
      <point x="54.6668" y="350" type="qcurve" smooth="yes"/>
      <point x="54.6668" y="424"/>
      <point x="108.667" y="552"/>
      <point x="204.667" y="649"/>
      <point x="333.667" y="703"/>
      <point x="408.667" y="703" type="qcurve" smooth="yes"/>
      <point x="483.667" y="703"/>
      <point x="612.667" y="650"/>
      <point x="707.667" y="554"/>
      <point x="760.667" y="427"/>
      <point x="760.667" y="352" type="qcurve" smooth="yes"/>
      <point x="760.667" y="277"/>
      <point x="706.667" y="148"/>
      <point x="609.667" y="51"/>
      <point x="481.667" y="-3"/>
    </contour>
    <contour>
      <point x="406.667" y="26.333" type="qcurve" smooth="yes"/>
      <point x="475.334" y="26.333"/>
      <point x="592.667" y="76.6664"/>
      <point x="681.334" y="165"/>
      <point x="730.667" y="284"/>
      <point x="730.667" y="352" type="qcurve" smooth="yes"/>
      <point x="730.667" y="420.667"/>
      <point x="682.334" y="537.333"/>
      <point x="595.334" y="625"/>
      <point x="477.667" y="673.667"/>
      <point x="408.667" y="673.667" type="qcurve" smooth="yes"/>
      <point x="339.667" y="673.667"/>
      <point x="221.333" y="624.334"/>
      <point x="133.667" y="535.333"/>
      <point x="84.6665" y="418"/>
      <point x="84.6665" y="350" type="qcurve" smooth="yes"/>
      <point x="84.6665" y="282"/>
      <point x="133.667" y="164.667"/>
      <point x="220.667" y="75.6664"/>
      <point x="338.667" y="26.333"/>
    </contour>
    <contour>
      <point x="415.667" y="141" type="qcurve" smooth="yes"/>
      <point x="356" y="141"/>
      <point x="262" y="194.333"/>
      <point x="208.667" y="288.667"/>
      <point x="208.667" y="350" type="qcurve" smooth="yes"/>
      <point x="208.667" y="411.333"/>
      <point x="262" y="505.667"/>
      <point x="356" y="559"/>
      <point x="415.667" y="559" type="qcurve" smooth="yes"/>
      <point x="464" y="559"/>
      <point x="545.333" y="521.333"/>
      <point x="571" y="486" type="qcurve"/>
      <point x="539.667" y="460.667" type="line"/>
      <point x="517.667" y="491.001"/>
      <point x="452.334" y="520.667"/>
      <point x="414.667" y="520.667" type="qcurve" smooth="yes"/>
      <point x="367.667" y="520.667"/>
      <point x="293.666" y="478"/>
      <point x="250.666" y="401"/>
      <point x="250.666" y="350" type="qcurve" smooth="yes"/>
      <point x="250.666" y="299"/>
      <point x="293.666" y="222"/>
      <point x="367.667" y="179.333"/>
      <point x="414.667" y="179.333" type="qcurve" smooth="yes"/>
      <point x="452.334" y="179.333"/>
      <point x="517.667" y="208.999"/>
      <point x="539.667" y="239.333" type="qcurve"/>
      <point x="571" y="214.666" type="line"/>
      <point x="545.333" y="179"/>
      <point x="464" y="141"/>
    </contour>
  </outline>
</glyph>
<glyph name="ordfeminine" format="2">
  <advance width="398"/>
  <unicode hex="00AA"/>
  <outline>
    <contour>
      <point x="286" y="431.667" type="line"/>
      <point x="286" y="501.333" type="line"/>
      <point x="283.334" y="512" type="line"/>
      <point x="283.334" y="627.667" type="line" smooth="yes"/>
      <point x="283.334" y="671.334"/>
      <point x="234.667" y="713.334"/>
      <point x="186.667" y="713.334" type="qcurve" smooth="yes"/>
      <point x="152" y="713.334"/>
      <point x="92" y="692.667"/>
      <point x="70.6666" y="674.667" type="qcurve"/>
      <point x="54.3335" y="701" type="line"/>
      <point x="79.0001" y="721"/>
      <point x="151.667" y="745.333"/>
      <point x="189.333" y="745.333" type="qcurve" smooth="yes"/>
      <point x="253.667" y="745.333"/>
      <point x="322.666" y="686"/>
      <point x="322.666" y="626.667" type="qcurve" smooth="yes"/>
      <point x="322.666" y="431.667" type="line"/>
    </contour>
    <contour>
      <point x="165.333" y="429" type="qcurve" smooth="yes"/>
      <point x="107" y="429"/>
      <point x="44.3335" y="479.333"/>
      <point x="44.3335" y="518.667" type="qcurve" smooth="yes"/>
      <point x="44.3335" y="555"/>
      <point x="102" y="605.333"/>
      <point x="171" y="605.333" type="qcurve" smooth="yes"/>
      <point x="292.334" y="605.333" type="line"/>
      <point x="292.334" y="579" type="line"/>
      <point x="174.667" y="579" type="line" smooth="yes"/>
      <point x="124.666" y="579"/>
      <point x="81.6663" y="546.333"/>
      <point x="81.6663" y="520.333" type="qcurve" smooth="yes"/>
      <point x="81.6663" y="491"/>
      <point x="129.333" y="457.666"/>
      <point x="172.667" y="457.666" type="qcurve" smooth="yes"/>
      <point x="215" y="457.666"/>
      <point x="269" y="491.333"/>
      <point x="283.334" y="522.333" type="qcurve"/>
      <point x="292" y="499.334" type="line"/>
      <point x="280" y="468"/>
      <point x="215.333" y="429"/>
    </contour>
  </outline>
</glyph>
<glyph name="logicalnot" format="2">
  <advance width="569"/>
  <unicode hex="00AC"/>
  <outline>
    <contour>
      <point x="496.666" y="371.333" type="line"/>
      <point x="496.666" y="148.667" type="line"/>
      <point x="451.334" y="148.667" type="line"/>
      <point x="451.334" y="328.667" type="line"/>
      <point x="72.0001" y="328.667" type="line"/>
      <point x="72.0001" y="371.333" type="line"/>
    </contour>
  </outline>
</glyph>
<glyph name="registered" format="2">
  <advance width="815"/>
  <unicode hex="00AE"/>
  <outline>
    <contour>
      <point x="406.667" y="-3" type="qcurve" smooth="yes"/>
      <point x="331.667" y="-3"/>
      <point x="203.667" y="51"/>
      <point x="107.667" y="148"/>
      <point x="54.6668" y="276"/>
      <point x="54.6668" y="350" type="qcurve" smooth="yes"/>
      <point x="54.6668" y="424"/>
      <point x="108.667" y="552"/>
      <point x="204.667" y="649"/>
      <point x="333.667" y="703"/>
      <point x="408.667" y="703" type="qcurve" smooth="yes"/>
      <point x="483.667" y="703"/>
      <point x="612.667" y="650"/>
      <point x="707.667" y="554"/>
      <point x="760.667" y="427"/>
      <point x="760.667" y="352" type="qcurve" smooth="yes"/>
      <point x="760.667" y="277"/>
      <point x="706.667" y="148"/>
      <point x="609.667" y="51"/>
      <point x="481.667" y="-3"/>
    </contour>
    <contour>
      <point x="545" y="145.333" type="line"/>
      <point x="442" y="304" type="line"/>
      <point x="483.667" y="304" type="line"/>
      <point x="586.667" y="145.333" type="line"/>
    </contour>
    <contour>
      <point x="406.667" y="26.333" type="qcurve" smooth="yes"/>
      <point x="475.334" y="26.333"/>
      <point x="592.667" y="76.6664"/>
      <point x="681.334" y="165"/>
      <point x="730.667" y="284"/>
      <point x="730.667" y="352" type="qcurve" smooth="yes"/>
      <point x="730.667" y="420.667"/>
      <point x="682.334" y="537.333"/>
      <point x="595.334" y="625"/>
      <point x="477.667" y="673.667"/>
      <point x="408.667" y="673.667" type="qcurve" smooth="yes"/>
      <point x="339.667" y="673.667"/>
      <point x="221.333" y="624.334"/>
      <point x="133.667" y="535.333"/>
      <point x="84.6665" y="418"/>
      <point x="84.6665" y="350" type="qcurve" smooth="yes"/>
      <point x="84.6665" y="282"/>
      <point x="133.667" y="164.667"/>
      <point x="220.667" y="75.6664"/>
      <point x="338.667" y="26.333"/>
    </contour>
    <contour>
      <point x="273.334" y="145.333" type="line"/>
      <point x="273.334" y="554.667" type="line"/>
      <point x="427.333" y="554.667" type="line" smooth="yes"/>
      <point x="500.333" y="554.667"/>
      <point x="584" y="482"/>
      <point x="584" y="420.667" type="qcurve" smooth="yes"/>
      <point x="584" y="358.333"/>
      <point x="500.333" y="286.333"/>
      <point x="427.333" y="286.333" type="qcurve" smooth="yes"/>
      <point x="312.333" y="286.333" type="line"/>
      <point x="312.333" y="145.333" type="line"/>
    </contour>
    <contour>
      <point x="311.333" y="320" type="line"/>
      <point x="424.334" y="320" type="line" smooth="yes"/>
      <point x="482" y="320"/>
      <point x="546.001" y="373"/>
      <point x="546.001" y="420.667" type="qcurve" smooth="yes"/>
      <point x="546.001" y="468.334"/>
      <point x="482" y="521.001"/>
      <point x="424.334" y="521.001" type="qcurve" smooth="yes"/>
      <point x="311.333" y="521.001" type="line"/>
    </contour>
  </outline>
</glyph>
<glyph name="degree" format="2">
  <advance width="420"/>
  <unicode hex="00B0"/>
  <outline>
    <contour>
      <point x="209.667" y="394.334" type="qcurve" smooth="yes"/>
      <point x="166.667" y="394.334"/>
      <point x="95.3335" y="435.667"/>
      <point x="54.0002" y="506"/>
      <point x="54.0002" y="549.333" type="qcurve" smooth="yes"/>
      <point x="54.0002" y="592.667"/>
      <point x="95.3335" y="663"/>
      <point x="166.667" y="704.333"/>
      <point x="209.667" y="704.333" type="qcurve" smooth="yes"/>
      <point x="253.333" y="704.333"/>
      <point x="324" y="663"/>
      <point x="365.333" y="592.667"/>
      <point x="365.333" y="549.333" type="qcurve" smooth="yes"/>
      <point x="365.333" y="506"/>
      <point x="324" y="435.667"/>
      <point x="253.333" y="394.334"/>
    </contour>
    <contour>
      <point x="209.667" y="426.333" type="qcurve" smooth="yes"/>
      <point x="244.333" y="426.333"/>
      <point x="299.334" y="459.667"/>
      <point x="331.667" y="515.333"/>
      <point x="331.667" y="549.333" type="qcurve" smooth="yes"/>
      <point x="331.667" y="584"/>
      <point x="299.334" y="639.334"/>
      <point x="244.333" y="672.334"/>
      <point x="209.667" y="672.334" type="qcurve" smooth="yes"/>
      <point x="175.333" y="672.334"/>
      <point x="120" y="639.334"/>
      <point x="87.6664" y="584.333"/>
      <point x="87.6664" y="549.333" type="qcurve" smooth="yes"/>
      <point x="87.6664" y="515"/>
      <point x="120" y="459.333"/>
      <point x="175.333" y="426.333"/>
    </contour>
  </outline>
</glyph>
<glyph name="plusminus" format="2">
  <advance width="569"/>
  <unicode hex="00B1"/>
  <outline>
    <contour>
      <point x="72.0001" y="0" type="line"/>
      <point x="72.0001" y="42.666" type="line"/>
      <point x="496.666" y="42.666" type="line"/>
      <point x="496.666" y="0" type="line"/>
    </contour>
    <contour>
      <point x="261.667" y="163.666" type="line"/>
      <point x="261.667" y="574.333" type="line"/>
      <point x="307" y="574.333" type="line"/>
      <point x="307" y="163.666" type="line"/>
    </contour>
    <contour>
      <point x="72.0001" y="347.333" type="line"/>
      <point x="72.0001" y="389.999" type="line"/>
      <point x="496.666" y="389.999" type="line"/>
      <point x="496.666" y="347.333" type="line"/>
    </contour>
  </outline>
</glyph>
<glyph name="paragraph" format="2">
  <advance width="619"/>
  <unicode hex="00B6"/>
  <outline>
    <contour>
      <point x="225.667" y="-100" type="line"/>
      <point x="225.667" y="405" type="line"/>
      <point x="165.333" y="405.334"/>
      <point x="74" y="447"/>
      <point x="22.6667" y="523"/>
      <point x="22.6667" y="574" type="qcurve" smooth="yes"/>
      <point x="22.6667" y="626"/>
      <point x="74.6667" y="701.333"/>
      <point x="168.667" y="742"/>
      <point x="231.333" y="742" type="qcurve" smooth="yes"/>
      <point x="496.999" y="742" type="line"/>
      <point x="496.999" y="-100" type="line"/>
      <point x="453.333" y="-100" type="line"/>
      <point x="453.333" y="701.001" type="line"/>
      <point x="269.333" y="701.001" type="line"/>
      <point x="269.333" y="-100" type="line"/>
    </contour>
  </outline>
</glyph>
<glyph name="periodcentered" format="2">
  <advance width="240"/>
  <unicode hex="00B7"/>
  <outline>
    <contour>
      <point x="120" y="225.334" type="qcurve" smooth="yes"/>
      <point x="103" y="225.334"/>
      <point x="77.6669" y="250.333"/>
      <point x="77.6669" y="268.333" type="qcurve" smooth="yes"/>
      <point x="77.6669" y="287"/>
      <point x="103" y="310.999"/>
      <point x="120" y="310.999" type="qcurve" smooth="yes"/>
      <point x="138" y="310.999"/>
      <point x="161.999" y="287"/>
      <point x="161.999" y="268.333" type="qcurve" smooth="yes"/>
      <point x="161.999" y="250.333"/>
      <point x="138" y="225.334"/>
    </contour>
  </outline>
</glyph>
<glyph name="ordmasculine" format="2">
  <advance width="411"/>
  <unicode hex="00BA"/>
  <outline>
    <contour>
      <point x="205.667" y="429" type="qcurve" smooth="yes"/>
      <point x="156.667" y="429"/>
      <point x="80.3334" y="469.667"/>
      <point x="36.6668" y="541.667"/>
      <point x="36.6668" y="587.333" type="qcurve" smooth="yes"/>
      <point x="36.6668" y="633.667"/>
      <point x="80.3334" y="704.667"/>
      <point x="156.667" y="745.333"/>
      <point x="205.333" y="745.333" type="qcurve" smooth="yes"/>
      <point x="254.333" y="745.333"/>
      <point x="330.666" y="704.667"/>
      <point x="374" y="633.667"/>
      <point x="374" y="587.333" type="qcurve" smooth="yes"/>
      <point x="374" y="541.667"/>
      <point x="330.666" y="469.667"/>
      <point x="254.333" y="429"/>
    </contour>
    <contour>
      <point x="205.333" y="462.666" type="qcurve" smooth="yes"/>
      <point x="262.333" y="462.666"/>
      <point x="336" y="532.333"/>
      <point x="336" y="587.333" type="qcurve" smooth="yes"/>
      <point x="336" y="643.334"/>
      <point x="262.333" y="711.667"/>
      <point x="205.333" y="711.667" type="qcurve" smooth="yes"/>
      <point x="149.333" y="711.667"/>
      <point x="74.6662" y="643.334"/>
      <point x="74.6662" y="587.333" type="qcurve" smooth="yes"/>
      <point x="74.6662" y="532.333"/>
      <point x="149.333" y="462.666"/>
    </contour>
  </outline>
</glyph>
<glyph name="questiondown" format="2">
  <advance width="562"/>
  <unicode hex="00BF"/>
  <outline>
    <contour>
      <point x="304.667" y="-159" type="qcurve" smooth="yes"/>
      <point x="236.333" y="-159"/>
      <point x="136" y="-116.667"/>
      <point x="81.0002" y="-43"/>
      <point x="81.0002" y="4.99989" type="qcurve" smooth="yes"/>
      <point x="81.0002" y="46.3332"/>
      <point x="108" y="105.667"/>
      <point x="151.334" y="151"/>
      <point x="198.334" y="190.333"/>
      <point x="241.667" y="232"/>
      <point x="268.667" y="284.333"/>
      <point x="268.667" y="321" type="qcurve"/>
      <point x="320.333" y="321" type="line"/>
      <point x="320.333" y="280"/>
      <point x="293.333" y="221.667"/>
      <point x="250.333" y="176.333"/>
      <point x="202.666" y="137"/>
      <point x="159.666" y="96"/>
      <point x="132.666" y="44.6666"/>
      <point x="132.666" y="9.99977" type="qcurve" smooth="yes"/>
      <point x="132.666" y="-41.3338"/>
      <point x="223.333" y="-114.001"/>
      <point x="307.333" y="-114.001" type="qcurve" smooth="yes"/>
      <point x="375" y="-114.001"/>
      <point x="474" y="-72.334"/>
      <point x="508.667" y="-31.334" type="qcurve"/>
      <point x="546" y="-60.3335" type="line"/>
      <point x="506" y="-107.333"/>
      <point x="385.667" y="-159"/>
    </contour>
    <contour>
      <point x="294.333" y="444.001" type="qcurve" smooth="yes"/>
      <point x="277.334" y="444.001"/>
      <point x="253" y="468.334"/>
      <point x="253" y="484.667" type="qcurve" smooth="yes"/>
      <point x="253" y="502"/>
      <point x="277.334" y="526"/>
      <point x="294.333" y="526" type="qcurve" smooth="yes"/>
      <point x="312.333" y="526"/>
      <point x="335.666" y="502"/>
      <point x="335.666" y="484.667" type="qcurve" smooth="yes"/>
      <point x="335.666" y="468.334"/>
      <point x="312.333" y="444.001"/>
    </contour>
  </outline>
</glyph>
<glyph name="AE" format="2">
  <advance width="1022"/>
  <unicode hex="00C6"/>
  <anchor x="680" y="700" name="t.uni0308"/>
  <anchor x="680" y="0" name="b.uni0324_3"/>
  <outline>
    <contour>
      <point x="5.00011" y="0" type="line"/>
      <point x="439" y="700" type="line"/>
      <point x="491" y="700" type="line"/>
      <point x="491" y="654.334" type="line"/>
      <point x="443" y="654.334" type="line"/>
      <point x="475.666" y="674" type="line"/>
      <point x="59.6659" y="0" type="line"/>
    </contour>
    <contour>
      <point x="162.666" y="196.667" type="line"/>
      <point x="171" y="240" type="line"/>
      <point x="491" y="240" type="line"/>
      <point x="491" y="196.667" type="line"/>
    </contour>
    <contour>
      <point x="519.999" y="378" type="line"/>
      <point x="898.666" y="378" type="line"/>
      <point x="898.666" y="333" type="line"/>
      <point x="519.666" y="333" type="line"/>
    </contour>
    <contour>
      <point x="526.332" y="45.6659" type="line"/>
      <point x="957.666" y="45.6659" type="line"/>
      <point x="957.666" y="0" type="line"/>
      <point x="475" y="0" type="line"/>
      <point x="475" y="700" type="line"/>
      <point x="942.999" y="700" type="line"/>
      <point x="942.999" y="654.334" type="line"/>
      <point x="526.332" y="654.334" type="line"/>
    </contour>
  </outline>
</glyph>
<glyph name="multiply" format="2">
  <advance width="569"/>
  <unicode hex="00D7"/>
  <outline>
    <contour>
      <point x="119.667" y="215" type="line"/>
      <point x="419.667" y="516.333" type="line"/>
      <point x="449.333" y="485" type="line"/>
      <point x="149" y="183.667" type="line"/>
    </contour>
    <contour>
      <point x="119.667" y="485" type="line"/>
      <point x="149" y="516.333" type="line"/>
      <point x="449.333" y="215" type="line"/>
      <point x="419.667" y="183.667" type="line"/>
    </contour>
  </outline>
</glyph>
<glyph name="Thorn" format="2">
  <advance width="715"/>
  <unicode hex="00DE"/>
  <outline>
    <contour>
      <point x="158.666" y="133.333" type="line"/>
      <point x="158.666" y="178.999" type="line"/>
      <point x="373.333" y="178.999" type="line" smooth="yes"/>
      <point x="485.667" y="178.999"/>
      <point x="603.334" y="279"/>
      <point x="603.334" y="369.667" type="qcurve" smooth="yes"/>
      <point x="603.334" y="460.667"/>
      <point x="485.667" y="559.667"/>
      <point x="373.333" y="559.667" type="qcurve" smooth="yes"/>
      <point x="158.666" y="559.667" type="line"/>
      <point x="158.666" y="605.333" type="line"/>
      <point x="373.333" y="605.333" type="line" smooth="yes"/>
      <point x="461.333" y="605.333"/>
      <point x="587.333" y="548.667"/>
      <point x="655" y="444"/>
      <point x="655" y="370" type="qcurve" smooth="yes"/>
      <point x="655" y="295.667"/>
      <point x="587.333" y="190"/>
      <point x="461.333" y="133.333"/>
      <point x="373.333" y="133.333" type="qcurve" smooth="yes"/>
    </contour>
    <contour>
      <point x="122" y="0" type="line"/>
      <point x="122" y="700" type="line"/>
      <point x="173.333" y="700" type="line"/>
      <point x="173.333" y="0" type="line"/>
    </contour>
  </outline>
</glyph>
<glyph name="germandbls" format="2">
  <advance width="661"/>
  <unicode hex="00DF"/>
  <outline>
    <contour>
      <point x="378.666" y="-3.99997" type="qcurve" smooth="yes"/>
      <point x="350" y="-3.99997"/>
      <point x="292.333" y="4.00003"/>
      <point x="269" y="11.3334" type="qcurve"/>
      <point x="278.666" y="54.666" type="line"/>
      <point x="300.666" y="47.666"/>
      <point x="348" y="40.3326"/>
      <point x="377" y="40.3326" type="qcurve" smooth="yes"/>
      <point x="430.667" y="40.3326"/>
      <point x="513.667" y="77.3328"/>
      <point x="561.667" y="148.333"/>
      <point x="561.667" y="198" type="qcurve" smooth="yes"/>
      <point x="561.667" y="273.333"/>
      <point x="456.667" y="354.667"/>
      <point x="373.333" y="354.667" type="qcurve" smooth="yes"/>
      <point x="314.667" y="354.667" type="line"/>
      <point x="314.667" y="398.333" type="line"/>
      <point x="404.333" y="398.666"/>
      <point x="505.334" y="485.667"/>
      <point x="505.334" y="559.334" type="qcurve" smooth="yes"/>
      <point x="505.334" y="622"/>
      <point x="417.333" y="701.667"/>
      <point x="338.333" y="701.667" type="qcurve" smooth="yes"/>
      <point x="255.666" y="701.667"/>
      <point x="155.666" y="603.334"/>
      <point x="155.666" y="505" type="qcurve" smooth="yes"/>
      <point x="155.666" y="0" type="line"/>
      <point x="105.667" y="0" type="line"/>
      <point x="105.667" y="502.333" type="line" smooth="yes"/>
      <point x="105.667" y="583"/>
      <point x="165.333" y="691"/>
      <point x="270" y="746"/>
      <point x="337.667" y="746" type="qcurve" smooth="yes"/>
      <point x="405" y="746"/>
      <point x="501.666" y="697.667"/>
      <point x="554" y="614"/>
      <point x="554" y="561" type="qcurve" smooth="yes"/>
      <point x="554" y="515.667"/>
      <point x="520.333" y="445.334"/>
      <point x="463.666" y="396.334"/>
      <point x="394.333" y="370.334"/>
      <point x="358.333" y="370.334" type="qcurve"/>
      <point x="384.999" y="392.333" type="line"/>
      <point x="451.333" y="392.333"/>
      <point x="553.666" y="346.333"/>
      <point x="612" y="259.333"/>
      <point x="612" y="197" type="qcurve" smooth="yes"/>
      <point x="612" y="134.333"/>
      <point x="550.333" y="44.3334"/>
      <point x="445" y="-3.99997"/>
    </contour>
  </outline>
</glyph>
<glyph name="ae" format="2">
  <advance width="983"/>
  <unicode hex="00E6"/>
  <anchor x="488" y="562" name="t.uni0308"/>
  <anchor x="481" y="0" name="b.uni0324_3"/>
  <outline>
    <contour>
      <point x="251.333" y="-3.99997" type="qcurve" smooth="yes"/>
      <point x="160.333" y="-3.99997"/>
      <point x="59.0002" y="79.3333"/>
      <point x="59.0002" y="146.667" type="qcurve" smooth="yes"/>
      <point x="59.0002" y="185"/>
      <point x="96.3334" y="249.333"/>
      <point x="181.667" y="289.666"/>
      <point x="254.333" y="289.666" type="qcurve" smooth="yes"/>
      <point x="442.667" y="289.666" type="line"/>
      <point x="442.667" y="250.667" type="line"/>
      <point x="255.333" y="250.667" type="line" smooth="yes"/>
      <point x="174.333" y="250.667"/>
      <point x="108.666" y="191.667"/>
      <point x="108.666" y="148" type="qcurve" smooth="yes"/>
      <point x="108.666" y="96.6663"/>
      <point x="185.666" y="36.6661"/>
      <point x="254.333" y="36.6661" type="qcurve" smooth="yes"/>
      <point x="335" y="36.6661"/>
      <point x="433.334" y="123.333"/>
      <point x="433.334" y="201.667" type="qcurve" smooth="yes"/>
      <point x="433.334" y="332.667" type="line" smooth="yes"/>
      <point x="433.334" y="405.667"/>
      <point x="354.334" y="481.667"/>
      <point x="278.333" y="481.667" type="qcurve" smooth="yes"/>
      <point x="224.333" y="481.667"/>
      <point x="130.667" y="445.334"/>
      <point x="97.6665" y="415.667" type="qcurve"/>
      <point x="73.3335" y="452.333" type="line"/>
      <point x="112" y="486.666"/>
      <point x="221.667" y="526"/>
      <point x="281.333" y="526" type="qcurve" smooth="yes"/>
      <point x="370" y="526"/>
      <point x="469" y="446.333"/>
      <point x="478" y="366.333" type="qcurve"/>
      <point x="458" y="374" type="line"/>
      <point x="486" y="443.333"/>
      <point x="605.333" y="526"/>
      <point x="684.333" y="526" type="qcurve" smooth="yes"/>
      <point x="737.667" y="526"/>
      <point x="828.333" y="488"/>
      <point x="896.333" y="418"/>
      <point x="933.666" y="323.667"/>
      <point x="933.666" y="266.667" type="qcurve" smooth="yes"/>
      <point x="933.666" y="262.333"/>
      <point x="933.333" y="254.667"/>
      <point x="932.666" y="250.667" type="qcurve"/>
      <point x="473.333" y="250.667" type="line"/>
      <point x="473.333" y="289.666" type="line"/>
      <point x="906" y="289.666" type="line"/>
      <point x="885.334" y="269" type="line"/>
      <point x="885.667" y="332.667"/>
      <point x="831.334" y="428.667"/>
      <point x="740.334" y="482.334"/>
      <point x="684" y="482.334" type="qcurve" smooth="yes"/>
      <point x="628" y="482.334"/>
      <point x="537" y="428.667"/>
      <point x="482.999" y="332"/>
      <point x="482.999" y="268" type="qcurve" smooth="yes"/>
      <point x="482.999" y="259.333" type="line" smooth="yes"/>
      <point x="482.999" y="195.333"/>
      <point x="539.666" y="96.3328"/>
      <point x="639.333" y="40.666"/>
      <point x="704" y="40.666" type="qcurve" smooth="yes"/>
      <point x="754" y="40.666"/>
      <point x="840.334" y="77.3327"/>
      <point x="871" y="114.333" type="qcurve"/>
      <point x="900.666" y="81.3334" type="line"/>
      <point x="865.667" y="39"/>
      <point x="762.667" y="-3.99997"/>
      <point x="702.667" y="-3.99997" type="qcurve" smooth="yes"/>
      <point x="644.667" y="-3.99997"/>
      <point x="540.667" y="37.0001"/>
      <point x="463.667" y="120"/>
      <point x="444" y="183.333" type="qcurve"/>
      <point x="476.333" y="181.667" type="line"/>
      <point x="468.666" y="114.333"/>
      <point x="402.333" y="33.0001"/>
      <point x="305.667" y="-3.99997"/>
    </contour>
  </outline>
</glyph>
<glyph name="eth" format="2">
  <advance width="627"/>
  <unicode hex="00F0"/>
  <outline>
    <contour>
      <point x="289.333" y="-4.99994" type="qcurve" smooth="yes"/>
      <point x="220" y="-4.99994"/>
      <point x="111.333" y="49.3334"/>
      <point x="49.3335" y="148.333"/>
      <point x="49.3335" y="214.667" type="qcurve" smooth="yes"/>
      <point x="49.3335" y="281"/>
      <point x="111.333" y="379.333"/>
      <point x="222.333" y="433.667"/>
      <point x="295" y="433.667" type="qcurve" smooth="yes"/>
      <point x="357.333" y="433.667"/>
      <point x="459.334" y="386"/>
      <point x="524.334" y="296"/>
      <point x="530.333" y="230.999" type="qcurve"/>
      <point x="510.667" y="226" type="line"/>
      <point x="521" y="260.333"/>
      <point x="527" y="331.667"/>
      <point x="527" y="357.667" type="qcurve" smooth="yes"/>
      <point x="527" y="459.667"/>
      <point x="460" y="598"/>
      <point x="337.667" y="668.667"/>
      <point x="254.667" y="668.667" type="qcurve" smooth="yes"/>
      <point x="212.333" y="668.667"/>
      <point x="136.667" y="656.334"/>
      <point x="106.667" y="647" type="qcurve"/>
      <point x="97.3335" y="690.666" type="line"/>
      <point x="127" y="699.333"/>
      <point x="209" y="712"/>
      <point x="254.667" y="712" type="qcurve" smooth="yes"/>
      <point x="351.667" y="712"/>
      <point x="496.666" y="629.666"/>
      <point x="577.333" y="467.667"/>
      <point x="577.333" y="348" type="qcurve" smooth="yes"/>
      <point x="577.333" y="241"/>
      <point x="511.666" y="82.3334"/>
      <point x="383.333" y="-4.99994"/>
    </contour>
    <contour>
      <point x="292" y="38.666" type="qcurve" smooth="yes"/>
      <point x="358.333" y="38.666"/>
      <point x="450" y="90.3329"/>
      <point x="497.334" y="171"/>
      <point x="497.334" y="214.667" type="qcurve" smooth="yes"/>
      <point x="497.334" y="264"/>
      <point x="446.334" y="343.334"/>
      <point x="357.667" y="390.001"/>
      <point x="299" y="390.001" type="qcurve" smooth="yes"/>
      <point x="206" y="390.001"/>
      <point x="99.6659" y="293.334"/>
      <point x="99.6659" y="214.667" type="qcurve" smooth="yes"/>
      <point x="99.6659" y="162.666"/>
      <point x="147.999" y="82.9995"/>
      <point x="235" y="38.666"/>
    </contour>
    <contour>
      <point x="150.333" y="504.667" type="line"/>
      <point x="135.333" y="541" type="line"/>
      <point x="518.333" y="705.333" type="line"/>
      <point x="533.333" y="668.667" type="line"/>
    </contour>
  </outline>
</glyph>
<glyph name="divide" format="2">
  <advance width="569"/>
  <unicode hex="00F7"/>
  <outline>
    <contour>
      <point x="72.0001" y="328.334" type="line"/>
      <point x="72.0001" y="371" type="line"/>
      <point x="496.666" y="371" type="line"/>
      <point x="496.666" y="328.334" type="line"/>
    </contour>
    <contour>
      <point x="284.333" y="124.001" type="qcurve" smooth="yes"/>
      <point x="269" y="124.001"/>
      <point x="246" y="147.334"/>
      <point x="246" y="163.667" type="qcurve" smooth="yes"/>
      <point x="246" y="180.667"/>
      <point x="269" y="202.666"/>
      <point x="284.333" y="202.666" type="qcurve" smooth="yes"/>
      <point x="300.666" y="202.666"/>
      <point x="323" y="180.667"/>
      <point x="323" y="163.667" type="qcurve" smooth="yes"/>
      <point x="323" y="147.334"/>
      <point x="300.666" y="124.001"/>
    </contour>
    <contour>
      <point x="284.333" y="497.334" type="qcurve" smooth="yes"/>
      <point x="269" y="497.334"/>
      <point x="246" y="520.667"/>
      <point x="246" y="536.666" type="qcurve" smooth="yes"/>
      <point x="246" y="553.666"/>
      <point x="269" y="575.999"/>
      <point x="284.333" y="575.999" type="qcurve" smooth="yes"/>
      <point x="300.666" y="575.999"/>
      <point x="323" y="553.666"/>
      <point x="323" y="536.666" type="qcurve" smooth="yes"/>
      <point x="323" y="520.667"/>
      <point x="300.666" y="497.334"/>
    </contour>
  </outline>
</glyph>
<glyph name="thorn" format="2">
  <advance width="675"/>
  <unicode hex="00FE"/>
  <anchor x="432" y="562" name="t.uni0308"/>
  <anchor x="432" y="0" name="b.uni0324_3"/>
  <outline>
    <contour>
      <point x="368.333" y="-3.99997" type="qcurve" smooth="yes"/>
      <point x="299.333" y="-3.99997"/>
      <point x="188.333" y="60.3334"/>
      <point x="123.333" y="179.333"/>
      <point x="123.333" y="260.667" type="qcurve" smooth="yes"/>
      <point x="123.333" y="343"/>
      <point x="187.667" y="461.666"/>
      <point x="298.667" y="526"/>
      <point x="368.333" y="526" type="qcurve" smooth="yes"/>
      <point x="442" y="526"/>
      <point x="558.666" y="458.667"/>
      <point x="626" y="339.333"/>
      <point x="626" y="260.667" type="qcurve" smooth="yes"/>
      <point x="626" y="182.667"/>
      <point x="558.666" y="63.3334"/>
      <point x="442" y="-3.99997"/>
    </contour>
    <contour>
      <point x="105.667" y="-194" type="line"/>
      <point x="105.667" y="742" type="line"/>
      <point x="155.666" y="742" type="line"/>
      <point x="155.666" y="350.666" type="line"/>
      <point x="145.666" y="259.667" type="line"/>
      <point x="155.666" y="168.667" type="line"/>
      <point x="155.666" y="-194" type="line"/>
    </contour>
    <contour>
      <point x="365.333" y="40.666" type="qcurve" smooth="yes"/>
      <point x="425.334" y="40.666"/>
      <point x="520.667" y="95.6661"/>
      <point x="575.667" y="195.666"/>
      <point x="575.667" y="260.667" type="qcurve" smooth="yes"/>
      <point x="575.667" y="326.667"/>
      <point x="520.667" y="425.667"/>
      <point x="425.334" y="481.334"/>
      <point x="365.333" y="481.334" type="qcurve" smooth="yes"/>
      <point x="305.333" y="481.334"/>
      <point x="210" y="425.667"/>
      <point x="154.999" y="326.667"/>
      <point x="154.999" y="260.667" type="qcurve" smooth="yes"/>
      <point x="154.999" y="195.666"/>
      <point x="210" y="95.6661"/>
      <point x="305.333" y="40.666"/>
    </contour>
  </outline>
</glyph>
<glyph name="eogonek" format="2">
  <advance width="597"/>
  <unicode hex="0119"/>
  <anchor x="355" y="562" name="t.uni0308"/>
  <anchor x="355" y="0" name="b.uni0324_3"/>
  <outline>
    <contour>
      <point x="425.666" y="-217.333" type="qcurve" smooth="yes"/>
      <point x="380.333" y="-217.333"/>
      <point x="323.333" y="-168"/>
      <point x="323.333" y="-125" type="qcurve" smooth="yes"/>
      <point x="323.333" y="-94.0002"/>
      <point x="359.333" y="-17.6668"/>
      <point x="411.667" y="25" type="qcurve"/>
      <point x="425" y="16.3334" type="line"/>
      <point x="400.667" y="6.66673"/>
      <point x="346.667" y="-3.99997"/>
      <point x="318" y="-3.99997" type="qcurve" smooth="yes"/>
      <point x="239" y="-3.99997"/>
      <point x="118" y="64"/>
      <point x="49.3335" y="184.333"/>
      <point x="49.3335" y="261.333" type="qcurve" smooth="yes"/>
      <point x="49.3335" y="339"/>
      <point x="114" y="458"/>
      <point x="227.667" y="526"/>
      <point x="299" y="526" type="qcurve" smooth="yes"/>
      <point x="370.333" y="526"/>
      <point x="483" y="459.667"/>
      <point x="547.666" y="341"/>
      <point x="547.666" y="263.333" type="qcurve" smooth="yes"/>
      <point x="547.666" y="260.333"/>
      <point x="547.333" y="252.667"/>
      <point x="547" y="248.667" type="qcurve"/>
      <point x="85.6661" y="248.667" type="line"/>
      <point x="85.6661" y="287.666" type="line"/>
      <point x="520.333" y="287.666" type="line"/>
      <point x="500.334" y="269" type="line"/>
      <point x="500.667" y="330.333"/>
      <point x="448" y="427"/>
      <point x="357.667" y="482.334"/>
      <point x="299" y="482.334" type="qcurve" smooth="yes"/>
      <point x="241" y="482.334"/>
      <point x="149.666" y="427"/>
      <point x="97.9993" y="330"/>
      <point x="97.9993" y="268" type="qcurve" smooth="yes"/>
      <point x="97.9993" y="259.333" type="line" smooth="yes"/>
      <point x="97.9993" y="195.333"/>
      <point x="154.666" y="96.3328"/>
      <point x="254.666" y="40.666"/>
      <point x="319" y="40.666" type="qcurve" smooth="yes"/>
      <point x="369" y="40.666"/>
      <point x="456" y="77.3327"/>
      <point x="486" y="114.333" type="qcurve"/>
      <point x="515.333" y="81.3334" type="line"/>
      <point x="508" y="72"/>
      <point x="489.333" y="55.6667"/>
      <point x="478.333" y="46" type="qcurve" smooth="yes"/>
      <point x="429.333" y="2.33324"/>
      <point x="379.666" y="-58.0002"/>
      <point x="362.333" y="-102"/>
      <point x="362.333" y="-122.667" type="qcurve" smooth="yes"/>
      <point x="362.333" y="-153.667"/>
      <point x="401" y="-183.667"/>
      <point x="430.333" y="-183.667" type="qcurve" smooth="yes"/>
      <point x="447" y="-183.667"/>
      <point x="480" y="-172.667"/>
      <point x="492" y="-163" type="qcurve"/>
      <point x="506" y="-191.667" type="line"/>
      <point x="489" y="-204.333"/>
      <point x="448.333" y="-217.333"/>
    </contour>
  </outline>
</glyph>
<glyph name="dotlessi" format="2">
  <advance width="261"/>
  <unicode hex="0131"/>
  <anchor x="180" y="562" name="t.uni0308"/>
  <anchor x="180" y="0" name="b.uni0324_3"/>
  <anchor x="338" y="0" name="m.uni0328_4"/>
  <outline>
    <contour>
      <point x="105.667" y="0" type="line"/>
      <point x="105.667" y="522" type="line"/>
      <point x="155.666" y="522" type="line"/>
      <point x="155.666" y="0" type="line"/>
    </contour>
  </outline>
</glyph>
<glyph name="IJ" format="2">
  <advance width="716"/>
  <unicode hex="0132"/>
  <anchor x="153" y="700" name="t.uni0308"/>
  <outline>
    <contour>
      <point x="327" y="-4.99994" type="qcurve" smooth="yes"/>
      <point x="262.667" y="-4.99994"/>
      <point x="150" y="33"/>
      <point x="107" y="62.3333" type="qcurve"/>
      <point x="129.667" y="103.666" type="line"/>
      <point x="171" y="74.3326"/>
      <point x="272.667" y="41.6659"/>
      <point x="328.333" y="41.6659" type="qcurve" smooth="yes"/>
      <point x="432" y="41.6659"/>
      <point x="549.001" y="168"/>
      <point x="549.001" y="297" type="qcurve" smooth="yes"/>
      <point x="549.001" y="700" type="line"/>
      <point x="600.333" y="700" type="line"/>
      <point x="600.333" y="298.333" type="line" smooth="yes"/>
      <point x="600.333" y="197.667"/>
      <point x="532" y="63"/>
      <point x="410" y="-4.99994"/>
    </contour>
    <contour>
      <point x="116" y="297.333" type="line"/>
      <point x="116" y="700" type="line"/>
      <point x="167.333" y="700" type="line"/>
      <point x="167.333" y="297.333" type="line"/>
    </contour>
  </outline>
</glyph>
<glyph name="kgreenlandic" format="2">
  <advance width="576"/>
  <unicode hex="0138"/>
  <anchor x="347" y="562" name="t.uni0308"/>
  <anchor x="347" y="0" name="b.uni0324_3"/>
  <outline>
    <contour>
      <point x="144" y="143.667" type="line"/>
      <point x="145" y="206.666" type="line"/>
      <point x="490.334" y="522" type="line"/>
      <point x="553.999" y="522" type="line"/>
      <point x="325.333" y="306.667" type="line"/>
      <point x="295" y="282" type="line"/>
    </contour>
    <contour>
      <point x="105.667" y="0" type="line"/>
      <point x="105.667" y="522" type="line"/>
      <point x="155.666" y="522" type="line"/>
      <point x="155.666" y="0" type="line"/>
    </contour>
    <contour>
      <point x="514.334" y="0" type="line"/>
      <point x="285.667" y="285.667" type="line"/>
      <point x="319.666" y="323.333" type="line"/>
      <point x="576.333" y="0" type="line"/>
    </contour>
  </outline>
</glyph>
<glyph name="Eng" format="2">
  <advance width="814"/>
  <unicode hex="014A"/>
  <outline>
    <contour>
      <point x="122" y="0" type="line"/>
      <point x="122" y="700" type="line"/>
      <point x="164.666" y="700" type="line"/>
      <point x="664.334" y="63.3322" type="line"/>
      <point x="649.667" y="0" type="line"/>
      <point x="150" y="636.668" type="line"/>
      <point x="173.333" y="636.668" type="line"/>
      <point x="173.333" y="0" type="line"/>
    </contour>
    <contour>
      <point x="502.667" y="-198" type="qcurve" smooth="yes"/>
      <point x="449.667" y="-198"/>
      <point x="356.334" y="-150"/>
      <point x="326.334" y="-107" type="qcurve"/>
      <point x="354" y="-71.3338" type="line"/>
      <point x="381.333" y="-110.001"/>
      <point x="457.667" y="-152.667"/>
      <point x="503.334" y="-152.667" type="qcurve" smooth="yes"/>
      <point x="641.001" y="-152.667"/>
      <point x="641.001" y="12.6664" type="qcurve" smooth="yes"/>
      <point x="641.001" y="700" type="line"/>
      <point x="692.333" y="700" type="line"/>
      <point x="692.333" y="16.6662" type="line" smooth="yes"/>
      <point x="692.333" y="-91.3335"/>
      <point x="597" y="-198"/>
    </contour>
  </outline>
</glyph>
<glyph name="eng" format="2">
  <advance width="673"/>
  <unicode hex="014B"/>
  <outline>
    <contour>
      <point x="360.666" y="526" type="qcurve" smooth="yes"/>
      <point x="425" y="526"/>
      <point x="519.666" y="476.667"/>
      <point x="573" y="378.333"/>
      <point x="573" y="305" type="qcurve" smooth="yes"/>
      <point x="573" y="-52.0005" type="line" smooth="yes"/>
      <point x="573" y="-118.334"/>
      <point x="500.333" y="-198"/>
      <point x="432.333" y="-198" type="qcurve" smooth="yes"/>
      <point x="401" y="-198"/>
      <point x="343" y="-181"/>
      <point x="324" y="-163" type="qcurve"/>
      <point x="344.667" y="-125.667" type="line"/>
      <point x="377" y="-154.667"/>
      <point x="429.334" y="-154.667" type="qcurve" smooth="yes"/>
      <point x="474.667" y="-154.667"/>
      <point x="523" y="-101.001"/>
      <point x="523" y="-49.6671" type="qcurve" smooth="yes"/>
      <point x="523" y="300.667" type="line" smooth="yes"/>
      <point x="523" y="389.334"/>
      <point x="434" y="480.667"/>
      <point x="353.667" y="480.667" type="qcurve" smooth="yes"/>
      <point x="292.666" y="480.667"/>
      <point x="203.333" y="431.334"/>
      <point x="155.666" y="340.667"/>
      <point x="155.666" y="278" type="qcurve" smooth="yes"/>
      <point x="155.666" y="0" type="line"/>
      <point x="105.667" y="0" type="line"/>
      <point x="105.667" y="522" type="line"/>
      <point x="153.999" y="522" type="line"/>
      <point x="153.999" y="376.666" type="line"/>
      <point x="146.666" y="393.333" type="line"/>
      <point x="171" y="455.333"/>
      <point x="281.333" y="526"/>
    </contour>
  </outline>
</glyph>
<glyph name="OE" format="2">
  <advance width="1117"/>
  <unicode hex="0152"/>
  <anchor x="676" y="700" name="t.uni0308"/>
  <anchor x="676" y="0" name="b.uni0324_3"/>
  <outline>
    <contour>
      <point x="427.333" y="0" type="line" smooth="yes"/>
      <point x="316.333" y="0"/>
      <point x="148.667" y="89.3334"/>
      <point x="54.6668" y="247"/>
      <point x="54.6668" y="349" type="qcurve" smooth="yes"/>
      <point x="54.6668" y="451.333"/>
      <point x="148.667" y="610"/>
      <point x="316.333" y="700"/>
      <point x="427.333" y="700" type="qcurve" smooth="yes"/>
      <point x="584.333" y="700" type="line"/>
      <point x="584.333" y="654.334" type="line"/>
      <point x="429.333" y="654.334" type="line" smooth="yes"/>
      <point x="332" y="654.334"/>
      <point x="186.666" y="576.001"/>
      <point x="106.333" y="438.334"/>
      <point x="106.333" y="349.333" type="qcurve" smooth="yes"/>
      <point x="106.333" y="260"/>
      <point x="186.666" y="123.333"/>
      <point x="332" y="45.6659"/>
      <point x="429.333" y="45.6659" type="qcurve" smooth="yes"/>
      <point x="584.333" y="45.6659" type="line"/>
      <point x="584.333" y="0" type="line"/>
    </contour>
    <contour>
      <point x="615.666" y="378" type="line"/>
      <point x="994.333" y="378" type="line"/>
      <point x="994.333" y="333" type="line"/>
      <point x="615.666" y="333" type="line"/>
    </contour>
    <contour>
      <point x="621.999" y="45.6659" type="line"/>
      <point x="1053.33" y="45.6659" type="line"/>
      <point x="1053.33" y="0" type="line"/>
      <point x="570.667" y="0" type="line"/>
      <point x="570.667" y="700" type="line"/>
      <point x="1038.67" y="700" type="line"/>
      <point x="1038.67" y="654.334" type="line"/>
      <point x="621.999" y="654.334" type="line"/>
    </contour>
  </outline>
</glyph>
<glyph name="oe" format="2">
  <advance width="1069"/>
  <unicode hex="0153"/>
  <anchor x="537" y="562" name="t.uni0308"/>
  <anchor x="537" y="0" name="b.uni0324_3"/>
  <outline>
    <contour>
      <point x="310" y="-3.99997" type="qcurve" smooth="yes"/>
      <point x="235" y="-3.99997"/>
      <point x="117.667" y="64"/>
      <point x="49.3335" y="184.333"/>
      <point x="49.3335" y="261.333" type="qcurve" smooth="yes"/>
      <point x="49.3335" y="339.333"/>
      <point x="117.667" y="458"/>
      <point x="235" y="526"/>
      <point x="310" y="526" type="qcurve" smooth="yes"/>
      <point x="385" y="526"/>
      <point x="500" y="458"/>
      <point x="565.666" y="339.333"/>
      <point x="565.666" y="261.333" type="qcurve" smooth="yes"/>
      <point x="565.666" y="184.333"/>
      <point x="500" y="64"/>
      <point x="385" y="-3.99997"/>
    </contour>
    <contour>
      <point x="310" y="40.666" type="qcurve" smooth="yes"/>
      <point x="370.333" y="40.666"/>
      <point x="465.667" y="96.3328"/>
      <point x="520.334" y="196.333"/>
      <point x="520.334" y="261.333" type="qcurve" smooth="yes"/>
      <point x="520.334" y="327.333"/>
      <point x="465.667" y="426.334"/>
      <point x="370.333" y="481.334"/>
      <point x="310" y="481.334" type="qcurve" smooth="yes"/>
      <point x="250" y="481.334"/>
      <point x="155.333" y="426.334"/>
      <point x="99.6659" y="327.333"/>
      <point x="99.6659" y="261.333" type="qcurve" smooth="yes"/>
      <point x="99.6659" y="196.333"/>
      <point x="155.333" y="96.3328"/>
      <point x="250" y="40.666"/>
    </contour>
    <contour>
      <point x="789.667" y="-3.99997" type="qcurve" smooth="yes"/>
      <point x="711.334" y="-3.99997"/>
      <point x="591" y="64"/>
      <point x="524" y="184.333"/>
      <point x="524" y="261.333" type="qcurve" smooth="yes"/>
      <point x="524" y="339"/>
      <point x="587.667" y="458"/>
      <point x="699.334" y="526"/>
      <point x="770.667" y="526" type="qcurve" smooth="yes"/>
      <point x="842" y="526"/>
      <point x="954.667" y="459.667"/>
      <point x="1019.33" y="341"/>
      <point x="1019.33" y="263.333" type="qcurve" smooth="yes"/>
      <point x="1019.33" y="260.333"/>
      <point x="1019" y="252.667"/>
      <point x="1018.67" y="248.667" type="qcurve"/>
      <point x="557.333" y="248.667" type="line"/>
      <point x="557.333" y="287.666" type="line"/>
      <point x="992" y="287.666" type="line"/>
      <point x="972.001" y="269" type="line"/>
      <point x="972.334" y="330.333"/>
      <point x="919.667" y="427"/>
      <point x="829.334" y="482.334"/>
      <point x="770.667" y="482.334" type="qcurve" smooth="yes"/>
      <point x="712.667" y="482.334"/>
      <point x="621.666" y="427"/>
      <point x="569.666" y="330"/>
      <point x="569.666" y="268" type="qcurve" smooth="yes"/>
      <point x="569.666" y="259.333" type="line" smooth="yes"/>
      <point x="569.666" y="195.333"/>
      <point x="626.333" y="96.3328"/>
      <point x="727" y="40.666"/>
      <point x="790.667" y="40.666" type="qcurve" smooth="yes"/>
      <point x="840.667" y="40.666"/>
      <point x="927.667" y="77.3327"/>
      <point x="957.667" y="114.333" type="qcurve"/>
      <point x="987" y="81.3334" type="line"/>
      <point x="952.333" y="39.3334"/>
      <point x="849.667" y="-3.99997"/>
    </contour>
  </outline>
</glyph>
<glyph name="Uogonek" format="2">
  <advance width="793"/>
  <unicode hex="0172"/>
  <outline>
    <contour>
      <point x="626.001" y="700" type="line"/>
      <point x="676.666" y="700" type="line"/>
      <point x="676.666" y="296.667" type="line" smooth="yes"/>
      <point x="676.666" y="175"/>
      <point x="581.666" y="36"/>
      <point x="498" y="8" type="qcurve" smooth="yes"/>
      <point x="434" y="-13.6667"/>
      <point x="369" y="-61.0001"/>
      <point x="346.666" y="-105.667"/>
      <point x="346.666" y="-124.333" type="qcurve" smooth="yes"/>
      <point x="346.666" y="-153.667"/>
      <point x="385.333" y="-183.667"/>
      <point x="414.666" y="-183.667" type="qcurve" smooth="yes"/>
      <point x="431.333" y="-183.667"/>
      <point x="464.333" y="-172.667"/>
      <point x="476.333" y="-163" type="qcurve"/>
      <point x="490.333" y="-191.667" type="line"/>
      <point x="473.333" y="-204.333"/>
      <point x="432.666" y="-217.333"/>
      <point x="410" y="-217.333" type="qcurve" smooth="yes"/>
      <point x="364.333" y="-217.333"/>
      <point x="307.667" y="-168.667"/>
      <point x="307.667" y="-127.333" type="qcurve" smooth="yes"/>
      <point x="307.667" y="-104"/>
      <point x="331" y="-52.6669"/>
      <point x="391.333" y="-0.666877"/>
      <point x="447" y="20.9998" type="qcurve"/>
      <point x="436" y="-2.99994" type="line"/>
      <point x="426.667" y="-3.99994"/>
      <point x="406" y="-4.99994"/>
      <point x="396.333" y="-4.99994" type="qcurve" smooth="yes"/>
      <point x="266" y="-4.99994"/>
      <point x="116" y="147"/>
      <point x="116" y="296.667" type="qcurve" smooth="yes"/>
      <point x="116" y="700" type="line"/>
      <point x="167.333" y="700" type="line"/>
      <point x="167.333" y="298.667" type="line" smooth="yes"/>
      <point x="167.333" y="168"/>
      <point x="287.333" y="41.6659"/>
      <point x="396.667" y="41.6659" type="qcurve" smooth="yes"/>
      <point x="506" y="41.6659"/>
      <point x="626.001" y="168"/>
      <point x="626.001" y="298.667" type="qcurve" smooth="yes"/>
    </contour>
  </outline>
</glyph>
<glyph name="longs" format="2">
  <advance width="286"/>
  <unicode hex="017F"/>
  <outline>
    <contour>
      <point x="126.667" y="0" type="line"/>
      <point x="126.667" y="602" type="line" smooth="yes"/>
      <point x="126.667" y="667"/>
      <point x="201.667" y="746"/>
      <point x="271.333" y="746" type="qcurve" smooth="yes"/>
      <point x="300.666" y="746"/>
      <point x="356.333" y="729.333"/>
      <point x="375" y="711.667" type="qcurve"/>
      <point x="355" y="674.334" type="line"/>
      <point x="339.666" y="688.667"/>
      <point x="297.333" y="703.334"/>
      <point x="274" y="703.334" type="qcurve" smooth="yes"/>
      <point x="226.333" y="703.334"/>
      <point x="176.666" y="649.667"/>
      <point x="176.666" y="598.334" type="qcurve" smooth="yes"/>
      <point x="176.666" y="0" type="line"/>
    </contour>
    <contour>
      <point x="30.3334" y="479.334" type="line"/>
      <point x="30.3334" y="522" type="line"/>
      <point x="155" y="522" type="line"/>
      <point x="155" y="479.334" type="line"/>
    </contour>
  </outline>
</glyph>
<glyph name="uni018F" format="2">
  <advance width="816"/>
  <unicode hex="018F"/>
  <outline>
    <contour>
      <point x="408.333" y="-4.99994" type="qcurve" smooth="yes"/>
      <point x="332.333" y="-4.99994"/>
      <point x="202.667" y="48.3334"/>
      <point x="107.333" y="145"/>
      <point x="54.6668" y="274.667"/>
      <point x="54.6668" y="351.667" type="qcurve" smooth="yes"/>
      <point x="54.6668" y="368.666" type="line"/>
      <point x="717.667" y="368.666" type="line"/>
      <point x="717.667" y="323.667" type="line"/>
      <point x="88.3328" y="323.667" type="line"/>
      <point x="105.999" y="350" type="line"/>
      <point x="105.999" y="283"/>
      <point x="150.666" y="170.333"/>
      <point x="232" y="86.9994"/>
      <point x="342.333" y="40.666"/>
      <point x="408.333" y="40.666" type="qcurve" smooth="yes"/>
      <point x="471.667" y="40.666"/>
      <point x="581.334" y="86.6661"/>
      <point x="663.667" y="170"/>
      <point x="710.001" y="281.667"/>
      <point x="710.001" y="347.333" type="qcurve" smooth="yes"/>
      <point x="710.001" y="352.333" type="line" smooth="yes"/>
      <point x="710.001" y="417.667"/>
      <point x="663.001" y="529"/>
      <point x="578" y="611.667"/>
      <point x="465.333" y="658.334"/>
      <point x="399.667" y="658.334" type="qcurve" smooth="yes"/>
      <point x="357.333" y="658.334"/>
      <point x="277" y="641.667"/>
      <point x="205" y="605.667"/>
      <point x="173" y="577.001" type="qcurve"/>
      <point x="142.667" y="613.333" type="line"/>
      <point x="175" y="643.667"/>
      <point x="255.334" y="684"/>
      <point x="349" y="705"/>
      <point x="400" y="705" type="qcurve" smooth="yes"/>
      <point x="478" y="705"/>
      <point x="610" y="652"/>
      <point x="707.667" y="556.333"/>
      <point x="761.667" y="426.667"/>
      <point x="761.667" y="351" type="qcurve" smooth="yes"/>
      <point x="761.667" y="276.333"/>
      <point x="707.667" y="147.333"/>
      <point x="611" y="49.6667"/>
      <point x="483" y="-4.99994"/>
    </contour>
  </outline>
</glyph>
<glyph name="florin" format="2">
  <advance width="428"/>
  <unicode hex="0192"/>
  <outline>
    <contour>
      <point x="15.9999" y="-198" type="qcurve" smooth="yes"/>
      <point x="-15.3334" y="-198"/>
      <point x="-71" y="-180.667"/>
      <point x="-88.3333" y="-162.667" type="qcurve"/>
      <point x="-65.0002" y="-125.667" type="line"/>
      <point x="-35.6668" y="-154.667"/>
      <point x="15" y="-154.667" type="qcurve" smooth="yes"/>
      <point x="60.6668" y="-154.667"/>
      <point x="116.334" y="-101.001"/>
      <point x="122.667" y="-49.6671" type="qcurve" smooth="yes"/>
      <point x="203.334" y="602" type="line" smooth="yes"/>
      <point x="211" y="667"/>
      <point x="295" y="746"/>
      <point x="363.333" y="746" type="qcurve" smooth="yes"/>
      <point x="392.666" y="746"/>
      <point x="447.666" y="729"/>
      <point x="464.666" y="710.667" type="qcurve"/>
      <point x="440.333" y="673.667" type="line"/>
      <point x="426.667" y="688.001"/>
      <point x="386.333" y="702.667"/>
      <point x="363" y="702.667" type="qcurve" smooth="yes"/>
      <point x="315" y="702.667"/>
      <point x="259.333" y="649.001"/>
      <point x="252" y="597.667" type="qcurve" smooth="yes"/>
      <point x="240.666" y="510.333" type="line"/>
      <point x="239.333" y="486.334" type="line"/>
      <point x="172.666" y="-54.0005" type="line" smooth="yes"/>
      <point x="164.666" y="-119"/>
      <point x="82.9997" y="-198"/>
    </contour>
    <contour>
      <point x="91.0003" y="474.334" type="line"/>
      <point x="96.6668" y="517" type="line"/>
      <point x="408.666" y="517" type="line"/>
      <point x="403.333" y="474.334" type="line"/>
    </contour>
  </outline>
</glyph>
<glyph name="Ohorn" format="2">
  <advance width="838"/>
  <unicode hex="01A0"/>
  <anchor x="427" y="700" name="t.uni0308"/>
  <anchor x="427" y="0" name="b.uni0324_3"/>
  <outline>
    <contour>
      <point x="419" y="-4.99994" type="qcurve" smooth="yes"/>
      <point x="340.667" y="-4.99994"/>
      <point x="207.667" y="48.3334"/>
      <point x="109.333" y="144.667"/>
      <point x="54.6668" y="273.667"/>
      <point x="54.6668" y="350" type="qcurve" smooth="yes"/>
      <point x="54.6668" y="426.667"/>
      <point x="109.333" y="555.667"/>
      <point x="208" y="652"/>
      <point x="341.667" y="705"/>
      <point x="420.333" y="705" type="qcurve" smooth="yes"/>
      <point x="483.333" y="705"/>
      <point x="576.333" y="690.333"/>
      <point x="622.667" y="690.333" type="qcurve" smooth="yes"/>
      <point x="674.667" y="690.333"/>
      <point x="726.667" y="729.667"/>
      <point x="726.667" y="768.667" type="qcurve" smooth="yes"/>
      <point x="726.667" y="788"/>
      <point x="714.667" y="820.333"/>
      <point x="706.667" y="834" type="qcurve"/>
      <point x="741.333" y="848" type="line"/>
      <point x="752.666" y="831.667"/>
      <point x="765.666" y="790"/>
      <point x="765.666" y="768" type="qcurve" smooth="yes"/>
      <point x="765.666" y="712.334"/>
      <point x="692" y="654"/>
      <point x="621" y="654" type="qcurve" smooth="yes"/>
      <point x="600" y="654"/>
      <point x="541.667" y="659.334"/>
      <point x="517.001" y="663.334" type="qcurve"/>
      <point x="573.999" y="671" type="line"/>
      <point x="637.333" y="645.667"/>
      <point x="731.333" y="550"/>
      <point x="783" y="423"/>
      <point x="783" y="350" type="qcurve" smooth="yes"/>
      <point x="783" y="273.333"/>
      <point x="728.333" y="144.333"/>
      <point x="630" y="48.0001"/>
      <point x="497.333" y="-4.99994"/>
    </contour>
    <contour>
      <point x="419" y="41.6659" type="qcurve" smooth="yes"/>
      <point x="485.667" y="41.6659"/>
      <point x="599.667" y="88.666"/>
      <point x="684.334" y="172.333"/>
      <point x="731.334" y="284.333"/>
      <point x="731.334" y="350" type="qcurve" smooth="yes"/>
      <point x="731.334" y="415.667"/>
      <point x="684.334" y="527.667"/>
      <point x="599.667" y="611.334"/>
      <point x="485.667" y="658.334"/>
      <point x="419" y="658.334" type="qcurve" smooth="yes"/>
      <point x="352.333" y="658.334"/>
      <point x="238" y="611.667"/>
      <point x="153.333" y="527.667"/>
      <point x="106.333" y="416"/>
      <point x="106.333" y="350" type="qcurve" smooth="yes"/>
      <point x="106.333" y="284.333"/>
      <point x="153.333" y="172.333"/>
      <point x="238" y="88.3327"/>
      <point x="352.333" y="41.6659"/>
    </contour>
  </outline>
</glyph>
<glyph name="ohorn" format="2">
  <advance width="620"/>
  <unicode hex="01A1"/>
  <anchor x="354" y="562" name="t.uni0308"/>
  <anchor x="354" y="0" name="b.uni0324_3"/>
  <outline>
    <contour>
      <point x="310" y="-3.99997" type="qcurve" smooth="yes"/>
      <point x="235" y="-3.99997"/>
      <point x="117.667" y="64"/>
      <point x="49.3335" y="184.333"/>
      <point x="49.3335" y="261.333" type="qcurve" smooth="yes"/>
      <point x="49.3335" y="339.333"/>
      <point x="117.667" y="458"/>
      <point x="235.333" y="526"/>
      <point x="310.333" y="526" type="qcurve" smooth="yes"/>
      <point x="338" y="526"/>
      <point x="375" y="523.667"/>
      <point x="412" y="520.333"/>
      <point x="437" y="520.333" type="qcurve" smooth="yes"/>
      <point x="481" y="520.333"/>
      <point x="522" y="563.333"/>
      <point x="522" y="591.333" type="qcurve" smooth="yes"/>
      <point x="522" y="610.667"/>
      <point x="510" y="643"/>
      <point x="501.667" y="656.667" type="qcurve"/>
      <point x="536.333" y="670.666" type="line"/>
      <point x="547.333" y="654.333"/>
      <point x="561" y="612.667"/>
      <point x="561" y="590.667" type="qcurve" smooth="yes"/>
      <point x="561" y="561"/>
      <point x="532.333" y="512"/>
      <point x="476.667" y="483.667"/>
      <point x="434.667" y="483.667" type="qcurve" smooth="yes"/>
      <point x="424.333" y="483.667"/>
      <point x="402" y="485.667"/>
      <point x="386.334" y="487.334" type="qcurve"/>
      <point x="402.666" y="510" type="line"/>
      <point x="478" y="483.667"/>
      <point x="570.666" y="352"/>
      <point x="570.666" y="261.333" type="qcurve" smooth="yes"/>
      <point x="570.666" y="184.333"/>
      <point x="503.333" y="64"/>
      <point x="385" y="-3.99997"/>
    </contour>
    <contour>
      <point x="310" y="40.666" type="qcurve" smooth="yes"/>
      <point x="370" y="40.666"/>
      <point x="465.334" y="96.3328"/>
      <point x="520.334" y="196.333"/>
      <point x="520.334" y="261.333" type="qcurve" smooth="yes"/>
      <point x="520.334" y="327.333"/>
      <point x="465.667" y="426.334"/>
      <point x="370.333" y="481.334"/>
      <point x="310" y="481.334" type="qcurve" smooth="yes"/>
      <point x="250" y="481.334"/>
      <point x="155.333" y="426.334"/>
      <point x="99.6659" y="327.333"/>
      <point x="99.6659" y="261.333" type="qcurve" smooth="yes"/>
      <point x="99.6659" y="196.333"/>
      <point x="155.333" y="96.3328"/>
      <point x="250" y="40.666"/>
    </contour>
  </outline>
</glyph>
<glyph name="uni01E5" format="2">
  <advance width="686"/>
  <unicode hex="01E5"/>
  <outline>
    <contour>
      <point x="323" y="-198" type="qcurve" smooth="yes"/>
      <point x="252" y="-198"/>
      <point x="124" y="-154.333"/>
      <point x="84.3336" y="-115" type="qcurve"/>
      <point x="111.333" y="-77.3339" type="line"/>
      <point x="150" y="-113.334"/>
      <point x="259.333" y="-153.334"/>
      <point x="321.667" y="-153.334" type="qcurve" smooth="yes"/>
      <point x="426.667" y="-153.334"/>
      <point x="526.334" y="-54.6672"/>
      <point x="526.334" y="50.3331" type="qcurve" smooth="yes"/>
      <point x="526.334" y="195.334" type="line"/>
      <point x="536.334" y="273" type="line"/>
      <point x="528" y="350.999" type="line"/>
      <point x="528" y="522" type="line"/>
      <point x="576.333" y="522" type="line"/>
      <point x="576.333" y="56.333" type="line" smooth="yes"/>
      <point x="576.333" y="-74.6668"/>
      <point x="449" y="-198"/>
    </contour>
    <contour>
      <point x="292.333" y="-64.6668" type="line"/>
      <point x="292.333" y="-27.334" type="line"/>
      <point x="640.333" y="-27.0007" type="line"/>
      <point x="640.333" y="-64.6668" type="line"/>
    </contour>
    <contour>
      <point x="309.333" y="27.333" type="qcurve" smooth="yes"/>
      <point x="235.333" y="27.333"/>
      <point x="117.667" y="91.3331"/>
      <point x="49.3335" y="204.333"/>
      <point x="49.3335" y="277.333" type="qcurve" smooth="yes"/>
      <point x="49.3335" y="351"/>
      <point x="117.667" y="463"/>
      <point x="235.333" y="526"/>
      <point x="309.333" y="526" type="qcurve" smooth="yes"/>
      <point x="380.333" y="526"/>
      <point x="492.667" y="466"/>
      <point x="558.667" y="355"/>
      <point x="558.667" y="277.333" type="qcurve" smooth="yes"/>
      <point x="558.667" y="200.333"/>
      <point x="492.667" y="87.9998"/>
      <point x="380.333" y="27.333"/>
    </contour>
    <contour>
      <point x="313.333" y="70.6657" type="qcurve" smooth="yes"/>
      <point x="375.667" y="70.6657"/>
      <point x="471.667" y="122.999"/>
      <point x="527" y="216.666"/>
      <point x="527" y="277.333" type="qcurve" smooth="yes"/>
      <point x="527" y="338.667"/>
      <point x="471.667" y="430.667"/>
      <point x="375.667" y="483.001"/>
      <point x="313.333" y="483.001" type="qcurve" smooth="yes"/>
      <point x="252" y="483.001"/>
      <point x="154.999" y="430.667"/>
      <point x="99.6659" y="338.667"/>
      <point x="99.6659" y="277.333" type="qcurve" smooth="yes"/>
      <point x="99.6659" y="216.666"/>
      <point x="154.999" y="122.999"/>
      <point x="252" y="70.6657"/>
    </contour>
  </outline>
</glyph>
<glyph name="uni01EA" format="2">
  <advance width="838"/>
  <unicode hex="01EA"/>
  <anchor x="427" y="700" name="t.uni0308"/>
  <outline>
    <contour>
      <point x="419.333" y="-217.333" type="qcurve" smooth="yes"/>
      <point x="373.667" y="-217.333"/>
      <point x="317" y="-168.667"/>
      <point x="317" y="-127.333" type="qcurve" smooth="yes"/>
      <point x="317" y="-104"/>
      <point x="340.667" y="-52.3336"/>
      <point x="402" y="-0.333553"/>
      <point x="456.333" y="22.3332" type="qcurve"/>
      <point x="446.667" y="-2.99994" type="line"/>
      <point x="439" y="-3.99994"/>
      <point x="425.667" y="-4.99994"/>
      <point x="419" y="-4.99994" type="qcurve" smooth="yes"/>
      <point x="340.667" y="-4.99994"/>
      <point x="208" y="48.0001"/>
      <point x="109.333" y="144.333"/>
      <point x="54.6668" y="273.333"/>
      <point x="54.6668" y="350" type="qcurve" smooth="yes"/>
      <point x="54.6668" y="426.667"/>
      <point x="109.333" y="555.667"/>
      <point x="208" y="652"/>
      <point x="340.667" y="705"/>
      <point x="419" y="705" type="qcurve" smooth="yes"/>
      <point x="497.333" y="705"/>
      <point x="630" y="652"/>
      <point x="728.333" y="555.667"/>
      <point x="783" y="426.667"/>
      <point x="783" y="350" type="qcurve" smooth="yes"/>
      <point x="783" y="259"/>
      <point x="708.666" y="115.333"/>
      <point x="585" y="22.6666"/>
      <point x="509.333" y="6" type="qcurve" smooth="yes"/>
      <point x="467" y="-3.3333"/>
      <point x="397.333" y="-42.3333"/>
      <point x="356" y="-94.0001"/>
      <point x="356" y="-124.333" type="qcurve" smooth="yes"/>
      <point x="356" y="-153.667"/>
      <point x="394.666" y="-183.667"/>
      <point x="424" y="-183.667" type="qcurve" smooth="yes"/>
      <point x="440.666" y="-183.667"/>
      <point x="473.666" y="-172.667"/>
      <point x="485.666" y="-163" type="qcurve"/>
      <point x="499.666" y="-191.667" type="line"/>
      <point x="482.666" y="-204.333"/>
      <point x="442" y="-217.333"/>
    </contour>
    <contour>
      <point x="419" y="41.6659" type="qcurve" smooth="yes"/>
      <point x="485.667" y="41.6659"/>
      <point x="599.667" y="87.666"/>
      <point x="684.334" y="171.666"/>
      <point x="731.334" y="283.667"/>
      <point x="731.334" y="350" type="qcurve" smooth="yes"/>
      <point x="731.334" y="416.667"/>
      <point x="684.334" y="528.334"/>
      <point x="599.667" y="612.334"/>
      <point x="485.667" y="658.334"/>
      <point x="419" y="658.334" type="qcurve" smooth="yes"/>
      <point x="352.333" y="658.334"/>
      <point x="238" y="612.334"/>
      <point x="153.333" y="528.334"/>
      <point x="106.333" y="416.667"/>
      <point x="106.333" y="350" type="qcurve" smooth="yes"/>
      <point x="106.333" y="283.667"/>
      <point x="153.333" y="171.666"/>
      <point x="238" y="87.666"/>
      <point x="352.333" y="41.6659"/>
    </contour>
  </outline>
</glyph>
<glyph name="uni01EB" format="2">
  <advance width="620"/>
  <unicode hex="01EB"/>
  <anchor x="350" y="562" name="t.uni0308"/>
  <anchor x="350" y="281" name="t.uni0307_1"/>
  <anchor x="417" y="561" name="t.uni031B_2"/>
  <anchor x="350" y="0" name="b.uni0324_3"/>
  <outline>
    <contour>
      <point x="339" y="-217.333" type="qcurve" smooth="yes"/>
      <point x="293.333" y="-217.333"/>
      <point x="236.667" y="-168.667"/>
      <point x="236.667" y="-128" type="qcurve" smooth="yes"/>
      <point x="236.667" y="-104.333"/>
      <point x="259" y="-53.0002"/>
      <point x="317" y="-1.00023"/>
      <point x="370.667" y="22.3332" type="qcurve"/>
      <point x="366.333" y="0.666705" type="line"/>
      <point x="348.333" y="-1.99997"/>
      <point x="322.667" y="-3.99997"/>
      <point x="310" y="-3.99997" type="qcurve" smooth="yes"/>
      <point x="235" y="-3.99997"/>
      <point x="117.667" y="64"/>
      <point x="49.3335" y="184.333"/>
      <point x="49.3335" y="261.333" type="qcurve" smooth="yes"/>
      <point x="49.3335" y="339.333"/>
      <point x="117.667" y="458"/>
      <point x="235" y="526"/>
      <point x="310" y="526" type="qcurve" smooth="yes"/>
      <point x="385" y="526"/>
      <point x="503.333" y="458"/>
      <point x="570.666" y="339.333"/>
      <point x="570.666" y="261.333" type="qcurve" smooth="yes"/>
      <point x="570.666" y="176"/>
      <point x="489.666" y="49.6667"/>
      <point x="420" y="17.6667" type="qcurve" smooth="yes"/>
      <point x="358" y="-10.6667"/>
      <point x="296" y="-60.6668"/>
      <point x="275.666" y="-104.333"/>
      <point x="275.666" y="-124" type="qcurve" smooth="yes"/>
      <point x="275.666" y="-153.667"/>
      <point x="314.333" y="-183.667"/>
      <point x="343.666" y="-183.667" type="qcurve" smooth="yes"/>
      <point x="360.333" y="-183.667"/>
      <point x="393.333" y="-172.667"/>
      <point x="405.333" y="-163" type="qcurve"/>
      <point x="419.333" y="-191.667" type="line"/>
      <point x="402.333" y="-204.333"/>
      <point x="361.666" y="-217.333"/>
    </contour>
    <contour>
      <point x="310" y="40.666" type="qcurve" smooth="yes"/>
      <point x="370.333" y="40.666"/>
      <point x="465.667" y="96.3328"/>
      <point x="520.334" y="196.333"/>
      <point x="520.334" y="261.333" type="qcurve" smooth="yes"/>
      <point x="520.334" y="327.333"/>
      <point x="465.667" y="426.334"/>
      <point x="370.333" y="481.334"/>
      <point x="310" y="481.334" type="qcurve" smooth="yes"/>
      <point x="250" y="481.334"/>
      <point x="155.333" y="426.334"/>
      <point x="99.6659" y="327.333"/>
      <point x="99.6659" y="261.333" type="qcurve" smooth="yes"/>
      <point x="99.6659" y="196.333"/>
      <point x="155.333" y="96.3328"/>
      <point x="250" y="40.666"/>
    </contour>
  </outline>
</glyph>
<glyph name="uni0237" format="2">
  <advance width="266"/>
  <unicode hex="0237"/>
  <anchor x="188" y="562" name="t.uni0308"/>
  <outline>
    <contour>
      <point x="19.9999" y="-198" type="qcurve" smooth="yes"/>
      <point x="-11.3334" y="-198"/>
      <point x="-69.3333" y="-181"/>
      <point x="-88.3333" y="-163" type="qcurve"/>
      <point x="-67.6668" y="-125.667" type="line"/>
      <point x="-35.3334" y="-154.667"/>
      <point x="17" y="-154.667" type="qcurve" smooth="yes"/>
      <point x="62.3335" y="-154.667"/>
      <point x="110.667" y="-101.001"/>
      <point x="110.667" y="-49.6671" type="qcurve" smooth="yes"/>
      <point x="110.667" y="522" type="line"/>
      <point x="160.666" y="522" type="line"/>
      <point x="160.666" y="-52.0005" type="line" smooth="yes"/>
      <point x="160.666" y="-118.334"/>
      <point x="87.9997" y="-198"/>
    </contour>
  </outline>
</glyph>
<glyph name="uni0259" format="2">
  <advance width="597"/>
  <unicode hex="0259"/>
  <anchor x="341" y="562" name="t.uni0308"/>
  <anchor x="341" y="0" name="b.uni0324_3"/>
  <anchor x="99" y="562" name="m.uni0328_4"/>
  <outline>
    <contour>
      <point x="279" y="526" type="qcurve" smooth="yes"/>
      <point x="358.333" y="526"/>
      <point x="479" y="458"/>
      <point x="547.666" y="338.667"/>
      <point x="547.666" y="260.667" type="qcurve" smooth="yes"/>
      <point x="547.666" y="183.667"/>
      <point x="483" y="64"/>
      <point x="370" y="-3.99997"/>
      <point x="298" y="-3.99997" type="qcurve" smooth="yes"/>
      <point x="226.667" y="-3.99997"/>
      <point x="114" y="63"/>
      <point x="49.3335" y="181.333"/>
      <point x="49.3335" y="258.667" type="qcurve" smooth="yes"/>
      <point x="49.3335" y="262.333"/>
      <point x="49.6668" y="270"/>
      <point x="50.0001" y="273.333" type="qcurve"/>
      <point x="511.334" y="273.333" type="line"/>
      <point x="511.334" y="234.333" type="line"/>
      <point x="76.6663" y="234.333" type="line"/>
      <point x="96.666" y="253" type="line"/>
      <point x="96.666" y="191.667"/>
      <point x="148.999" y="94.9995"/>
      <point x="240" y="39.666"/>
      <point x="298" y="39.666" type="qcurve" smooth="yes"/>
      <point x="356.667" y="39.666"/>
      <point x="447.334" y="94.9995"/>
      <point x="499" y="192.333"/>
      <point x="499" y="254" type="qcurve" smooth="yes"/>
      <point x="499" y="262.667" type="line" smooth="yes"/>
      <point x="499" y="327.667"/>
      <point x="442.334" y="425.667"/>
      <point x="342.667" y="481.334"/>
      <point x="278" y="481.334" type="qcurve" smooth="yes"/>
      <point x="228" y="481.334"/>
      <point x="141.333" y="445.334"/>
      <point x="111" y="407.667" type="qcurve"/>
      <point x="81.6668" y="440.667" type="line"/>
      <point x="117" y="482.667"/>
      <point x="220" y="526"/>
    </contour>
  </outline>
</glyph>
<glyph name="uni02B9" format="2">
  <advance width="194"/>
  <unicode hex="02B9"/>
  <outline>
    <contour>
      <point x="77.6668" y="442" type="line"/>
      <point x="74.0002" y="700" type="line"/>
      <point x="120.333" y="700" type="line"/>
      <point x="116.333" y="442" type="line"/>
    </contour>
  </outline>
</glyph>
<glyph name="uni02BE" format="2">
  <advance width="600"/>
  <unicode hex="02BE"/>
  <outline>
    <contour>
      <point x="299" y="596" type="qcurve"/>
      <point x="299" y="624.666" type="line"/>
      <point x="330" y="624.666"/>
      <point x="368.667" y="664"/>
      <point x="368.667" y="693" type="qcurve" smooth="yes"/>
      <point x="368.667" y="723"/>
      <point x="329.667" y="763.667"/>
      <point x="299" y="763.667" type="qcurve"/>
      <point x="299" y="792.666" type="line"/>
      <point x="328.333" y="792.666"/>
      <point x="373" y="765"/>
      <point x="399" y="720"/>
      <point x="399" y="693" type="qcurve" smooth="yes"/>
      <point x="399" y="666.667"/>
      <point x="373.667" y="622.667"/>
      <point x="328.333" y="596"/>
    </contour>
  </outline>
</glyph>
<glyph name="uni02BF" format="2">
  <advance width="600"/>
  <unicode hex="02BF"/>
  <outline>
    <contour>
      <point x="299" y="596" type="line"/>
      <point x="270" y="596"/>
      <point x="225" y="622.667"/>
      <point x="199" y="666.667"/>
      <point x="199" y="693" type="qcurve" smooth="yes"/>
      <point x="199" y="720"/>
      <point x="225" y="765"/>
      <point x="270.667" y="792.666"/>
      <point x="299" y="792.666" type="qcurve"/>
      <point x="299" y="763.667" type="line"/>
      <point x="269.333" y="763.667"/>
      <point x="229.667" y="723"/>
      <point x="229.667" y="693" type="qcurve" smooth="yes"/>
      <point x="229.667" y="664"/>
      <point x="268.333" y="624.666"/>
      <point x="299" y="624.666" type="qcurve"/>
    </contour>
  </outline>
</glyph>
<glyph name="uni02C8" format="2">
  <advance width="161"/>
  <unicode hex="02C8"/>
  <outline>
    <contour>
      <point x="61.3335" y="515.333" type="line"/>
      <point x="61.3335" y="699.333" type="line"/>
      <point x="99.6663" y="699.333" type="line"/>
      <point x="99.6663" y="515.333" type="line"/>
    </contour>
  </outline>
</glyph>
<glyph name="uni02C9" format="2">
  <advance width="600"/>
  <unicode hex="02C9"/>
  <outline>
    <contour>
      <point x="153.334" y="648" type="line"/>
      <point x="153.334" y="684" type="line"/>
      <point x="446.666" y="684" type="line"/>
      <point x="446.666" y="648" type="line"/>
    </contour>
  </outline>
</glyph>
<glyph name="uni02CA" format="2">
  <advance width="600"/>
  <unicode hex="02CA"/>
  <outline>
    <contour>
      <point x="243" y="607" type="line"/>
      <point x="381.667" y="725" type="line"/>
      <point x="453.999" y="725" type="line"/>
      <point x="297" y="607" type="line"/>
    </contour>
  </outline>
</glyph>
<glyph name="uni02CB" format="2">
  <advance width="600"/>
  <unicode hex="02CB"/>
  <outline>
    <contour>
      <point x="303" y="607" type="line"/>
      <point x="146.001" y="725" type="line"/>
      <point x="218.333" y="725" type="line"/>
      <point x="357" y="607" type="line"/>
    </contour>
  </outline>
</glyph>
<glyph name="uni02CC" format="2">
  <advance width="161"/>
  <unicode hex="02CC"/>
  <outline>
    <contour>
      <point x="61.3335" y="-214" type="line"/>
      <point x="61.3335" y="-30" type="line"/>
      <point x="99.9996" y="-30" type="line"/>
      <point x="99.9996" y="-214" type="line"/>
    </contour>
  </outline>
</glyph>
<glyph name="acutecomb" format="2">
  <unicode hex="0301"/>
  <anchor x="300" y="562" name="_t.uni0308"/>
  <anchor x="300" y="562" name="_t.uni0308_2"/>
  <anchor x="300" y="562" name="_m.uni0308"/>
  <anchor x="300" y="809" name="m.uni0308"/>
  <outline>
    <contour>
      <point x="246.334" y="607" type="line"/>
      <point x="285.334" y="725" type="line"/>
      <point x="345.999" y="725" type="line"/>
      <point x="288.666" y="607" type="line"/>
    </contour>
  </outline>
</glyph>
<glyph name="tildecomb" format="2">
  <unicode hex="0303"/>
  <anchor x="300" y="562" name="_t.uni0308"/>
  <anchor x="300" y="562" name="_t.uni0308_2"/>
  <anchor x="300" y="562" name="_m.uni0308"/>
  <anchor x="300" y="799" name="m.uni0308"/>
  <outline>
    <contour>
      <point x="365.667" y="615.333" type="qcurve" smooth="yes"/>
      <point x="343.667" y="615.333"/>
      <point x="309" y="636"/>
      <point x="280.667" y="663"/>
      <point x="253" y="683.667"/>
      <point x="237" y="683.667" type="qcurve" smooth="yes"/>
      <point x="213.667" y="683.667"/>
      <point x="186.333" y="649"/>
      <point x="184.333" y="618.667" type="qcurve"/>
      <point x="151.334" y="618.667" type="line"/>
      <point x="153.334" y="664.333"/>
      <point x="197.667" y="718.666"/>
      <point x="234.333" y="718.666" type="qcurve" smooth="yes"/>
      <point x="256.333" y="718.666"/>
      <point x="291.333" y="698"/>
      <point x="319.667" y="671"/>
      <point x="347.333" y="650.333"/>
      <point x="363" y="650.333" type="qcurve" smooth="yes"/>
      <point x="386.333" y="650.333"/>
      <point x="414.667" y="684.666"/>
      <point x="415.667" y="713.333" type="qcurve"/>
      <point x="448.666" y="713.333" type="line"/>
      <point x="447.666" y="670"/>
      <point x="402.333" y="615.333"/>
    </contour>
  </outline>
</glyph>
<glyph name="uni0306" format="2">
  <unicode hex="0306"/>
  <anchor x="300" y="562" name="_t.uni0308"/>
  <anchor x="300" y="562" name="_t.uni0308_2"/>
  <anchor x="300" y="562" name="_m.uni0308"/>
  <anchor x="300" y="799" name="m.uni0308"/>
  <outline>
    <contour>
      <point x="300" y="603" type="qcurve" smooth="yes"/>
      <point x="240.667" y="603"/>
      <point x="158.334" y="668.667"/>
      <point x="156" y="725" type="qcurve"/>
      <point x="193.333" y="725" type="line"/>
      <point x="195.333" y="684.333"/>
      <point x="256.667" y="636.333"/>
      <point x="300" y="636.333" type="qcurve" smooth="yes"/>
      <point x="344" y="636.333"/>
      <point x="405.667" y="684.333"/>
      <point x="406.667" y="725" type="qcurve"/>
      <point x="444" y="725" type="line"/>
      <point x="442.333" y="668.667"/>
      <point x="359.333" y="603"/>
    </contour>
  </outline>
</glyph>
<glyph name="uni0307" format="2">
  <unicode hex="0307"/>
  <anchor x="300" y="562" name="_t.uni0308"/>
  <anchor x="300" y="729" name="_t.uni0307_1"/>
  <anchor x="300" y="562" name="_t.uni0308_2"/>
  <anchor x="300" y="562" name="_m.uni0308"/>
  <anchor x="300" y="883" name="m.uni0308"/>
  <outline>
    <contour>
      <point x="300" y="634.667" type="qcurve" smooth="yes"/>
      <point x="284" y="634.667"/>
      <point x="261" y="657.667"/>
      <point x="261" y="673.666" type="qcurve" smooth="yes"/>
      <point x="261" y="690.333"/>
      <point x="284" y="712.666"/>
      <point x="300" y="712.666" type="qcurve" smooth="yes"/>
      <point x="316.667" y="712.666"/>
      <point x="339" y="690.333"/>
      <point x="339" y="673.666" type="qcurve" smooth="yes"/>
      <point x="339" y="657.667"/>
      <point x="316.667" y="634.667"/>
    </contour>
  </outline>
</glyph>
<glyph name="uni0308" format="2">
  <unicode hex="0308"/>
  <anchor x="300" y="562" name="_t.uni0308"/>
  <anchor x="300" y="562" name="_t.uni0308_2"/>
  <anchor x="300" y="562" name="_m.uni0308"/>
  <anchor x="300" y="793" name="m.uni0308"/>
  <outline>
    <contour>
      <point x="386.333" y="634.334" type="qcurve" smooth="yes"/>
      <point x="372" y="634.334"/>
      <point x="350.333" y="655.333"/>
      <point x="350.333" y="670.333" type="qcurve" smooth="yes"/>
      <point x="350.333" y="686"/>
      <point x="372" y="706.333"/>
      <point x="386.333" y="706.333" type="qcurve" smooth="yes"/>
      <point x="401.333" y="706.333"/>
      <point x="422.333" y="686"/>
      <point x="422.333" y="670.333" type="qcurve" smooth="yes"/>
      <point x="422.333" y="655.333"/>
      <point x="401.333" y="634.334"/>
    </contour>
    <contour>
      <point x="213.667" y="634.334" type="qcurve" smooth="yes"/>
      <point x="199.334" y="634.334"/>
      <point x="177.667" y="655.333"/>
      <point x="177.667" y="670.333" type="qcurve" smooth="yes"/>
      <point x="177.667" y="686"/>
      <point x="199.334" y="706.333"/>
      <point x="213.667" y="706.333" type="qcurve" smooth="yes"/>
      <point x="228.667" y="706.333"/>
      <point x="249.667" y="686"/>
      <point x="249.667" y="670.333" type="qcurve" smooth="yes"/>
      <point x="249.667" y="655.333"/>
      <point x="228.667" y="634.334"/>
    </contour>
  </outline>
</glyph>
<glyph name="hookabovecomb" format="2">
  <unicode hex="0309"/>
  <anchor x="300" y="562" name="_t.uni0308"/>
  <anchor x="300" y="562" name="_t.uni0308_2"/>
  <anchor x="300" y="562" name="_m.uni0308"/>
  <anchor x="300" y="879" name="m.uni0308"/>
  <outline>
    <contour>
      <point x="308.666" y="601" type="qcurve"/>
      <point x="289.667" y="626" type="line"/>
      <point x="320" y="640"/>
      <point x="350" y="676"/>
      <point x="350" y="699.333" type="qcurve" smooth="yes"/>
      <point x="350" y="721.333"/>
      <point x="319.333" y="750.333"/>
      <point x="294.333" y="750.333" type="qcurve" smooth="yes"/>
      <point x="262" y="750.333"/>
      <point x="233" y="731.333" type="qcurve"/>
      <point x="219.667" y="759.333" type="line"/>
      <point x="235.667" y="771"/>
      <point x="277.667" y="783.333"/>
      <point x="297.333" y="783.333" type="qcurve" smooth="yes"/>
      <point x="337" y="783.333"/>
      <point x="385.333" y="739.666"/>
      <point x="385.333" y="703" type="qcurve" smooth="yes"/>
      <point x="385.333" y="670"/>
      <point x="348.333" y="619.667"/>
    </contour>
  </outline>
</glyph>
<glyph name="uni030A" format="2">
  <unicode hex="030A"/>
  <anchor x="300" y="562" name="_t.uni0308"/>
  <anchor x="300" y="562" name="_t.uni0308_2"/>
  <anchor x="300" y="562" name="_m.uni0308"/>
  <anchor x="300" y="883" name="m.uni0308"/>
  <outline>
    <contour>
      <point x="299" y="596" type="qcurve" smooth="yes"/>
      <point x="270.333" y="596"/>
      <point x="226" y="622.667"/>
      <point x="200" y="666.667"/>
      <point x="200" y="693" type="qcurve" smooth="yes"/>
      <point x="200" y="720"/>
      <point x="226" y="765"/>
      <point x="271" y="792.666"/>
      <point x="299" y="792.666" type="qcurve" smooth="yes"/>
      <point x="328" y="792.666"/>
      <point x="373" y="765"/>
      <point x="399" y="720"/>
      <point x="399" y="693" type="qcurve" smooth="yes"/>
      <point x="399" y="666.667"/>
      <point x="373" y="622.667"/>
      <point x="328" y="596"/>
    </contour>
    <contour>
      <point x="299" y="624" type="qcurve" smooth="yes"/>
      <point x="330" y="624"/>
      <point x="369.333" y="664.333"/>
      <point x="369.333" y="693" type="qcurve" smooth="yes"/>
      <point x="369.333" y="722.333"/>
      <point x="329.667" y="764.333"/>
      <point x="299" y="764.333" type="qcurve" smooth="yes"/>
      <point x="269.333" y="764.333"/>
      <point x="229.667" y="723.333"/>
      <point x="229.667" y="693" type="qcurve" smooth="yes"/>
      <point x="229.667" y="663.666"/>
      <point x="268.333" y="624"/>
    </contour>
  </outline>
</glyph>
<glyph name="uni030B" format="2">
  <unicode hex="030B"/>
  <anchor x="300" y="562" name="_t.uni0308"/>
  <anchor x="300" y="562" name="_t.uni0308_2"/>
  <anchor x="300" y="562" name="_m.uni0308"/>
  <anchor x="300" y="809" name="m.uni0308"/>
  <outline>
    <contour>
      <point x="352.333" y="607" type="line"/>
      <point x="454.667" y="725" type="line"/>
      <point x="515.333" y="725" type="line"/>
      <point x="400.666" y="607" type="line"/>
    </contour>
    <contour>
      <point x="199.334" y="607" type="line"/>
      <point x="302.001" y="725" type="line"/>
      <point x="362.667" y="725" type="line"/>
      <point x="247.667" y="607" type="line"/>
    </contour>
  </outline>
</glyph>
<glyph name="uni030C" format="2">
  <unicode hex="030C"/>
  <anchor x="300" y="562" name="_t.uni0308"/>
  <anchor x="300" y="562" name="_t.uni0308_2"/>
  <anchor x="300" y="562" name="_m.uni0308"/>
  <anchor x="300" y="799" name="m.uni0308"/>
  <outline>
    <contour>
      <point x="272.334" y="607" type="line"/>
      <point x="146" y="725" type="line"/>
      <point x="196.333" y="725" type="line"/>
      <point x="317.666" y="623.667" type="line"/>
      <point x="282.334" y="623.667" type="line"/>
      <point x="403.667" y="725" type="line"/>
      <point x="454" y="725" type="line"/>
      <point x="327.666" y="607" type="line"/>
    </contour>
  </outline>
</glyph>
<glyph name="uni030F" format="2">
  <unicode hex="030F"/>
  <anchor x="300" y="562" name="_t.uni0308"/>
  <anchor x="300" y="562" name="_t.uni0308_2"/>
  <anchor x="300" y="562" name="_m.uni0308"/>
  <anchor x="300" y="809" name="m.uni0308"/>
  <outline>
    <contour>
      <point x="352.333" y="607" type="line"/>
      <point x="237.333" y="725" type="line"/>
      <point x="297.999" y="725" type="line"/>
      <point x="400.666" y="607" type="line"/>
    </contour>
    <contour>
      <point x="199.334" y="607" type="line"/>
      <point x="84.6671" y="725" type="line"/>
      <point x="145.333" y="725" type="line"/>
      <point x="247.667" y="607" type="line"/>
    </contour>
  </outline>
</glyph>
<glyph name="uni0311" format="2">
  <unicode hex="0311"/>
  <anchor x="300" y="562" name="_t.uni0308"/>
  <anchor x="300" y="562" name="_t.uni0308_2"/>
  <anchor x="300" y="562" name="_m.uni0308"/>
  <anchor x="300" y="799" name="m.uni0308"/>
  <outline>
    <contour>
      <point x="156" y="607" type="line"/>
      <point x="158.334" y="664"/>
      <point x="240.667" y="729"/>
      <point x="300" y="729" type="qcurve" smooth="yes"/>
      <point x="359.333" y="729"/>
      <point x="442.333" y="664"/>
      <point x="444" y="607" type="qcurve"/>
      <point x="406.667" y="607" type="line"/>
      <point x="405.667" y="648.333"/>
      <point x="344" y="695.667"/>
      <point x="300" y="695.667" type="qcurve" smooth="yes"/>
      <point x="256.667" y="695.667"/>
      <point x="195.333" y="648.333"/>
      <point x="193.333" y="607" type="qcurve"/>
    </contour>
  </outline>
</glyph>
<glyph name="uni0312" format="2">
  <unicode hex="0312"/>
  <anchor x="300" y="562" name="_t.uni0308"/>
  <anchor x="300" y="562" name="_t.uni0308_2"/>
  <anchor x="300" y="562" name="_m.uni0308"/>
  <anchor x="300" y="853" name="m.uni0308"/>
  <outline>
    <contour>
      <point x="300" y="603" type="qcurve" smooth="yes"/>
      <point x="282" y="603"/>
      <point x="262.334" y="623.667"/>
      <point x="262.334" y="636.666" type="qcurve" smooth="yes"/>
      <point x="262.334" y="645.666"/>
      <point x="267.334" y="662.666"/>
      <point x="271" y="674" type="qcurve" smooth="yes"/>
      <point x="302.667" y="771.666" type="line"/>
      <point x="335.333" y="771.666" type="line"/>
      <point x="305.333" y="649.333" type="line"/>
      <point x="300" y="670.333" type="line"/>
      <point x="317" y="670.333"/>
      <point x="337.666" y="651.666"/>
      <point x="337.666" y="636.666" type="qcurve" smooth="yes"/>
      <point x="337.666" y="622.667"/>
      <point x="317.333" y="603"/>
    </contour>
  </outline>
</glyph>
<glyph name="uni031B" format="2">
  <unicode hex="031B"/>
  <anchor x="300" y="562" name="_t.uni031B_2"/>
  <outline>
    <contour>
      <point x="287" y="482" type="line"/>
      <point x="287" y="522" type="line"/>
      <point x="300" y="522" type="line" smooth="yes"/>
      <point x="336.667" y="522"/>
      <point x="367.667" y="562.333"/>
      <point x="367.667" y="590.333" type="qcurve" smooth="yes"/>
      <point x="367.667" y="609.667"/>
      <point x="356" y="642.333"/>
      <point x="347.667" y="655.667" type="qcurve"/>
      <point x="382.666" y="669.666" type="line"/>
      <point x="394" y="653.666"/>
      <point x="407" y="612"/>
      <point x="407" y="589.667" type="qcurve" smooth="yes"/>
      <point x="407" y="543.334"/>
      <point x="354.667" y="482"/>
      <point x="300" y="482" type="qcurve" smooth="yes"/>
    </contour>
  </outline>
</glyph>
<glyph name="dotbelowcomb" format="2">
  <unicode hex="0323"/>
  <anchor x="300" y="-229" name="t.uni0324"/>
  <outline>
    <contour>
      <point x="300" y="-184" type="qcurve" smooth="yes"/>
      <point x="285.667" y="-184"/>
      <point x="264" y="-163.333"/>
      <point x="264" y="-148.333" type="qcurve" smooth="yes"/>
      <point x="264" y="-132.667"/>
      <point x="285.667" y="-112"/>
      <point x="300" y="-112" type="qcurve" smooth="yes"/>
      <point x="315" y="-112"/>
      <point x="336" y="-132.667"/>
      <point x="336" y="-148.333" type="qcurve" smooth="yes"/>
      <point x="336" y="-163.333"/>
      <point x="315" y="-184"/>
    </contour>
  </outline>
</glyph>
<glyph name="uni0324" format="2">
  <unicode hex="0324"/>
  <anchor x="300" y="-206" name="t.uni0324"/>
  <outline>
    <contour>
      <point x="379.667" y="-182.666" type="qcurve" smooth="yes"/>
      <point x="365.667" y="-182.666"/>
      <point x="344.333" y="-162"/>
      <point x="344.333" y="-147.333" type="qcurve" smooth="yes"/>
      <point x="344.333" y="-132.334"/>
      <point x="365.667" y="-112"/>
      <point x="379.667" y="-112" type="qcurve" smooth="yes"/>
      <point x="394.333" y="-112"/>
      <point x="415" y="-132.334"/>
      <point x="415" y="-147.333" type="qcurve" smooth="yes"/>
      <point x="415" y="-162"/>
      <point x="394.333" y="-182.666"/>
    </contour>
    <contour>
      <point x="220.333" y="-182.666" type="qcurve" smooth="yes"/>
      <point x="206.334" y="-182.666"/>
      <point x="185.334" y="-162"/>
      <point x="185.334" y="-147.333" type="qcurve" smooth="yes"/>
      <point x="185.334" y="-132.334"/>
      <point x="206.334" y="-112"/>
      <point x="220.333" y="-112" type="qcurve" smooth="yes"/>
      <point x="235.333" y="-112"/>
      <point x="256" y="-132.334"/>
      <point x="256" y="-147.333" type="qcurve" smooth="yes"/>
      <point x="256" y="-162"/>
      <point x="235.333" y="-182.666"/>
    </contour>
  </outline>
</glyph>
<glyph name="uni0326" format="2">
  <unicode hex="0326"/>
  <anchor x="300" y="-229" name="t.uni0324"/>
  <outline>
    <contour>
      <point x="270.667" y="-260.667" type="line"/>
      <point x="295.667" y="-158.667" type="line"/>
      <point x="300" y="-179.667" type="line"/>
      <point x="284.667" y="-179.667"/>
      <point x="264" y="-160"/>
      <point x="264" y="-146" type="qcurve" smooth="yes"/>
      <point x="264" y="-131.334"/>
      <point x="284.333" y="-112"/>
      <point x="300" y="-112" type="qcurve" smooth="yes"/>
      <point x="316.667" y="-112"/>
      <point x="336" y="-133"/>
      <point x="336" y="-146" type="qcurve" smooth="yes"/>
      <point x="336" y="-155"/>
      <point x="331.333" y="-174.667"/>
      <point x="327" y="-185.667" type="qcurve"/>
      <point x="301.333" y="-260.667" type="line"/>
    </contour>
  </outline>
</glyph>
<glyph name="uni0327" format="2">
  <unicode hex="0327"/>
  <outline>
    <contour>
      <point x="280.333" y="-217.333" type="qcurve" smooth="yes"/>
      <point x="257.333" y="-217.333"/>
      <point x="218.334" y="-205"/>
      <point x="200.667" y="-192.333" type="qcurve"/>
      <point x="215.333" y="-164" type="line"/>
      <point x="229" y="-174"/>
      <point x="262" y="-184.667"/>
      <point x="279.667" y="-184.667" type="qcurve" smooth="yes"/>
      <point x="310" y="-184.667"/>
      <point x="345.667" y="-157.333"/>
      <point x="345.667" y="-132.333" type="qcurve" smooth="yes"/>
      <point x="345.667" y="-109.667"/>
      <point x="312.333" y="-80.6665"/>
      <point x="280" y="-80.6665" type="qcurve" smooth="yes"/>
      <point x="259.667" y="-80.6665" type="line"/>
      <point x="283" y="5.66665" type="line"/>
      <point x="316" y="5.66665" type="line"/>
      <point x="300" y="-53.6667" type="line"/>
      <point x="340" y="-56.3334"/>
      <point x="384.666" y="-100"/>
      <point x="384.666" y="-133.667" type="qcurve" smooth="yes"/>
      <point x="384.666" y="-172"/>
      <point x="326" y="-217.333"/>
    </contour>
  </outline>
</glyph>
<glyph name="uni0328" format="2">
  <unicode hex="0328"/>
  <anchor x="300" y="0" name="_m.uni0328_4"/>
  <outline>
    <contour>
      <point x="240.333" y="-217.333" type="qcurve" smooth="yes"/>
      <point x="194.667" y="-217.333"/>
      <point x="138" y="-168.667"/>
      <point x="138" y="-127.333" type="qcurve" smooth="yes"/>
      <point x="138" y="-104"/>
      <point x="161.334" y="-53.3336"/>
      <point x="222" y="-1.33355"/>
      <point x="277.334" y="22.3332" type="qcurve"/>
      <point x="301" y="0" type="line"/>
      <point x="250.333" y="-21.6667"/>
      <point x="197" y="-65.3335"/>
      <point x="177" y="-105.667"/>
      <point x="177" y="-124.333" type="qcurve" smooth="yes"/>
      <point x="177" y="-153.667"/>
      <point x="215.667" y="-183.667"/>
      <point x="245" y="-183.667" type="qcurve" smooth="yes"/>
      <point x="261.667" y="-183.667"/>
      <point x="294.667" y="-172.667"/>
      <point x="306.667" y="-163" type="qcurve"/>
      <point x="320.667" y="-191.667" type="line"/>
      <point x="303.667" y="-204.333"/>
      <point x="263" y="-217.333"/>
    </contour>
  </outline>
</glyph>
<glyph name="uni032E" format="2">
  <unicode hex="032E"/>
  <anchor x="300" y="-232" name="t.uni0324"/>
  <outline>
    <contour>
      <point x="300" y="-202.333" type="qcurve" smooth="yes"/>
      <point x="240.667" y="-202.333"/>
      <point x="158.334" y="-139.667"/>
      <point x="156" y="-86.3334" type="qcurve"/>
      <point x="192.333" y="-86.3334" type="line"/>
      <point x="193.667" y="-125"/>
      <point x="255.667" y="-170"/>
      <point x="300" y="-170" type="qcurve" smooth="yes"/>
      <point x="345" y="-170"/>
      <point x="407" y="-125"/>
      <point x="407.667" y="-86.3334" type="qcurve"/>
      <point x="444" y="-86.3334" type="line"/>
      <point x="442.333" y="-139.667"/>
      <point x="359.333" y="-202.333"/>
    </contour>
  </outline>
</glyph>
<glyph name="uni0331" format="2">
  <unicode hex="0331"/>
  <anchor x="300" y="-204" name="t.uni0324"/>
  <outline>
    <contour>
      <point x="153.334" y="-165.333" type="line"/>
      <point x="153.334" y="-129.334" type="line"/>
      <point x="446.666" y="-129.334" type="line"/>
      <point x="446.666" y="-165.333" type="line"/>
    </contour>
  </outline>
</glyph>
<glyph name="uni0335" format="2">
  <unicode hex="0335"/>
  <anchor x="300" y="429" name="_t.uni0307_1"/>
  <outline>
    <contour>
      <point x="107.333" y="421" type="line"/>
      <point x="107.333" y="459.333" type="line"/>
      <point x="492.667" y="459.333" type="line"/>
      <point x="492.667" y="421" type="line"/>
    </contour>
  </outline>
</glyph>
<glyph name="uni0336" format="2">
  <unicode hex="0336"/>
  <anchor x="544" y="429" name="_t.uni0307_1"/>
  <outline>
    <contour>
      <point x="20.3331" y="418.667" type="line"/>
      <point x="20.3331" y="461.333" type="line"/>
      <point x="808.666" y="461.333" type="line"/>
      <point x="808.666" y="418.667" type="line"/>
    </contour>
  </outline>
</glyph>
<glyph name="uni0337" format="2">
  <unicode hex="0337"/>
  <anchor x="364" y="412" name="_t.uni0307_1"/>
  <outline>
    <contour>
      <point x="75.333" y="282.334" type="line"/>
      <point x="51.6666" y="313.333" type="line"/>
      <point x="273.332" y="478.999" type="line"/>
      <point x="296.999" y="447.666" type="line"/>
    </contour>
  </outline>
</glyph>
<glyph name="uni0338" format="2">
  <unicode hex="0338"/>
  <anchor x="337" y="282" name="_t.uni0307_1"/>
  <outline>
    <contour>
      <point x="65.3334" y="-70" type="line"/>
      <point x="509.333" y="591.667" type="line"/>
      <point x="546.666" y="591.667" type="line"/>
      <point x="102.666" y="-70" type="line"/>
    </contour>
  </outline>
</glyph>
<glyph name="tonos" format="2">
  <advance width="121"/>
  <unicode hex="0384"/>
  <anchor x="-23.6664" y="809" name="t.uni0308"/>
  <anchor x="-23.6664" y="0" name="b.uni0324_3"/>
  <anchor x="134.334" y="0" name="m.uni0328_4"/>
  <outline>
    <contour>
      <point x="12.3335" y="607" type="line"/>
      <point x="51.3334" y="725" type="line"/>
      <point x="111.999" y="725" type="line"/>
      <point x="54.6662" y="607" type="line"/>
    </contour>
  </outline>
</glyph>
<glyph name="Epsilontonos" format="2">
  <advance width="745"/>
  <unicode hex="0388"/>
  <anchor x="411.332" y="700" name="t.uni0308"/>
  <anchor x="403.332" y="0" name="b.uni0324_3"/>
  <anchor x="732.332" y="0" name="m.uni0328_4"/>
  <outline>
    <contour>
      <point x="243.332" y="378" type="line"/>
      <point x="621.999" y="378" type="line"/>
      <point x="621.999" y="333" type="line"/>
      <point x="243.332" y="333" type="line"/>
    </contour>
    <contour>
      <point x="249.665" y="45.6659" type="line"/>
      <point x="680.999" y="45.6659" type="line"/>
      <point x="680.999" y="0" type="line"/>
      <point x="198.333" y="0" type="line"/>
      <point x="198.333" y="700" type="line"/>
      <point x="666.332" y="700" type="line"/>
      <point x="666.332" y="654.334" type="line"/>
      <point x="249.665" y="654.334" type="line"/>
    </contour>
    <contour>
      <point x="28.6668" y="607" type="line"/>
      <point x="67.6668" y="725" type="line"/>
      <point x="128.333" y="725" type="line"/>
      <point x="70.9995" y="607" type="line"/>
    </contour>
  </outline>
</glyph>
<glyph name="Etatonos" format="2">
  <advance width="874"/>
  <unicode hex="0389"/>
  <anchor x="458.999" y="700" name="t.uni0308"/>
  <anchor x="458.999" y="594" name="t.uni0307_1"/>
  <anchor x="458.999" y="0" name="b.uni0324_3"/>
  <outline>
    <contour>
      <point x="701" y="700" type="line"/>
      <point x="752.332" y="700" type="line"/>
      <point x="752.332" y="0" type="line"/>
      <point x="701" y="0" type="line"/>
    </contour>
    <contour>
      <point x="233.332" y="0" type="line"/>
      <point x="181.999" y="0" type="line"/>
      <point x="181.999" y="700" type="line"/>
      <point x="233.332" y="700" type="line"/>
    </contour>
    <contour>
      <point x="707.333" y="332.667" type="line"/>
      <point x="226.665" y="332.667" type="line"/>
      <point x="226.665" y="378.333" type="line"/>
      <point x="707.333" y="378.333" type="line"/>
    </contour>
    <contour>
      <point x="14.0001" y="607" type="line"/>
      <point x="53.0001" y="725" type="line"/>
      <point x="113.666" y="725" type="line"/>
      <point x="56.3328" y="607" type="line"/>
    </contour>
  </outline>
</glyph>
<glyph name="Iotatonos" format="2">
  <advance width="364"/>
  <unicode hex="038A"/>
  <anchor x="257.999" y="700" name="t.uni0308"/>
  <anchor x="257.999" y="0" name="b.uni0324_3"/>
  <anchor x="422.999" y="0" name="m.uni0328_4"/>
  <outline>
    <contour>
      <point x="190.999" y="0" type="line"/>
      <point x="190.999" y="700" type="line"/>
      <point x="242.332" y="700" type="line"/>
      <point x="242.332" y="0" type="line"/>
    </contour>
    <contour>
      <point x="13.0001" y="607" type="line"/>
      <point x="52" y="725" type="line"/>
      <point x="112.666" y="725" type="line"/>
      <point x="55.3328" y="607" type="line"/>
    </contour>
  </outline>
</glyph>
<glyph name="Upsilontonos" format="2">
  <advance width="815"/>
  <unicode hex="038E"/>
  <anchor x="566.999" y="700" name="t.uni0308"/>
  <anchor x="557.999" y="277" name="t.uni0307_1"/>
  <anchor x="566.999" y="0" name="b.uni0324_3"/>
  <outline>
    <contour>
      <point x="476.666" y="0" type="line"/>
      <point x="476.666" y="254" type="line"/>
      <point x="488.666" y="220.667" type="line"/>
      <point x="194.666" y="700" type="line"/>
      <point x="250.665" y="700" type="line"/>
      <point x="517.666" y="265" type="line"/>
      <point x="489.666" y="265" type="line"/>
      <point x="757" y="700" type="line"/>
      <point x="809.999" y="700" type="line"/>
      <point x="515.999" y="220.667" type="line"/>
      <point x="527.999" y="254" type="line"/>
      <point x="527.999" y="0" type="line"/>
    </contour>
    <contour>
      <point x="18.0001" y="607" type="line"/>
      <point x="57.0001" y="725" type="line"/>
      <point x="117.666" y="725" type="line"/>
      <point x="60.3328" y="607" type="line"/>
    </contour>
  </outline>
</glyph>
<glyph name="Omegatonos" format="2">
  <advance width="905"/>
  <unicode hex="038F"/>
  <outline>
    <contour>
      <point x="9.66668" y="0" type="line"/>
      <point x="9.66668" y="46.3326" type="line"/>
      <point x="256.001" y="46.3326" type="line"/>
      <point x="173.334" y="99.3327"/>
      <point x="89.0002" y="261.666"/>
      <point x="89.0002" y="353.667" type="qcurve" smooth="yes"/>
      <point x="89.0002" y="430"/>
      <point x="143.667" y="558"/>
      <point x="242.333" y="653"/>
      <point x="375" y="705"/>
      <point x="452.667" y="705" type="qcurve" smooth="yes"/>
      <point x="530.667" y="705"/>
      <point x="663" y="653"/>
      <point x="761.667" y="558"/>
      <point x="816.333" y="430"/>
      <point x="816.333" y="353.667" type="qcurve" smooth="yes"/>
      <point x="816.333" y="261.666"/>
      <point x="732" y="99.3327"/>
      <point x="649.333" y="46.3326" type="qcurve"/>
      <point x="895.667" y="46.3326" type="line"/>
      <point x="895.667" y="0" type="line"/>
      <point x="565.334" y="0" type="line"/>
      <point x="565.334" y="43.3326" type="line"/>
      <point x="663.667" y="93.9994"/>
      <point x="764.668" y="257"/>
      <point x="764.668" y="351.667" type="qcurve" smooth="yes"/>
      <point x="764.668" y="418.333"/>
      <point x="718.001" y="530"/>
      <point x="634" y="613.001"/>
      <point x="519.667" y="658.334"/>
      <point x="452.667" y="658.334" type="qcurve" smooth="yes"/>
      <point x="385.667" y="658.334"/>
      <point x="271.333" y="613.001"/>
      <point x="187.333" y="530"/>
      <point x="140.666" y="418.333"/>
      <point x="140.666" y="351.667" type="qcurve" smooth="yes"/>
      <point x="140.666" y="257"/>
      <point x="241.666" y="93.6661"/>
      <point x="340" y="43.3326" type="qcurve"/>
      <point x="340" y="0" type="line"/>
    </contour>
    <contour>
      <point x="24.0002" y="607" type="line"/>
      <point x="63.0001" y="725" type="line"/>
      <point x="123.666" y="725" type="line"/>
      <point x="66.3329" y="607" type="line"/>
    </contour>
  </outline>
</glyph>
<glyph name="iotadieresistonos" format="2">
  <advance width="245"/>
  <unicode hex="0390"/>
  <anchor x="181" y="562" name="t.uni0308"/>
  <anchor x="181" y="0" name="b.uni0324_3"/>
  <anchor x="339" y="0" name="m.uni0328_4"/>
  <outline>
    <contour>
      <point x="98.6667" y="0" type="line"/>
      <point x="98.6667" y="522" type="line"/>
      <point x="148.666" y="522" type="line"/>
      <point x="148.666" y="0" type="line"/>
    </contour>
    <contour>
      <point x="108" y="683.666" type="line"/>
      <point x="147" y="801.666" type="line"/>
      <point x="207.666" y="801.666" type="line"/>
      <point x="150.333" y="683.666" type="line"/>
    </contour>
    <contour>
      <point x="208.666" y="573" type="qcurve" smooth="yes"/>
      <point x="194.333" y="573"/>
      <point x="172.666" y="594"/>
      <point x="172.666" y="608.999" type="qcurve" smooth="yes"/>
      <point x="172.666" y="624.666"/>
      <point x="194.333" y="644.999"/>
      <point x="208.666" y="644.999" type="qcurve" smooth="yes"/>
      <point x="223.666" y="644.999"/>
      <point x="244.666" y="624.666"/>
      <point x="244.666" y="608.999" type="qcurve" smooth="yes"/>
      <point x="244.666" y="594"/>
      <point x="223.666" y="573"/>
    </contour>
    <contour>
      <point x="35.9997" y="573" type="qcurve" smooth="yes"/>
      <point x="21.6665" y="573"/>
      <point x="0" y="594"/>
      <point x="0" y="608.999" type="qcurve" smooth="yes"/>
      <point x="0" y="624.666"/>
      <point x="21.6665" y="644.999"/>
      <point x="35.9997" y="644.999" type="qcurve" smooth="yes"/>
      <point x="50.9996" y="644.999"/>
      <point x="71.9994" y="624.666"/>
      <point x="71.9994" y="608.999" type="qcurve" smooth="yes"/>
      <point x="71.9994" y="594"/>
      <point x="50.9996" y="573"/>
    </contour>
  </outline>
</glyph>
<glyph name="Alpha" format="2">
  <advance width="705"/>
  <unicode hex="0391"/>
  <anchor x="429" y="700" name="t.uni0308"/>
  <anchor x="429" y="0" name="b.uni0324_3"/>
  <anchor x="889" y="0" name="m.uni0328_4"/>
  <outline>
    <contour>
      <point x="5.00011" y="0" type="line"/>
      <point x="327" y="700" type="line"/>
      <point x="377.999" y="700" type="line"/>
      <point x="700.333" y="0" type="line"/>
      <point x="645" y="0" type="line"/>
      <point x="341.333" y="668.334" type="line"/>
      <point x="363.333" y="668.334" type="line"/>
      <point x="59.6659" y="0" type="line"/>
    </contour>
    <contour>
      <point x="123" y="196.667" type="line"/>
      <point x="140" y="240" type="line"/>
      <point x="558.667" y="240" type="line"/>
      <point x="576" y="196.667" type="line"/>
    </contour>
  </outline>
</glyph>
<glyph name="Beta" format="2">
  <advance width="752"/>
  <unicode hex="0392"/>
  <anchor x="384" y="700" name="t.uni0308"/>
  <anchor x="384" y="0" name="b.uni0324_3"/>
  <outline>
    <contour>
      <point x="122" y="0" type="line"/>
      <point x="122" y="700" type="line"/>
      <point x="413.667" y="700" type="line" smooth="yes"/>
      <point x="526.666" y="700"/>
      <point x="655" y="608"/>
      <point x="655" y="521.333" type="qcurve" smooth="yes"/>
      <point x="655" y="464"/>
      <point x="600.666" y="386.333"/>
      <point x="506.333" y="347"/>
      <point x="447.333" y="347" type="qcurve"/>
      <point x="464.666" y="366.667" type="line"/>
      <point x="537.333" y="366.667"/>
      <point x="638.666" y="325.333"/>
      <point x="692.333" y="244.667"/>
      <point x="692.333" y="185.333" type="qcurve" smooth="yes"/>
      <point x="692.333" y="96.6666"/>
      <point x="563.667" y="0"/>
      <point x="433.667" y="0" type="qcurve" smooth="yes"/>
    </contour>
    <contour>
      <point x="173.333" y="43.666" type="line"/>
      <point x="434.333" y="43.666" type="line" smooth="yes"/>
      <point x="535" y="43.666"/>
      <point x="640.667" y="113.333"/>
      <point x="640.667" y="188.667" type="qcurve" smooth="yes"/>
      <point x="640.667" y="264"/>
      <point x="535" y="333.334"/>
      <point x="434.333" y="333.334" type="qcurve" smooth="yes"/>
      <point x="166.999" y="333.334" type="line"/>
      <point x="166.999" y="377" type="line"/>
      <point x="412.333" y="377" type="line" smooth="yes"/>
      <point x="503" y="377"/>
      <point x="603.334" y="447.333"/>
      <point x="603.334" y="516.667" type="qcurve" smooth="yes"/>
      <point x="603.334" y="586"/>
      <point x="503" y="656.334"/>
      <point x="412.333" y="656.334" type="qcurve" smooth="yes"/>
      <point x="173.333" y="656.334" type="line"/>
    </contour>
  </outline>
</glyph>
<glyph name="Gamma" format="2">
  <advance width="568"/>
  <unicode hex="0393"/>
  <anchor x="309" y="700" name="t.uni0308"/>
  <outline>
    <contour>
      <point x="126" y="0" type="line"/>
      <point x="126" y="700" type="line"/>
      <point x="559" y="700" type="line"/>
      <point x="558.667" y="654.334" type="line"/>
      <point x="161.666" y="654.334" type="line"/>
      <point x="176.666" y="669.667" type="line"/>
      <point x="176.999" y="0" type="line"/>
    </contour>
  </outline>
</glyph>
<glyph name="uni0394" format="2">
  <advance width="705"/>
  <unicode hex="0394"/>
  <outline>
    <contour>
      <point x="377.999" y="700" type="line"/>
      <point x="700.333" y="0" type="line"/>
      <point x="5.00011" y="0" type="line"/>
      <point x="327" y="700" type="line"/>
    </contour>
    <contour>
      <point x="68.3324" y="21.6664" type="line"/>
      <point x="53.3327" y="45.6659" type="line"/>
      <point x="650.333" y="45.6659" type="line"/>
      <point x="635.334" y="21.6664" type="line"/>
      <point x="341.333" y="668.334" type="line"/>
      <point x="363.333" y="668.334" type="line"/>
    </contour>
  </outline>
</glyph>
<glyph name="Zeta" format="2">
  <advance width="646"/>
  <unicode hex="0396"/>
  <anchor x="367" y="700" name="t.uni0308"/>
  <anchor x="362" y="0" name="b.uni0324_3"/>
  <outline>
    <contour>
      <point x="47.3334" y="0" type="line"/>
      <point x="47.3334" y="35.9994" type="line"/>
      <point x="546.001" y="673.667" type="line"/>
      <point x="551" y="654.334" type="line"/>
      <point x="53.0001" y="654.334" type="line"/>
      <point x="53.0001" y="700" type="line"/>
      <point x="600" y="700" type="line"/>
      <point x="600" y="664.001" type="line"/>
      <point x="101.666" y="26.3329" type="line"/>
      <point x="96.3326" y="45.6659" type="line"/>
      <point x="611" y="45.6659" type="line"/>
      <point x="611" y="0" type="line"/>
    </contour>
  </outline>
</glyph>
